<svg width="60" height="60" viewBox="0 0 60 60" fill="none" xmlns="http://www.w3.org/2000/svg">
<rect width="60" height="60" rx="30" fill="#266BFF"/>
<path d="M48.0033 19.0564C48.0128 20.2423 47.0094 21.1016 45.9705 21.0939C45.0263 21.0872 43.9666 20.3371 43.9651 19.0492C43.9641 17.8603 44.8813 16.9985 45.9893 17C47.1741 17.0021 48.027 17.9849 48.0033 19.0564Z" fill="#2FC750"/>
<path d="M17.8822 22.2495C17.2709 22.2573 16.6588 22.3518 16.0492 22.5376C13.8949 23.1943 12.4275 24.6537 11.5633 26.727C10.9478 28.2041 10.8624 29.7578 11.1825 31.315C11.6606 33.6432 12.9857 35.3493 15.0685 36.4322C16.2887 37.0664 17.6068 37.1985 18.9507 37.0113C20.403 36.8093 21.73 36.3148 22.7664 35.172C22.8043 35.2377 22.8005 35.2931 22.7967 35.3439C22.7957 35.357 22.7945 35.3699 22.7943 35.3825C22.7958 35.6088 22.7959 35.8353 22.7957 36.0616C22.7957 36.2126 22.7953 36.3633 22.7957 36.5143C22.796 36.6576 22.79 36.7219 22.8192 36.7506C22.8489 36.7798 22.915 36.7718 23.0617 36.7721C23.9126 36.7731 24.7633 36.7741 25.6142 36.7716C25.7841 36.7713 25.8595 36.7847 25.8923 36.7535C25.9245 36.7229 25.9158 36.6496 25.9158 36.4781C25.9165 33.0759 25.9164 29.6734 25.9163 26.2712C25.9163 25.1378 25.9163 24.0047 25.9163 22.8712C25.9163 22.8581 25.9157 22.8448 25.9153 22.8316C25.9144 22.8036 25.9137 22.7757 25.9168 22.7481C25.929 22.6374 25.8972 22.5879 25.7726 22.5885C24.8325 22.5936 23.8927 22.5936 22.953 22.5885C22.8198 22.5874 22.7926 22.6393 22.7937 22.7608C22.7987 23.3017 22.7967 23.8429 22.7942 24.3843C22.7942 24.3955 22.7961 24.4076 22.7981 24.42C22.8045 24.4613 22.8115 24.5066 22.7511 24.5318C22.717 24.4908 22.6831 24.4494 22.6495 24.4083C22.5848 24.3293 22.5206 24.2508 22.4539 24.1739C21.8425 23.471 21.1072 22.9462 20.2298 22.6422C19.4529 22.3728 18.6683 22.2394 17.8822 22.2495ZM18.3144 25.123C18.4475 25.1211 18.5817 25.1243 18.7171 25.1318C19.6477 25.183 20.492 25.479 21.2194 26.0824C22.2421 26.931 22.7738 28.0318 22.8437 29.3627C22.8913 30.2712 22.7638 31.1508 22.3099 31.9492C21.4848 33.399 20.2391 34.1606 18.5821 34.2216C18.0857 34.2395 17.5897 34.2079 17.1161 34.0551C15.3929 33.4993 14.3674 32.3137 14.0365 30.5126C13.9969 30.2966 13.9892 30.0792 13.9818 29.8783C13.9797 29.8222 13.9776 29.7674 13.9749 29.7143C13.9729 28.1562 14.5339 26.904 15.7425 25.976C16.5115 25.3852 17.3823 25.1359 18.3141 25.123L18.3144 25.123ZM42.2446 23.0204C42.2446 22.922 42.2461 22.8236 42.2441 22.7251C42.2411 22.5493 42.2401 22.5447 42.0729 22.5447C41.1489 22.5431 40.2251 22.5431 39.3011 22.5447C39.1209 22.5447 39.1194 22.5482 39.1171 22.7364C39.1126 23.245 39.1101 23.7536 39.1051 24.2622C39.1046 24.3227 39.1176 24.3878 39.0874 24.4432C39.0641 24.4385 39.0538 24.4396 39.0503 24.4355C38.988 24.3601 38.9262 24.2837 38.8639 24.2083C38.2354 23.4475 37.4568 22.9097 36.5278 22.5923C35.6875 22.3052 34.8218 22.2242 33.941 22.2452C33.2384 22.2622 32.5531 22.3734 31.8986 22.6333C30.2093 23.3045 28.9739 24.5016 28.1432 26.1078C27.231 27.8715 27.1241 29.7501 27.5987 31.6578C28.0404 33.4332 29.094 34.8005 30.5234 35.884C31.1936 36.3921 31.9468 36.7243 32.7699 36.8925C33.6624 37.075 34.5575 37.0781 35.4516 36.9243C36.8288 36.6879 38.0922 36.2055 39.1058 35.1027C39.1114 35.195 39.1184 35.2421 39.1164 35.2893C39.1018 35.6087 39.0926 35.9281 39.043 36.2449C38.804 37.7651 38.0229 38.8602 36.5933 39.4442C35.5048 39.8892 34.3874 39.9353 33.2552 39.6564C32.1986 39.396 31.2751 38.8992 30.573 38.0322C30.4864 37.9251 30.4798 37.9266 30.3527 38.0548C29.6987 38.7151 29.0458 39.377 28.3924 40.0384C28.3696 40.0615 28.3473 40.0856 28.324 40.1086C28.2819 40.1502 28.2799 40.1922 28.3189 40.2368C28.3675 40.2922 28.4146 40.3481 28.4643 40.4024C29.1172 41.114 29.8806 41.6754 30.7432 42.0957C32.7689 43.0832 34.8802 43.2227 37.0456 42.7045C38.2276 42.4215 39.2703 41.8631 40.1302 40.9792C40.9216 40.1661 41.4311 39.1889 41.7608 38.1082C42.1229 36.9218 42.2405 35.7 42.242 34.4655C42.2475 30.6505 42.2446 26.8354 42.2446 23.0204ZM39.1744 29.6972C39.1562 31.204 38.5728 32.4606 37.3312 33.3804C36.7218 33.8321 36.0305 34.0771 35.2833 34.1494C34.3634 34.2381 33.4663 34.1417 32.6411 33.687C31.2861 32.94 30.5132 31.7849 30.3328 30.2295C30.2336 29.3749 30.3045 28.5335 30.6545 27.747C31.3495 26.1869 32.5398 25.2841 34.2367 25.1036C35.2133 24.9995 36.1508 25.1451 36.9992 25.6598C38.2873 26.4417 39.0066 27.6014 39.147 29.1211C39.1576 29.2354 39.1673 29.3497 39.1738 29.4646C39.1773 29.5307 39.1744 29.5962 39.1744 29.6972ZM44.4783 29.6655V22.825C44.4783 22.522 44.4595 22.5594 44.7355 22.5589C45.6027 22.5579 46.4694 22.5579 47.3366 22.5589C47.6219 22.5594 47.5982 22.5276 47.5982 22.8219C47.5987 26.2584 47.5982 29.6951 47.5982 33.1316V36.4533C47.5982 36.519 47.5972 36.5846 47.5972 36.6502C47.5972 36.7102 47.5666 36.7394 47.5091 36.741C47.4603 36.7425 47.4117 36.7425 47.3632 36.7425C46.4797 36.7425 45.5967 36.743 44.7133 36.7425C44.454 36.7425 44.4778 36.7656 44.4778 36.5056C44.4783 34.2252 44.4783 31.9451 44.4783 29.6652V29.6655Z" fill="white"/>
</svg>
