<svg width="60" height="60" viewBox="0 0 60 60" fill="none" xmlns="http://www.w3.org/2000/svg">
<rect width="60" height="60" rx="30" fill="#C7D540"/>
<g clip-path="url(#clip0_510_1990)">
<path d="M36.872 16C34.1765 15.9987 31.5419 16.8011 29.3052 18.3044C29.1512 18.4095 28.087 19.1692 28.0402 19.2062C26.2722 20.5347 25.0852 20.7646 23.4596 20.3574C23.3602 20.3321 22.8943 20.1724 22.7481 20.1159C21.2298 19.5446 19.5964 19.3459 17.9853 19.5365C16.3742 19.727 14.8324 20.3013 13.4894 21.211C12.1465 22.1207 11.0417 23.3392 10.2679 24.7642C9.49414 26.1892 9.07394 27.779 9.04266 29.4C9.01137 31.021 9.36992 32.6258 10.0882 34.0796C10.8064 35.5333 11.8633 36.7935 13.1702 37.7543C14.477 38.7151 15.9955 39.3483 17.5981 39.6008C19.2007 39.8533 20.8405 39.7176 22.3797 39.2053C24.8045 38.4807 26.1202 38.6794 27.6425 39.7526C27.9466 39.9669 28.6795 40.4364 28.8315 40.5474C30.5642 41.818 32.5735 42.6601 34.6947 43.0048C36.816 43.3495 38.9888 43.1868 41.0349 42.5302C43.0811 41.8736 44.9425 40.7418 46.4664 39.2274C47.9903 37.7131 49.1334 35.8594 49.802 33.8183C50.4705 31.7772 50.6455 29.6068 50.3126 27.4851C49.9797 25.3633 49.1483 23.3507 47.8867 21.612C46.625 19.8734 44.969 18.4583 43.0544 17.4828C41.1398 16.5073 39.0211 15.9992 36.872 16Z" fill="#007858"/>
<path d="M31.9658 31.6923C31.5787 32.0731 31.0739 32.3115 30.5337 32.3688C29.9935 32.4261 29.4499 32.2989 28.9913 32.0078L28.0889 33.4395C28.8708 33.9333 29.7966 34.1489 30.7164 34.0513C31.6361 33.9537 32.496 33.5487 33.1568 32.9019L31.9658 31.6923ZM30.3402 25.8603C29.5948 25.8484 28.8602 26.0395 28.2152 26.4129C27.5701 26.7864 27.0389 27.3281 26.6784 27.9802C26.3179 28.6323 26.1417 29.3701 26.1687 30.1146C26.1957 30.8591 26.4249 31.5822 26.8316 32.2065L34.2737 29.0276C34.0642 28.1374 33.5637 27.3426 32.8512 26.7689C32.1387 26.1952 31.2551 25.8755 30.3402 25.8603ZM27.8745 30.2197C27.8182 29.7052 27.9289 29.1863 28.1902 28.7395C28.4515 28.2927 28.8497 27.9417 29.3258 27.7382C29.802 27.5348 30.331 27.4897 30.8348 27.6096C31.3386 27.7295 31.7904 28.0081 32.1237 28.4042L27.8745 30.2197ZM36.6108 24.0117V31.9377L37.9869 32.5084L37.3378 34.0668L35.9734 33.5019C35.6986 33.3844 35.4652 33.1877 35.3028 32.937C35.1215 32.6451 35.03 32.3064 35.0397 31.963V24.0117H36.6108ZM24.6271 24.0117V31.9377L25.9915 32.5084L25.3425 34.0668L23.978 33.5019C23.7125 33.3835 23.487 33.1906 23.3289 32.9467C23.1469 32.6551 23.0548 32.3164 23.0638 31.9728V24.0117H24.6271Z" fill="white"/>
<path d="M43.3822 27.7867C43.6682 27.9245 43.9241 28.1173 44.1355 28.354C44.3469 28.5907 44.5096 28.8668 44.6142 29.1663C44.7188 29.4659 44.7634 29.7831 44.7453 30.0998C44.7272 30.4166 44.6469 30.7267 44.5088 31.0124L46.0311 31.7429C46.4432 30.8841 46.5437 29.9088 46.3154 28.9841C46.0872 28.0594 45.5443 27.2427 44.7799 26.674C44.0154 26.1052 43.0768 25.8197 42.1249 25.8663C41.173 25.913 40.2669 26.2888 39.5618 26.9296L40.7001 28.1782C41.0567 27.8523 41.5029 27.6408 41.981 27.571C42.4591 27.5012 42.9472 27.5763 43.3822 27.7867Z" fill="#C7D540"/>
<path d="M41.2869 32.1442C40.7091 31.8661 40.2653 31.3702 40.0529 30.7654C39.8406 30.1606 39.8771 29.4964 40.1544 28.9185L38.6321 28.1861C38.2241 29.0437 38.1262 30.0162 38.3551 30.9379C38.584 31.8597 39.1255 32.6736 39.8874 33.2411C40.6493 33.8087 41.5845 34.0948 42.5338 34.0507C43.4831 34.0066 44.3877 33.635 45.0937 32.9993L43.9553 31.7527C43.5997 32.0753 43.156 32.2848 42.6808 32.3546C42.2056 32.4243 41.7203 32.351 41.2869 32.1442ZM21.5084 32.2591V29.9645C21.5084 29.1554 21.2683 28.3646 20.8186 27.6919C20.3688 27.0192 19.7295 26.4949 18.9815 26.1853C18.2336 25.8757 17.4106 25.7947 16.6165 25.9525C15.8225 26.1103 15.0931 26.4999 14.5207 27.072C13.9482 27.6441 13.5584 28.373 13.4004 29.1665C13.2425 29.9599 13.3236 30.7824 13.6334 31.5299C13.9432 32.2773 14.4678 32.9162 15.141 33.3657C15.8141 33.8152 16.6055 34.0551 17.4151 34.0551C18.0497 34.0551 18.6756 33.9078 19.2434 33.6246L18.5846 32.0857C18.2157 32.2896 17.8 32.3936 17.3785 32.3876C16.9571 32.3816 16.5445 32.2657 16.1816 32.0514C15.8187 31.8371 15.5181 31.5319 15.3095 31.1659C15.1009 30.7998 14.9915 30.3857 14.9922 29.9645C14.99 29.5688 15.0858 29.1786 15.271 28.8289C15.434 28.5236 15.6604 28.2567 15.935 28.0461C16.2097 27.8354 16.5263 27.6859 16.8635 27.6075C17.0423 27.5652 17.2255 27.5436 17.4092 27.5432C18.0525 27.5427 18.6697 27.7975 19.1251 28.2515C19.5805 28.7055 19.8369 29.3216 19.8379 29.9645V32.2396C19.8283 32.583 19.9198 32.9217 20.1011 33.2136C20.2646 33.4633 20.4977 33.6597 20.7716 33.7785L21.5396 34.0823L22.1906 32.524L21.5084 32.2591Z" fill="white"/>
</g>
<defs>
<clipPath id="clip0_510_1990">
<rect width="45.8007" height="29" fill="white" transform="translate(7 16)"/>
</clipPath>
</defs>
</svg>
