<svg width="60" height="60" viewBox="0 0 60 60" fill="none" xmlns="http://www.w3.org/2000/svg">
<rect width="60" height="60" rx="30" fill="#333E47"/>
<path d="M21.2748 19.0055C20.2593 19.0055 19.1936 19.4767 18.3661 20.2114L18.2732 19.581C18.2495 19.4222 18.1225 19.288 17.9367 19.288H17.053C16.8913 19.288 16.7595 19.4201 16.7595 19.581C16.7595 23.5913 16.7595 27.602 16.7595 31.6122C16.7595 31.7735 16.8917 31.9053 17.053 31.9053H18.2077C18.369 31.9053 18.5008 31.7731 18.5008 31.6122V27.4576C19.2333 28.1107 20.1859 28.4865 21.2043 28.4865C23.6236 28.4865 25.0541 26.3919 25.0541 23.7851C25.0541 21.3488 24.1189 19.0055 21.2748 19.0055ZM22.4304 26.4636C21.9803 26.9074 21.4779 27.0282 20.7212 27.0282C20.0478 27.0282 19.162 26.6769 18.5003 26.1879V21.2635C19.1894 20.7345 20.0681 20.4482 20.8006 20.4482C22.7133 20.4482 23.2343 21.9522 23.2343 23.6744C23.2453 24.8356 23.0317 25.8708 22.4304 26.4636Z" fill="white"/>
<path d="M33.5114 27.9739C33.5114 28.1352 33.3792 28.267 33.2171 28.267H32.3549C32.1687 28.267 32.0416 28.1323 32.0175 27.9739L31.931 27.387C31.5349 27.7223 31.0485 28.017 30.5212 28.2222C29.5074 28.6161 28.3383 28.6812 27.3477 28.0727C26.6312 27.6332 26.2512 26.7736 26.2512 25.8865C26.2512 25.2004 26.4628 24.5201 26.9314 24.0266C27.5567 23.3519 28.4637 23.0204 29.5581 23.0204C30.2193 23.0204 31.1655 23.0981 31.8541 23.3231V22.1422C31.8541 20.9414 31.3487 20.422 30.0158 20.422C28.9969 20.422 28.2175 20.5757 27.1332 20.9131C26.9597 20.919 26.858 20.7868 26.858 20.6256V19.9521C26.858 19.7904 26.996 19.6342 27.1455 19.5869C27.9198 19.2491 29.0172 19.0388 30.1834 19C31.7038 19 33.5109 19.3428 33.5109 21.6815V27.9739H33.5114ZM31.8545 26.2496V24.4678C31.2761 24.3095 30.3185 24.244 29.9482 24.244C29.363 24.244 28.7221 24.3825 28.3872 24.7427C28.1373 25.007 28.0241 25.3861 28.0241 25.7526C28.0241 26.2268 28.188 26.7022 28.5713 26.9374C29.0164 27.2397 29.7067 27.203 30.3552 27.0184C30.9784 26.842 31.5641 26.5287 31.8545 26.2496Z" fill="white"/>
<path d="M35.1424 31.5966C35.1424 31.3779 35.1424 31.1816 35.1424 30.9629C35.1424 30.7826 35.2311 30.658 35.419 30.6694C35.7703 30.7192 36.2668 30.7691 36.6198 30.6964C37.0804 30.6006 37.4106 30.2742 37.6061 29.8267C37.8814 29.1967 38.0638 28.6888 38.1791 28.3556L34.6822 19.6925C34.6231 19.5455 34.6058 19.2728 34.8992 19.2728H36.1216C36.3546 19.2728 36.4496 19.421 36.502 19.5658L39.0374 26.6026L41.4576 19.5658C41.507 19.4218 41.6062 19.2728 41.8372 19.2728H42.9899C43.2816 19.2728 43.2652 19.5451 43.2069 19.6925L39.7379 28.6259C39.2891 29.8148 38.6912 31.7089 37.3443 32.0378C36.6692 32.2143 35.8171 32.1506 35.3168 31.9412C35.1906 31.8778 35.1424 31.7085 35.1424 31.5966Z" fill="white"/>
<path d="M46.5187 31.2356C45.3365 31.2521 43.9406 31.5168 42.8817 32.2599C42.5549 32.4867 42.6123 32.8017 42.9758 32.7599C44.1665 32.6167 46.8168 32.2954 47.2905 32.9009C47.7655 33.5063 46.7653 36.0042 46.3232 37.1214C46.1864 37.4546 46.4756 37.5926 46.7809 37.3393C48.762 35.68 49.2766 32.2013 48.8713 31.7009C48.6682 31.4505 47.7009 31.2192 46.5187 31.2356Z" fill="#F79C34"/>
<path d="M11.2733 32.5023C10.9971 32.5403 10.8781 32.8903 11.1669 33.1677C16.1284 37.8214 22.6851 40.1002 29.9647 40.1002C35.1567 40.1002 41.1848 38.4062 45.3458 35.2138C46.0336 34.683 45.4476 33.8876 44.7421 34.2017C40.0769 36.26 35.0094 37.2523 30.3974 37.2523C23.5621 37.2523 16.9454 35.8252 11.592 32.5837C11.4755 32.5128 11.3653 32.4896 11.2733 32.5023Z" fill="#F79C34"/>
</svg>
