<svg width="60" height="60" viewBox="0 0 60 60" fill="none" xmlns="http://www.w3.org/2000/svg">
<rect width="60" height="60" rx="30" fill="url(#paint0_linear_510_2282)"/>
<path d="M47.9041 22.3003V22.306L42.5513 16.9965C41.9046 16.3608 41.034 16.0046 40.1273 16.0046C39.2205 16.0046 38.35 16.3608 37.7032 16.9965L31.9578 22.695C31.3126 23.3328 30.442 23.6905 29.5348 23.6905C28.6276 23.6905 27.757 23.3328 27.1118 22.695L21.3664 16.9965C20.7197 16.3608 19.8492 16.0046 18.9424 16.0046C18.0356 16.0046 17.1651 16.3608 16.5184 16.9965L11.1655 22.306V22.3003C10.4518 23.0104 10.0357 23.9661 10.0022 24.9724C9.96867 25.9787 10.3202 26.9599 10.9851 27.7159C10.9923 27.7241 27.1113 43.7114 27.1113 43.7114C27.7565 44.3492 28.6271 44.7069 29.5343 44.7069C30.4415 44.7069 31.3121 44.3492 31.9573 43.7114C31.9573 43.7114 48.0763 27.7241 48.0835 27.7159C48.7484 26.9599 49.0999 25.9787 49.0664 24.9724C49.0329 23.9661 48.6168 23.0104 47.9031 22.3003H47.9041Z" fill="white"/>
<path opacity="0.5" d="M27.1108 22.695C27.7564 23.3328 28.6274 23.6905 29.5348 23.6905C30.4423 23.6905 31.3132 23.3328 31.9588 22.695L37.7028 16.9949C38.3158 16.388 39.1352 16.0347 39.9974 16.0056V16H19.0713V16.0056C19.9341 16.0347 20.7542 16.3882 21.3679 16.9955L27.1108 22.695Z" fill="white"/>
<defs>
<linearGradient id="paint0_linear_510_2282" x1="0" y1="30" x2="60" y2="30" gradientUnits="userSpaceOnUse">
<stop stop-color="#C90159"/>
<stop offset="1" stop-color="#1F0082"/>
</linearGradient>
</defs>
</svg>
