<svg width="60" height="60" viewBox="0 0 60 60" fill="none" xmlns="http://www.w3.org/2000/svg">
<rect width="60" height="60" rx="30" fill="#1F72CD"/>
<rect x="5" y="13" width="50" height="34" rx="6" fill="#1F72CD"/>
<path fill-rule="evenodd" clip-rule="evenodd" d="M14.0976 25.0416L9.4585 35.3078H15.0122L15.7007 33.671H17.2744L17.9629 35.3078H24.0759V34.0585L24.6207 35.3078H27.7828L28.3275 34.0321V35.3078H41.041L42.5869 33.7135L44.0344 35.3078L50.5643 35.321L45.9105 30.2034L50.5643 25.0416H44.1356L42.6308 26.6065L41.2289 25.0416H27.3983L26.2107 27.6914L24.9952 25.0416H19.4531V26.2484L18.8366 25.0416H14.0976ZM33.0825 26.4995H40.3832L42.6161 28.9114L44.921 26.4995H47.154L43.7613 30.202L47.154 33.8618H44.8198L42.5868 31.4218L40.2702 33.8618H33.0825V26.4995ZM34.8855 29.3695V28.0247V28.0234H39.4409L41.4286 30.1741L39.3528 32.3365H34.8855V30.8684H38.8683V29.3695H34.8855ZM15.1723 26.4995H17.8794L20.9565 33.461V26.4995H23.9221L26.2988 31.4909L28.4892 26.4995H31.4399V33.8661H29.6445L29.6298 28.0936L27.0122 33.8661H25.4061L22.7739 28.0936V33.8661H19.0802L18.38 32.2146H14.5968L13.898 33.8647H11.919L15.1723 26.4995ZM15.2428 30.6879L16.4892 27.7459L17.7341 30.6879H15.2428Z" fill="white"/>
</svg>
