<svg width="60" height="60" viewBox="0 0 60 60" fill="none" xmlns="http://www.w3.org/2000/svg">
<rect width="60" height="60" rx="30" fill="black"/>
<path fill-rule="evenodd" clip-rule="evenodd" d="M14.5891 24.2287C15.3742 24.2949 16.1593 23.8313 16.65 23.2435C17.1325 22.6392 17.4515 21.8279 17.3697 21C16.6745 21.0331 15.8158 21.4636 15.3251 22.0679C14.8753 22.5895 14.4909 23.4339 14.5891 24.2287ZM23.9288 34.8916V21.9852H28.7132C31.183 21.9852 32.9086 23.7072 32.9086 26.2239C32.9086 28.7406 31.1503 30.4791 28.6477 30.4791H25.908V34.8916H23.9288ZM17.3616 24.3859C16.6699 24.3456 16.0388 24.5965 15.529 24.7991C15.201 24.9295 14.9232 25.0399 14.7118 25.0399C14.4747 25.0399 14.1854 24.9236 13.8606 24.793C13.435 24.6219 12.9485 24.4262 12.4383 24.4356C11.2688 24.4522 10.1811 25.1227 9.58404 26.1907C8.35729 28.3265 9.26509 31.489 10.4509 33.2275C11.0316 34.0885 11.7268 35.0322 12.6427 34.9991C13.0457 34.9837 13.3356 34.8592 13.6356 34.7303C13.9809 34.582 14.3397 34.4279 14.8999 34.4279C15.4407 34.4279 15.7838 34.578 16.1132 34.7221C16.4263 34.8591 16.7271 34.9906 17.1735 34.9825C18.1222 34.966 18.7192 34.1216 19.2999 33.2606C19.9265 32.3366 20.2019 31.4347 20.2437 31.2978L20.2486 31.282C20.2476 31.281 20.2398 31.2774 20.2262 31.2711C20.0167 31.174 18.4156 30.432 18.4003 28.4424C18.3849 26.7725 19.6702 25.9264 19.8725 25.7932L19.8725 25.7932C19.8849 25.785 19.8932 25.7796 19.8969 25.7767C19.0791 24.5515 17.8033 24.419 17.3616 24.3859ZM36.5237 34.9908C37.7668 34.9908 38.9199 34.3533 39.4434 33.3433H39.4842V34.8914H41.3162V28.4673C41.3162 26.6046 39.8441 25.4042 37.5787 25.4042C35.4769 25.4042 33.923 26.6211 33.8657 28.2934H35.6486C35.7958 27.4987 36.5237 26.9771 37.5214 26.9771C38.7318 26.9771 39.4106 27.5483 39.4106 28.5997V29.3117L36.9408 29.4607C34.6427 29.6014 33.3996 30.5535 33.3996 32.2092C33.3996 33.8815 34.6836 34.9908 36.5237 34.9908ZM37.0552 33.4594C36.0002 33.4594 35.3296 32.9461 35.3296 32.1596C35.3296 31.3483 35.9756 30.8765 37.2106 30.802L39.4105 30.6612V31.3897C39.4105 32.5984 38.3964 33.4594 37.0552 33.4594ZM47.3924 35.3964C46.5991 37.6565 45.6913 38.4016 43.7613 38.4016C43.614 38.4016 43.1233 38.385 43.0088 38.3519V36.8038C43.1315 36.8204 43.4341 36.8369 43.5895 36.8369C44.4646 36.8369 44.9553 36.4644 45.2579 35.4958L45.4378 34.9246L42.0847 25.5283H44.1538L46.4846 33.1529H46.5255L48.8563 25.5283H50.8682L47.3924 35.3964ZM25.9079 23.6739H28.1897C29.9071 23.6739 30.8885 24.6011 30.8885 26.232C30.8885 27.8629 29.9071 28.7984 28.1815 28.7984H25.9079V23.6739Z" fill="white"/>
</svg>
