<svg width="60" height="60" viewBox="0 0 60 60" fill="none" xmlns="http://www.w3.org/2000/svg">
<rect width="60" height="60" rx="30" fill="#002820"/>
<path d="M18.3187 30.3253L22.0062 23.3542C22.242 22.917 22.4484 22.596 22.9793 22.596C23.5103 22.596 23.7461 22.917 23.7461 23.5001V30.3253H18.3187ZM19.1443 23.5001L10 40.7088H12.8319L16.0178 34.7296C17.021 32.8626 18.0529 32.1922 20.4133 32.1922H23.7468V40.7088H28.6732V24.9873C28.6725 21.6041 27.0796 20 24.1595 20C21.6228 20 20.3538 21.225 19.1443 23.5001ZM35.8405 41C38.3771 41 39.6456 39.775 40.8551 37.4999L50 20.2919H47.1681L37.9938 37.6465C37.758 38.0837 37.5516 38.4047 37.0207 38.4047C36.4897 38.4047 36.2539 38.0837 36.2539 37.5006V20.2919H31.3275V36.0127C31.3275 39.396 32.9204 41 35.8405 41Z" fill="white"/>
</svg>
