<svg width="60" height="60" viewBox="0 0 60 60" fill="none" xmlns="http://www.w3.org/2000/svg">
<rect width="60" height="60" rx="30" fill="#01FF5F"/>
<g clip-path="url(#clip0_508_1620)">
<path d="M50.9778 43.7598C50.9848 43.7951 50.9637 43.8305 50.9284 43.8375C50.5192 43.9435 50.1947 44 49.8773 44C48.8261 44 48.3393 43.4278 48.3393 42.3117V38.5042C48.3393 38.4688 48.3605 38.4406 48.3958 38.4335L49.3834 38.2498C49.4258 38.2428 49.461 38.271 49.461 38.3205V39.3095C49.461 39.3448 49.4892 39.3801 49.5316 39.3801H50.7803C50.8155 39.3801 50.8508 39.4084 50.8508 39.4507V40.1925C50.8508 40.2278 50.8226 40.2631 50.7803 40.2631H49.5316C49.4963 40.2631 49.461 40.2914 49.461 40.3337V42.3965C49.461 42.8062 49.6092 43.0958 50.0748 43.0958C50.2723 43.0958 50.5122 43.0464 50.7732 42.9828C50.8155 42.9757 50.8508 42.9969 50.8579 43.0393L50.9778 43.7598ZM46.6462 43.9152L45.7855 42.5236C45.7573 42.4812 45.6938 42.4812 45.6727 42.5236L44.805 43.9152C44.7908 43.9364 44.7697 43.9506 44.7485 43.9506H43.5915C43.5351 43.9506 43.5069 43.887 43.5351 43.8446L44.9672 41.6971C44.9813 41.6759 44.9813 41.6477 44.9672 41.6194L43.5633 39.4861C43.5351 39.4437 43.5633 39.3801 43.6198 39.3801H44.7838C44.805 39.3801 44.8261 39.3942 44.8402 39.4154L45.6727 40.7435C45.7009 40.7858 45.7644 40.7858 45.7926 40.7435L46.5827 39.4154C46.5968 39.3942 46.618 39.3801 46.6392 39.3801H47.7961C47.8526 39.3801 47.8808 39.4437 47.8526 39.4861L46.4981 41.577C46.484 41.5982 46.484 41.6265 46.4981 41.6547L47.9302 43.8517C47.9584 43.894 47.9302 43.9576 47.8737 43.9576H46.6956C46.6815 43.9506 46.6533 43.9364 46.6462 43.9152ZM41.5316 40.1501C40.9531 40.1501 40.5933 40.5457 40.5298 41.1814C40.5228 41.2238 40.558 41.2591 40.6004 41.2591H42.4699C42.5122 41.2591 42.5404 41.2238 42.5404 41.1885C42.5122 40.6092 42.2088 40.1501 41.5316 40.1501ZM42.6603 43.9223C42.6462 43.9435 42.6251 43.9506 42.6039 43.9506H41.6938C40.3323 43.9506 39.4081 43.223 39.4081 41.6759C39.4081 40.0441 40.4028 39.3165 41.5598 39.3165C42.8226 39.3165 43.648 40.03 43.648 41.5558C43.648 41.8808 43.4998 42.0362 43.1683 42.0362H40.6074C40.5651 42.0362 40.5369 42.0715 40.5369 42.1139C40.6215 42.7638 41.1154 43.0181 41.7785 43.0181H43.133C43.1894 43.0181 43.2176 43.0817 43.1894 43.1241L42.6603 43.9223ZM36.0007 43.9506H34.9849C34.9496 43.9506 34.9143 43.9223 34.9143 43.8799V40.2702C34.9143 39.8675 35.1118 39.6627 35.4998 39.5567C36.1348 39.3801 36.5792 39.3377 36.9813 39.3377C38.3147 39.3377 38.8367 40.0229 38.8367 40.9766V43.8799C38.8367 43.9152 38.8085 43.9506 38.7662 43.9506H37.7644C37.7291 43.9506 37.6938 43.9223 37.6938 43.8799V41.0755C37.6938 40.6516 37.5104 40.3196 36.9178 40.3196C36.7274 40.3196 36.5298 40.3337 36.1207 40.4397C36.0924 40.4468 36.0713 40.475 36.0713 40.5033V43.8799C36.0713 43.9223 36.0431 43.9506 36.0007 43.9506Z" fill="#1E3C3C"/>
<path d="M42.7873 36.8582C42.5686 36.8582 42.3429 36.8088 42.1383 36.7099C41.3905 36.3496 41.0731 35.4454 41.4399 34.6966L47.7397 21.614C48.0995 20.8652 49.0025 20.5473 49.7503 20.9146C50.4981 21.2749 50.8155 22.1791 50.4487 22.9279L44.1489 36.0105C43.8808 36.5474 43.3447 36.8582 42.7873 36.8582Z" fill="#1E3C3C"/>
<path d="M42.7872 36.8582C42.4416 36.8582 42.0959 36.7381 41.8137 36.498L20.7908 18.6541C20.1559 18.1172 20.0783 17.1636 20.6144 16.5349C21.1506 15.8991 22.103 15.8214 22.7308 16.3583L43.7537 34.2021C44.3887 34.739 44.4663 35.6926 43.9301 36.3214C43.6338 36.6816 43.2105 36.8582 42.7872 36.8582Z" fill="#1E3C3C"/>
<path d="M10.5262 41.4711C9.95482 41.4711 9.41161 41.1461 9.15764 40.5951C8.81196 39.8393 9.14353 38.9421 9.89838 38.596L48.4592 20.9005C49.214 20.5543 50.11 20.8864 50.4557 21.6422C50.8013 22.3981 50.4698 23.2952 49.7149 23.6413L11.1541 41.3298C10.9495 41.4287 10.7379 41.4711 10.5262 41.4711Z" fill="#1E3C3C"/>
<path d="M10.5263 41.4711C10.3005 41.4711 10.0677 41.4216 9.8561 41.3086C9.11536 40.9342 8.81201 40.03 9.18591 39.2883L20.424 16.8316C20.7979 16.0898 21.7009 15.7861 22.4416 16.1605C23.1824 16.5349 23.4857 17.4391 23.1118 18.1808L11.8737 40.6375C11.6057 41.1673 11.0766 41.4711 10.5263 41.4711Z" fill="#1E3C3C"/>
</g>
<defs>
<clipPath id="clip0_508_1620">
<rect width="42" height="28" fill="white" transform="translate(9 16)"/>
</clipPath>
</defs>
</svg>
