<svg width="60" height="60" viewBox="0 0 60 60" fill="none" xmlns="http://www.w3.org/2000/svg">
<rect width="60" height="60" rx="30" fill="#FA6300"/>
<path d="M29.7381 25.177C29.7381 23.9814 30.8208 23.0704 31.9604 23.2412C38.1714 24.2091 42.9577 29.561 42.9577 36.0517C42.9577 46.1861 34.8095 48.4066 31.2766 48.8622C30.4219 48.9761 29.6812 48.2928 29.6812 47.4387C29.7381 47.4957 29.7381 31.0414 29.7381 25.177Z" fill="#462A71"/>
<path d="M19.4815 36.9056H25.2936C27.7438 36.9056 29.7382 34.9129 29.7382 32.4648V12.4234C29.7382 11.6263 29.1114 11 28.3136 11H25.5785C21.4189 11 18 14.3592 18 18.5724V35.4254C18 36.2225 18.6268 36.9056 19.4815 36.9056Z" fill="white"/>
</svg>
