<svg width="60" height="60" viewBox="0 0 60 60" fill="none" xmlns="http://www.w3.org/2000/svg">
<rect width="60" height="60" rx="30" fill="#00ADEF"/>
<path fill-rule="evenodd" clip-rule="evenodd" d="M15.9877 15.0014L15.5391 17.8633C21.9085 19.1533 27.5902 22.3538 31.9472 26.8444L38.5001 22.5554C38.5001 22.5554 39.256 22.047 39.6075 22.4713C39.6075 22.4713 39.9503 22.8018 39.2914 23.5089L33.9109 29.0731C37.7008 33.7887 40.1589 39.6084 40.7194 45.9646H43.7846L48.6431 15L15.9877 15.0014Z" fill="white"/>
<path fill-rule="evenodd" clip-rule="evenodd" d="M22.2623 37.0574L21.9617 36.6955L28.9685 28.8473C25.1957 25.1279 20.3761 22.4653 14.9927 21.3429L12.1377 39.5413C11.6387 42.9536 12.262 45.9639 17.9667 45.9639L37.1751 45.9646C36.6422 40.5936 34.5843 35.6632 31.4354 31.6154L22.2623 37.0574Z" fill="white"/>
</svg>
