<svg width="60" height="60" viewBox="0 0 60 60" fill="none" xmlns="http://www.w3.org/2000/svg">
<rect width="60" height="60" rx="30" fill="#00A857"/>
<path fill-rule="evenodd" clip-rule="evenodd" d="M46.7411 25.0419C47.4365 25.0419 48 25.5889 48 26.2635V39.3972C48 39.8335 47.76 40.2366 47.3706 40.4552L30.627 49.8366C30.4326 49.9458 30.2149 50 29.9977 50C29.7805 50 29.5636 49.9458 29.3694 49.837L12.6305 40.4768C12.2406 40.2587 12 39.8553 12 39.4184V26.2909C12 25.6163 12.5639 25.0692 13.2593 25.0692C13.9545 25.0692 14.5177 25.6163 14.5177 26.2909V38.7125L29.997 47.3677L45.4823 38.6916V26.2635C45.4823 25.5889 46.0457 25.0419 46.7411 25.0419ZM29.372 10.1642C29.7616 9.94538 30.2422 9.94538 30.6318 10.1635L47.3707 19.5421C47.7601 19.7605 48 20.1639 48 20.6001C48 21.0366 47.7601 21.44 47.3707 21.6583L30.6273 31.0397C30.4326 31.1487 30.215 31.2031 29.9975 31.2031C29.7806 31.2031 29.5639 31.1486 29.3694 31.0402L12.6305 21.6804C12.2407 21.4623 12.0008 21.0591 12.0001 20.6229C12.0001 20.1864 12.2395 19.7828 12.6289 19.5642L29.372 10.1642ZM30.003 12.6325L15.777 20.6196L29.9971 28.5708L44.2235 20.6001L30.003 12.6325Z" fill="white"/>
</svg>
