<svg width="60" height="60" viewBox="0 0 60 60" fill="none" xmlns="http://www.w3.org/2000/svg">
<rect width="60" height="60" rx="30" fill="#1E2044"/>
<path fill-rule="evenodd" clip-rule="evenodd" d="M33.5413 32.1249C33.4607 30.3363 32.7912 29.2524 32.1295 28.5995H32.1375C33.0153 28.5995 34.2367 29.3698 34.2367 30.6021C34.2367 31.2824 34.0061 31.7782 33.5413 32.1249ZM30.5726 35.5506V33.8337C31.2067 33.8195 31.7812 33.7609 32.2946 33.6598C32.0468 34.8281 31.4009 35.3821 30.5726 35.5506ZM28.1766 33.5498C28.5003 33.663 28.9025 33.7546 29.4275 33.8018V35.5154C28.7951 35.2904 28.249 34.6509 28.1766 33.5498ZM28.168 28.5995H29.4275V32.7434C28.9576 32.6809 28.5399 32.5668 28.168 32.415V28.5995ZM26.1833 25.8268C26.1833 25.2056 26.4666 24.6678 27.0229 24.2796V27.3168C26.4898 27.0091 26.1833 26.4438 26.1833 25.8268ZM29.4275 21.0386V22.5951C29.0054 22.607 28.5985 22.6522 28.214 22.7289C28.3524 21.9545 28.7978 21.3118 29.4275 21.0386ZM31.8815 22.9734C31.5298 22.8497 31.1027 22.7241 30.5726 22.6523V20.9703C31.186 21.1721 31.7046 21.8041 31.8815 22.9734ZM30.5726 27.5088V23.6957C31.0509 23.7625 31.5114 23.8796 31.9446 24.0383C31.9 25.6866 31.0657 27.2151 30.5726 27.5088ZM28.168 23.7912C28.5374 23.7021 28.9574 23.6481 29.4275 23.635V27.5597H28.168V23.7912ZM32.4037 32.6062C31.8993 32.7221 31.2894 32.7814 30.5726 32.7942V28.6099C31.0961 28.7307 32.4047 30.0011 32.4047 32.4891C32.4047 32.5285 32.4043 32.5676 32.4037 32.6062ZM31.9466 27.5597H31.8891C32.4626 26.8464 32.9189 25.7168 33.052 24.5684C33.4546 24.812 33.8156 25.0938 34.1222 25.4031C34.2748 25.5572 34.3512 25.6342 34.4657 25.6342C34.6947 25.6342 34.8092 25.4416 34.6947 25.249C34.3894 24.7484 34.2748 24.3248 34.2748 23.7857C34.2748 23.439 34.3894 23.131 34.4657 22.9384C34.542 22.7459 34.4657 22.5533 34.2367 22.5533C34.0458 22.5533 34.0077 22.7073 33.9313 22.8228C33.7848 23.0817 33.4971 23.3043 33.0691 23.3218C32.9043 21.2407 31.8496 20.2215 30.7619 19.9404C31.1524 19.0024 32.1199 18.4266 33.3969 18.1631C33.5878 18.1245 33.7405 18.0475 33.7405 17.8935C33.7405 17.701 33.5878 17.6239 33.3969 17.6239C32.9772 17.6239 32.3664 17.8549 31.8702 18.009C31.1069 18.24 30.4581 18.3941 29.8855 18.3941C28.6642 18.3941 27.5954 17.8549 27.2519 17.8549C27.0993 17.8549 26.9847 17.9705 26.9847 18.1245C26.9847 18.24 27.0611 18.3556 27.2901 18.4327C28.3047 18.7647 28.9647 19.2955 29.2559 20.0108C28.6531 20.2342 28.1532 20.6884 27.8114 21.2819C27.4052 20.4556 26.8908 20.0886 26.1451 20.0886C25.4199 20.0886 24.8473 20.6277 24.8473 21.2824C24.8473 21.7445 25.1527 22.0912 25.4962 22.0912C25.6489 22.0912 25.7252 22.0142 25.7252 21.8987C25.7252 21.7445 25.6489 21.7061 25.6489 21.475C25.6489 21.244 25.8397 21.0514 26.1451 21.0514C26.6031 21.0514 27.0229 21.5135 27.0229 22.7843V23.1008C25.8223 23.6373 25.0382 24.5828 25.0382 25.8652C25.0382 27.1826 25.8992 28.1678 27.0229 28.488V31.7369C26.1667 31.0416 25.6872 30.1428 25.3817 29.4853C25.3054 29.3312 25.229 29.1386 25.0382 29.1386C24.8092 29.1386 24.7328 29.3697 24.8473 29.6393C24.9618 29.9088 25.0382 30.3325 25.0382 30.7176C25.0382 31.1798 24.8855 31.6033 24.5802 31.9115C24.4276 32.0654 24.313 32.181 24.313 32.2966C24.313 32.4505 24.4276 32.5276 24.5421 32.5276C24.771 32.5276 25.0382 32.258 25.5344 32.258C25.8397 32.258 26.2214 32.4121 26.8321 32.7972C26.8962 32.8353 26.9593 32.876 27.0229 32.9185V33.3748V33.914C27.0229 34.4532 26.794 34.7998 26.336 34.7998C26.0306 34.7998 25.8397 34.5687 25.8397 34.2606C25.8397 34.0295 25.9924 33.9526 25.9924 33.837C25.9924 33.7214 25.9161 33.6444 25.7634 33.6444C25.5344 33.6444 25.1527 33.991 25.1527 34.5687C25.1527 35.1079 25.5344 35.7626 26.336 35.7626C26.7898 35.7626 27.2162 35.6234 27.6151 35.2275C27.9849 35.8303 28.6337 36.3683 29.3675 36.5668C29.1665 37.584 28.4708 38.4198 27.481 38.4198C26.9847 38.4198 26.7177 38.1502 26.7177 37.8036C26.7177 37.534 26.9084 37.38 27.0611 37.3029C27.2519 37.226 27.4046 37.1874 27.4046 36.9564C27.4046 36.8408 27.3282 36.6868 26.9465 36.6868C26.2596 36.6868 25.6871 37.3029 25.6871 38.0347C25.6871 38.8434 26.2596 39.6136 27.4428 39.6136C28.4512 39.6136 29.3293 39.1147 29.8841 38.4855C30.537 39.0178 31.5315 39.4595 32.023 39.4595C32.1756 39.4595 32.3283 39.3826 32.3283 39.2285C32.3283 39.0744 32.1756 38.9589 32.023 38.8819C31.145 38.4198 30.5726 37.7651 30.5726 36.6098V36.5907C31.9354 36.3344 33.2101 35.2196 33.4918 33.3013C34.7322 32.7695 35.3818 31.8532 35.3818 30.6021C35.3818 28.792 33.7023 27.5597 31.9466 27.5597ZM38.4351 38.4198C37.0993 38.4198 36.2214 37.6496 36.2214 36.4943C36.2214 35.5314 36.8703 34.7612 37.6336 34.7612C37.9389 34.7612 38.2061 34.8767 38.2061 35.1849C38.2061 35.3775 38.1298 35.5314 38.3206 35.5314C38.4351 35.5314 38.5497 35.4159 38.5497 35.1079C38.5497 34.7228 38.2061 34.4146 37.7099 34.4146H37.5954C37.6717 34.2606 37.6717 34.1065 37.6717 34.0681C37.6717 33.7214 37.4047 33.5289 37.1375 33.5289C36.8703 33.5289 36.6031 33.683 36.6031 33.8755C36.6031 33.9526 36.6413 33.991 36.7176 33.991C36.8321 33.991 36.8703 33.8755 37.0612 33.8755C37.2138 33.8755 37.3283 33.9526 37.3283 34.1451C37.3283 34.4146 37.0993 34.5302 36.9084 34.6457C36.2978 34.9924 35.8779 35.6855 35.8779 36.4943C35.8779 37.5725 36.4886 38.2658 37.3665 38.5738L36.7939 39.4595C36.0306 39.4595 35.6489 40.0373 34.9619 41.2696C34.8856 40.9614 34.6565 40.7304 34.2748 40.7304C33.855 40.7304 33.5878 41.0385 33.5878 41.4621C33.5878 41.5777 33.6641 41.6547 33.7405 41.6547C33.855 41.6547 33.9313 41.5777 33.9313 41.4621C33.9313 41.2696 34.0458 41.077 34.2748 41.077C34.542 41.077 34.6565 41.2696 34.6565 41.5006C34.6565 41.7702 34.6184 41.9243 34.4275 42.2323C33.626 43.5417 32.5191 44.1964 31.5649 44.1964C30.7253 44.1964 30.2291 43.6958 30.2291 43.1951C30.2291 42.733 30.4963 42.3479 30.9543 42.3479C31.2596 42.3479 31.4504 42.5404 31.4504 42.81C31.4504 43.0411 31.2596 43.0411 31.2596 43.1566C31.2596 43.2337 31.3359 43.2721 31.4122 43.2721C31.6413 43.2721 31.7939 43.0025 31.7939 42.733C31.7939 42.3094 31.4504 42.0013 30.9543 42.0013C30.4963 42.0013 30.1146 42.3094 30 42.6174C29.8855 42.3094 29.5038 42.0013 29.0458 42.0013C28.5497 42.0013 28.2062 42.3094 28.2062 42.733C28.2062 43.0025 28.3588 43.2721 28.5879 43.2721C28.6642 43.2721 28.7405 43.2337 28.7405 43.1566C28.7405 43.0411 28.5497 43.0411 28.5497 42.81C28.5497 42.5404 28.7405 42.3479 29.0458 42.3479C29.5038 42.3479 29.771 42.733 29.771 43.1951C29.771 43.6958 29.2748 44.1964 28.4352 44.1964C27.481 44.1964 26.3741 43.5417 25.5726 42.2323C25.3817 41.9243 25.3435 41.7702 25.3435 41.5006C25.3435 41.2696 25.458 41.077 25.7252 41.077C25.9543 41.077 26.0688 41.2696 26.0688 41.4621C26.0688 41.5777 26.1451 41.6547 26.2596 41.6547C26.336 41.6547 26.4123 41.5777 26.4123 41.4621C26.4123 41.0385 26.1451 40.7304 25.7252 40.7304C25.3435 40.7304 25.1145 40.9614 25.0382 41.2696C24.3512 40.0373 23.9695 39.4595 23.2061 39.4595L22.6336 38.5738C23.5115 38.2658 24.1222 37.5725 24.1222 36.4943C24.1222 35.6855 23.7023 34.9924 23.0916 34.6457C22.9008 34.5302 22.6717 34.4146 22.6717 34.1451C22.6717 33.9526 22.7862 33.8755 22.939 33.8755C23.1298 33.8755 23.1679 33.991 23.2825 33.991C23.3588 33.991 23.397 33.9526 23.397 33.8755C23.397 33.683 23.1298 33.5289 22.8626 33.5289C22.5954 33.5289 22.3283 33.7214 22.3283 34.0681C22.3283 34.1065 22.3283 34.2606 22.4046 34.4146H22.2902C21.794 34.4146 21.4504 34.7228 21.4504 35.1079C21.4504 35.4159 21.5649 35.5314 21.6794 35.5314C21.8703 35.5314 21.794 35.3775 21.794 35.1849C21.794 34.8767 22.0611 34.7612 22.3665 34.7612C23.1298 34.7612 23.7787 35.5314 23.7787 36.4943C23.7787 37.6496 22.9008 38.4198 21.5649 38.4198C20.0001 38.4198 18.8168 37.2645 18.8168 35.647C18.8168 34.0681 19.7329 32.9897 20.7634 32.027L21.6413 31.1798C22.7481 30.14 23.2061 29.0616 23.2061 27.7138C23.2061 26.2503 22.3283 24.6329 20.4962 23.8241C20.8779 23.7086 21.1069 23.3235 21.1069 22.8614C21.1069 22.5533 20.9924 22.3608 20.9924 22.1296C20.9924 21.6675 21.2596 21.3979 21.6413 21.3979C21.9848 21.3979 22.2138 21.6675 22.2138 21.9371C22.2138 22.1681 22.0611 22.3608 21.794 22.3608C21.6794 22.3608 21.6031 22.3608 21.6031 22.4763C21.6031 22.5918 21.7176 22.6303 21.8703 22.6303C22.3283 22.6303 22.5573 22.2452 22.5573 22.0526C22.6336 22.0912 22.7099 22.1296 22.8244 22.1296C23.0916 22.1296 23.2825 21.9371 23.2825 21.6675C23.2825 21.5905 23.2443 21.475 23.1298 21.475C23.0534 21.475 23.0153 21.552 23.0153 21.6291C23.0153 21.7445 22.939 21.8216 22.8244 21.8216C22.6717 21.8216 22.5573 21.7061 22.481 21.552C22.3283 21.2824 22.0229 21.0514 21.6413 21.0514C21.1451 21.0514 20.7634 21.3979 20.687 21.8601C20.458 21.6291 20.1909 21.3979 19.8092 21.1669C20.1146 20.9744 20.3817 20.8203 20.687 20.5893C21.1451 20.2426 21.5649 19.8575 22.0229 19.3568L24.1222 17.0463C25.9543 15.0052 27.1374 14.5044 28.2825 14.5044C29.2748 14.5044 29.771 15.0052 29.771 15.5828C29.771 16.0063 29.5908 16.3205 29.3047 16.4758C29.1422 16.3096 29.0228 16.0827 28.9695 15.8138C28.9314 15.6213 28.8932 15.6213 28.855 15.6213C28.7787 15.6213 28.7787 15.6983 28.7787 15.7754C28.7787 16.1048 28.8565 16.3703 28.984 16.5761C28.9421 16.5812 28.8991 16.5841 28.855 16.5841C28.4733 16.5841 28.2443 16.3916 28.2443 16.1605C28.2443 16.122 28.2443 16.0449 28.3207 15.9679C28.397 15.8909 28.3588 15.8524 28.3207 15.8524C28.168 15.8524 28.0153 16.0449 28.0153 16.276C28.0153 16.5456 28.2443 16.9307 28.8932 16.9307C28.9892 16.9307 29.1169 16.9184 29.254 16.8768C29.4692 17.0431 29.7346 17.1233 30 17.1233C30.2654 17.1233 30.5309 17.0431 30.746 16.8768C30.8832 16.9184 31.0108 16.9307 31.1069 16.9307C31.7558 16.9307 31.9847 16.5456 31.9847 16.276C31.9847 16.0449 31.8321 15.8524 31.6794 15.8524C31.6413 15.8524 31.603 15.8909 31.6794 15.9679C31.7558 16.0449 31.7558 16.122 31.7558 16.1605C31.7558 16.3916 31.5267 16.5841 31.145 16.5841C31.1009 16.5841 31.058 16.5812 31.0161 16.5761C31.1436 16.3703 31.2213 16.1048 31.2213 15.7754C31.2213 15.6983 31.2213 15.6213 31.145 15.6213C31.1069 15.6213 31.0688 15.6213 31.0306 15.8138C30.9773 16.0827 30.8579 16.3096 30.6954 16.4758C30.4092 16.3205 30.2291 16.0063 30.2291 15.5828C30.2291 15.0052 30.7253 14.5044 31.7176 14.5044C32.8627 14.5044 34.0458 15.0052 35.8779 17.0463L37.9771 19.3568C38.397 19.8575 38.855 20.2426 39.3131 20.5893C39.6184 20.8203 39.8855 20.9744 40.1909 21.1669C39.8092 21.3979 39.5421 21.6291 39.3131 21.8601C39.2367 21.3979 38.855 21.0514 38.3588 21.0514C37.9771 21.0514 37.6717 21.2824 37.5191 21.552C37.4428 21.7061 37.3283 21.8216 37.1756 21.8216C37.0612 21.8216 36.9848 21.7445 36.9848 21.6291C36.9848 21.552 36.9466 21.475 36.8703 21.475C36.7558 21.475 36.7176 21.5905 36.7176 21.6675C36.7176 21.9371 36.9084 22.1296 37.1756 22.1296C37.2901 22.1296 37.3665 22.0912 37.4428 22.0526C37.4428 22.2452 37.6717 22.6303 38.1298 22.6303C38.2825 22.6303 38.397 22.5918 38.397 22.4763C38.397 22.3608 38.3206 22.3608 38.2061 22.3608C37.9389 22.3608 37.7863 22.2067 37.7863 21.9371C37.7863 21.6675 38.0153 21.3979 38.3588 21.3979C38.7405 21.3979 39.0077 21.6675 39.0077 22.1296C39.0077 22.3608 38.8932 22.5533 38.8932 22.8614C38.8932 23.3235 39.1222 23.7086 39.5039 23.8241C37.6717 24.6329 36.7939 26.2503 36.7939 27.7138C36.7939 29.0616 37.252 30.14 38.3588 31.1798L39.2367 32.027C40.2672 32.9897 41.1833 34.0681 41.1833 35.647C41.1833 37.2645 40 38.4198 38.4351 38.4198ZM30 45.5828C29.6947 44.9666 29.3512 44.5815 29.1985 44.389C29.5802 44.235 29.8474 43.9654 30 43.6572C30.1527 43.9654 30.4199 44.235 30.8016 44.389C30.6489 44.5815 30.3054 44.9666 30 45.5828ZM30.386 16.6937C30.2662 16.7475 30.1359 16.7766 30 16.7766C29.8641 16.7766 29.7339 16.7475 29.6141 16.6937C29.7632 16.5798 29.9011 16.4133 30 16.1732C30.099 16.4133 30.2369 16.5798 30.386 16.6937ZM41.7939 33.991C41.565 33.991 41.3741 34.1065 41.2978 34.2606C40.9924 33.5674 40.687 32.9127 39.3512 31.6803C39.4276 31.7189 39.6947 31.7574 39.8855 31.7574C40.3054 31.7574 40.7634 31.6419 41.0306 31.3723C41.1069 31.6419 41.3359 31.7958 41.6032 31.7958C42.0229 31.7958 42.1756 31.5264 42.1756 31.2182C42.1756 31.1027 42.1374 30.9872 42.0229 30.9872C41.794 30.9872 41.9847 31.4493 41.6032 31.4493C41.4504 31.4493 41.3359 31.3338 41.3359 31.1412C41.3359 30.9486 41.4504 30.7176 41.4504 30.448C41.4504 29.8318 41.0687 29.4082 40.6107 29.2927C40.3435 29.2157 40.1909 29.0231 40.1909 28.792C40.1909 28.484 40.4199 28.4455 40.5726 28.4455C40.7252 28.4455 40.8398 28.484 40.8398 28.3684C40.8398 28.2529 40.7252 28.1759 40.4962 28.1759C40.229 28.1759 39.8473 28.3684 39.8473 28.792C39.8473 28.9461 39.8855 29.1002 40.0382 29.2542C39.6947 29.3312 39.3894 29.6008 39.3894 30.0245C39.3894 30.2939 39.4657 30.5635 39.6566 30.5635C39.8855 30.5635 39.6947 30.371 39.6947 30.0629C39.6947 29.7163 40 29.5623 40.3054 29.5623C40.7252 29.5623 41.1069 29.9474 41.1069 30.448C41.1069 31.0256 40.6489 31.4107 39.9237 31.4107C39.5039 31.4107 38.8932 31.3338 38.397 30.7561C37.5954 29.8704 37.1375 29.1002 37.1375 27.7138C37.1375 25.9423 38.397 24.4018 40.229 23.9012C40.6107 23.7857 40.9161 23.439 40.9161 22.9769C40.9161 22.5918 40.687 22.2838 40.3054 22.2838C40.1527 22.2838 40.0382 22.3222 40.0382 22.4377C40.0382 22.5533 40.1527 22.5533 40.229 22.5533C40.3817 22.5533 40.5726 22.7073 40.5726 22.9769C40.5726 23.362 40.2672 23.5931 39.9237 23.5931C39.5039 23.5931 39.2367 23.2849 39.2367 22.8614C39.2367 22.0526 40.1909 21.5135 40.9161 21.1669C40.2672 20.8588 40.0382 20.7433 39.5421 20.3582C39.4276 20.2426 39.3894 20.1271 39.3894 19.9731C39.3894 19.7805 39.5039 19.6264 39.6566 19.6264C39.771 19.6264 39.8473 19.7035 39.8473 19.819C39.8473 19.9346 39.771 19.9346 39.771 20.0115C39.771 20.0886 39.8092 20.1271 39.8855 20.1271C39.9618 20.1271 40.1527 20.0501 40.1527 19.742C40.1527 19.5109 40 19.2799 39.6566 19.2799C39.3131 19.2799 39.0459 19.5494 39.0459 19.9346C38.7787 19.7035 38.4733 19.4339 38.2061 19.1258L36.9848 17.778C36.6413 17.3928 36.8321 16.6612 37.3283 16.6612C37.5954 16.6612 37.7099 16.8537 37.7099 17.0077C37.7099 17.3543 37.3665 17.2002 37.3665 17.3928C37.3665 17.4698 37.4047 17.5468 37.5191 17.5468C37.7863 17.5468 38.0534 17.3543 38.0534 16.9692C38.0534 16.6226 37.7481 16.3145 37.3283 16.3145C36.8321 16.3145 36.4886 16.6996 36.4886 17.2388L36.1069 16.8151C34.4275 14.9666 33.0535 14.1579 31.7176 14.1579C31.2213 14.1579 30.7634 14.3119 30.4963 14.5044C30.2672 14.235 30.1527 14.0424 30 13.8113C29.8474 14.0424 29.7329 14.235 29.5038 14.5044C29.2366 14.3119 28.7787 14.1579 28.2825 14.1579C26.9465 14.1579 25.5726 14.9666 23.8932 16.8151L23.5115 17.2388C23.5115 16.6996 23.1679 16.3145 22.6717 16.3145C22.252 16.3145 21.9466 16.6226 21.9466 16.9692C21.9466 17.3543 22.2138 17.5468 22.481 17.5468C22.5954 17.5468 22.6336 17.4698 22.6336 17.3928C22.6336 17.2002 22.2902 17.3543 22.2902 17.0077C22.2902 16.8537 22.4046 16.6612 22.6717 16.6612C23.1679 16.6612 23.3588 17.3928 23.0153 17.778L21.794 19.1258C21.5268 19.4339 21.2214 19.7035 20.9542 19.9346C20.9542 19.5494 20.687 19.2799 20.3436 19.2799C20.0001 19.2799 19.8474 19.5109 19.8474 19.742C19.8474 20.0501 20.0382 20.1271 20.1146 20.1271C20.1909 20.1271 20.2291 20.0886 20.2291 20.0115C20.2291 19.9346 20.1527 19.9346 20.1527 19.819C20.1527 19.7035 20.2291 19.6264 20.3436 19.6264C20.4962 19.6264 20.6107 19.7805 20.6107 19.9731C20.6107 20.1271 20.5725 20.2426 20.458 20.3582C20.0001 20.8203 19.7329 20.8588 19.084 21.1669C19.8092 21.5135 20.7634 22.0526 20.7634 22.8614C20.7634 23.2849 20.4962 23.5931 20.0764 23.5931C19.7329 23.5931 19.4275 23.362 19.4275 22.9769C19.4275 22.7073 19.6184 22.5533 19.771 22.5533C19.8474 22.5533 19.9619 22.5533 19.9619 22.4377C19.9619 22.3222 19.8474 22.2838 19.6947 22.2838C19.313 22.2838 19.084 22.5918 19.084 22.9769C19.084 23.439 19.3893 23.7857 19.771 23.9012C21.6031 24.4403 22.8626 25.9423 22.8626 27.7138C22.8626 29.1002 22.3665 29.8318 21.6031 30.7561C21.1069 31.3338 20.4962 31.4107 20.0764 31.4107C19.3512 31.4107 18.8931 31.0256 18.8931 30.448C18.8931 29.9474 19.2748 29.5623 19.6947 29.5623C20.0001 29.5623 20.3054 29.7163 20.3054 30.0629C20.3054 30.371 20.1146 30.5635 20.3436 30.5635C20.5343 30.5635 20.6107 30.2939 20.6107 30.0245C20.6107 29.6008 20.3054 29.3312 19.9619 29.2542C20.1146 29.1002 20.1527 28.9461 20.1527 28.792C20.1527 28.3684 19.771 28.1759 19.5039 28.1759C19.2748 28.1759 19.1603 28.2529 19.1603 28.3684C19.1603 28.484 19.2748 28.4455 19.4275 28.4455C19.5802 28.4455 19.8092 28.484 19.8092 28.792C19.8092 29.0231 19.6565 29.2157 19.3893 29.2927C18.9313 29.4082 18.5496 29.8318 18.5496 30.448C18.5496 30.7176 18.6642 30.9486 18.6642 31.1412C18.6642 31.3338 18.5496 31.4493 18.3969 31.4493C18.0154 31.4493 18.2061 30.9872 17.9772 30.9872C17.8626 30.9872 17.8245 31.1027 17.8245 31.2182C17.8245 31.5264 17.9772 31.7958 18.3969 31.7958C18.6642 31.7958 18.8931 31.6419 18.9695 31.3723C19.2367 31.6419 19.6947 31.7574 20.1146 31.7574C20.3054 31.7574 20.5725 31.7189 20.6489 31.6803C19.313 32.9127 19.0076 33.5674 18.7023 34.2606C18.6259 34.1065 18.4351 33.991 18.2061 33.991C17.8245 33.991 17.6337 34.2221 17.6337 34.5687C17.6337 34.6457 17.6337 34.8767 17.8245 34.8767C17.9772 34.8767 17.9009 34.7228 17.9009 34.6073C17.9009 34.4532 18.0154 34.3377 18.2061 34.3377C18.5114 34.3377 18.5878 34.6073 18.5114 35.0308C18.4733 35.2234 18.4733 35.4545 18.4733 35.647C18.4733 37.457 19.8092 38.7664 21.5649 38.7664C21.8321 38.7664 22.0611 38.7279 22.3283 38.6893L22.8626 39.4981C22.481 39.6136 22.2138 39.9602 22.2138 40.3453C22.2138 40.846 22.5954 41.231 23.0916 41.231C23.397 41.231 23.626 41.077 23.626 40.923C23.626 40.8075 23.5496 40.7689 23.4733 40.7689C23.3588 40.7689 23.3588 40.8845 23.0916 40.8845C22.7862 40.8845 22.5573 40.6534 22.5573 40.3453C22.5573 40.0373 22.8244 39.8062 23.2061 39.8062C23.9313 39.8062 24.2749 40.6534 24.771 41.5006L25.2672 42.3479C26.0688 43.7343 27.3664 44.543 28.4352 44.543C28.5879 44.543 28.7405 44.543 28.8932 44.5045C29.3512 44.9666 29.8092 45.8139 30 46.199C30.1909 45.8139 30.6489 44.9666 31.1069 44.5045C31.2596 44.543 31.4122 44.543 31.5649 44.543C32.6336 44.543 33.9313 43.7343 34.7329 42.3479L35.2291 41.5006C35.7252 40.6534 36.0687 39.8062 36.7939 39.8062C37.1756 39.8062 37.4428 40.0373 37.4428 40.3453C37.4428 40.6534 37.2138 40.8845 36.9084 40.8845C36.6413 40.8845 36.6413 40.7689 36.5267 40.7689C36.4504 40.7689 36.3741 40.8075 36.3741 40.923C36.3741 41.077 36.6031 41.231 36.9084 41.231C37.4047 41.231 37.7863 40.846 37.7863 40.3453C37.7863 39.9602 37.5191 39.6136 37.1375 39.4981L37.6717 38.6893C37.9389 38.7279 38.168 38.7664 38.4351 38.7664C40.1909 38.7664 41.5268 37.457 41.5268 35.647C41.5268 35.4545 41.5268 35.2234 41.4886 35.0308C41.4123 34.6073 41.4886 34.3377 41.7939 34.3377C41.9847 34.3377 42.0992 34.4532 42.0992 34.6073C42.0992 34.7228 42.0229 34.8767 42.1756 34.8767C42.3664 34.8767 42.3664 34.6457 42.3664 34.5687C42.3664 34.2221 42.1756 33.991 41.7939 33.991ZM40.8016 40.6149C39.1222 42.3479 36.6413 43.5802 34.2748 44.7356C32.71 45.5058 31.1832 46.276 30 47.2002C28.8169 46.276 27.2901 45.5058 25.7252 44.7356C23.3588 43.5802 20.8779 42.3479 19.1985 40.6149C17.0611 38.4198 16.0306 36.1861 16.0306 33.6444C16.0306 31.4878 16.8703 29.6778 18.7786 27.2517C18.9313 27.0591 19.084 26.8666 19.084 26.7124C19.084 26.5584 18.9313 26.2503 18.855 26.0963L17.5192 23.1694C17.2138 22.5147 16.9084 21.8987 16.9084 21.244C16.9084 20.7048 17.252 20.3197 17.71 19.9346L19.6184 18.2015C19.6947 18.1245 19.6947 18.009 19.6565 17.9319L19.0458 16.6612C18.9695 16.5071 18.9695 16.3916 19.084 16.3145C20.9542 15.0436 22.5191 14.6585 24.771 14.0424C26.9084 13.4647 28.8169 12.964 30 12.1939C31.1832 12.964 33.0917 13.4647 35.2291 14.0424C37.481 14.6585 39.0077 15.1207 40.9161 16.3145C41.0306 16.3916 41.0306 16.5071 40.9543 16.6612L40.3435 17.9319C40.3054 18.009 40.3054 18.1245 40.3817 18.2015L42.2901 19.9346C42.7481 20.3197 43.0917 20.7048 43.0917 21.244C43.0917 21.8987 42.7863 22.5147 42.4809 23.1694L41.1451 26.0963C41.0687 26.2503 40.9161 26.5584 40.9161 26.7124C40.9161 26.8666 41.0687 27.0591 41.2215 27.2517C43.2825 29.5623 43.9695 31.4878 43.9695 33.6444C43.9695 36.1861 42.939 38.4198 40.8016 40.6149ZM42.5954 27.3671C42.2519 26.9436 42.0611 26.751 42.0611 26.597C42.0611 26.4428 42.1756 26.2119 42.2901 25.9423L43.4352 23.4006C43.7787 22.6303 44.084 21.9756 44.084 21.1669C44.084 20.5893 43.8551 20.0115 43.2825 19.5109L41.6413 18.086C41.4886 17.9705 41.4886 17.7779 41.565 17.6239L42.1756 16.2375C42.2137 16.1605 42.2137 16.0449 42.0992 15.9679C40.229 14.6971 38.0916 13.9268 36.0687 13.3491C34.0458 12.81 31.3359 12.0398 30 11C28.6642 12.0398 25.9543 12.7715 23.9313 13.3491C21.9085 13.9268 19.771 14.6971 17.9009 15.9679C17.7863 16.0449 17.7863 16.1605 17.8245 16.2375L18.4351 17.6239C18.5114 17.7779 18.5114 17.9705 18.3588 18.086L16.7176 19.5109C16.145 20.0115 15.9161 20.5893 15.9161 21.1669C15.9161 21.9756 16.2214 22.6303 16.5649 23.4006L17.71 25.9423C17.8245 26.2119 17.939 26.4428 17.939 26.597C17.939 26.751 17.7481 26.9436 17.4046 27.3671C15.6871 29.5237 15 31.2952 15 33.6444C15 36.9178 16.6031 39.4211 18.4351 41.3081C20.3054 43.2337 22.9008 44.5045 25.2672 45.6598C26.8321 46.43 28.4733 47.2002 30 48.4326C31.5267 47.2002 33.168 46.43 34.7329 45.6598C37.0993 44.5045 39.7328 43.2337 41.565 41.3081C43.397 39.4211 45 36.9178 45 33.6444C45 31.2952 44.313 29.5237 42.5954 27.3671Z" fill="white"/>
</svg>
