<svg width="60" height="60" viewBox="0 0 60 60" fill="none" xmlns="http://www.w3.org/2000/svg">
<rect width="60" height="60" rx="30" fill="#A6874B"/>
<path fill-rule="evenodd" clip-rule="evenodd" d="M17.6741 17.4833C17.6741 17.7969 17.4528 17.9298 17.1032 17.9298H16.3729V17.0368H17.1546C17.4889 17.0368 17.6741 17.1936 17.6741 17.4714V17.4833ZM17.8747 19.1725V19.1606C17.8747 18.8769 17.6947 18.7022 17.2883 18.7022H16.3729V19.6309H17.314C17.6639 19.6309 17.8747 19.4861 17.8747 19.1725ZM23.6767 18.678H22.72L23.1982 17.3083L23.6767 18.678ZM31.7282 29.1623C31.7282 30.2955 30.9293 30.7748 29.6663 30.7748H27.0898V27.5497H29.852C31.0595 27.5497 31.7282 28.1162 31.7282 29.1187V29.1623ZM30.3267 33.5607C31.7936 33.5607 32.4435 34.1927 32.4435 35.2164V35.2596C32.4435 36.3712 31.7088 36.8941 30.488 36.9128H27.0898V33.5607H30.3267ZM42.841 19.6611C43.4788 19.6611 43.9211 19.0701 43.9211 18.3461V18.3339C43.9211 17.6099 43.4686 17.007 42.8308 17.007C42.1929 17.007 41.7507 17.598 41.7507 18.3219V18.3339C41.7507 19.0578 42.2031 19.6611 42.841 19.6611ZM48 12V36.9128H47.9254L46.4373 35.1494C45.4285 36.2246 44.5307 36.9128 43.0635 36.9128C40.8636 36.9128 39.3418 34.7621 39.3418 32.1817V32.1389C39.3418 29.5578 40.9001 27.451 43.0635 27.451C44.2062 27.451 45.1314 27.9632 46.0188 28.8189L47.8305 26.3782C46.6954 25.1894 45.2959 24.3969 43.0819 24.3969C39.1399 24.3969 36.3897 27.9024 36.3897 32.1817V32.2245C36.3897 33.9976 36.8621 35.6175 37.6793 36.9128H35.0971C35.1962 36.5347 35.2483 36.1203 35.2483 35.6682V35.625C35.2483 33.6035 34.332 32.5504 32.8467 31.8838C33.7633 31.2816 34.5335 30.2929 34.5335 28.5943V28.5511C34.5335 26.186 32.92 24.6592 30.2985 24.6592H24.3393V36.9128H23.7132L19.2708 24.6677H16.5155L12.073 36.9128H12V12H48ZM40.9226 18.3458C40.9226 19.5468 41.7199 20.5176 42.8308 20.5176C43.9417 20.5176 44.7494 19.5341 44.7494 18.3342V18.3216C44.7494 17.1213 43.9522 16.1501 42.841 16.1501C41.73 16.1501 40.9226 17.1336 40.9226 18.3342V18.3458ZM34.653 18.3458C34.653 19.5583 35.44 20.5176 36.4992 20.5176C37.1936 20.5176 37.605 20.2283 37.9756 19.7639L37.4714 19.1666C37.1885 19.4682 36.9364 19.6611 36.525 19.6611C35.9077 19.6611 35.481 19.0582 35.481 18.3342V18.3216C35.481 17.5984 35.9182 17.0066 36.525 17.0066C36.885 17.0066 37.1679 17.188 37.4457 17.4833L37.9496 16.8014C37.6152 16.4156 37.2089 16.1501 36.53 16.1501C35.4241 16.1501 34.653 17.1336 34.653 18.3342V18.3458ZM28.1722 20.4454H28.9538V17.7611L30.6975 20.4454H31.371V16.2223H30.5893V18.8224L28.9024 16.2223H28.1722V20.4454ZM21.3005 20.4454H22.1079L22.4372 19.4984H23.9596L24.2885 20.4454H25.1165L23.5738 16.1922H22.8435L21.3005 20.4454ZM15.6014 20.4454H17.314C18.1268 20.4454 18.6618 20.0592 18.6618 19.2868V19.2753C18.6618 18.7081 18.4046 18.4244 17.988 18.2374C18.2449 18.0683 18.4611 17.8028 18.4611 17.3269V17.3142C18.4611 16.651 18.0083 16.2223 17.273 16.2223H15.6014V20.4454ZM17.8747 28.5333L20.7874 36.9131H14.962L17.8747 28.5333ZM48 47.8916H43.6385V40.2893H45.0644V46.371H48V47.8916ZM40.0733 47.8916H41.4992V40.2893H40.0733V47.8916ZM35.6978 48C34.7165 48 33.7255 47.5981 32.948 46.7837L33.7903 45.5998C34.3739 46.1651 34.9851 46.523 35.7255 46.523C36.309 46.523 36.6608 46.2515 36.6608 45.8061V45.7849C36.6608 45.3611 36.4386 45.144 35.3552 44.8181C34.0497 44.4275 33.2071 44.0033 33.2071 42.4944V42.4724C33.2071 41.093 34.1516 40.1806 35.4756 40.1806C36.4202 40.1806 37.2256 40.5281 37.8829 41.1474L37.1421 42.4068C36.5681 41.9398 36.0032 41.6579 35.4568 41.6579C34.9108 41.6579 34.6237 41.9514 34.6237 42.3201V42.3417C34.6237 42.8414 34.9016 43.0042 36.0217 43.3415C37.3367 43.743 38.0775 44.2968 38.0775 45.6221V45.6438C38.0775 47.1528 37.0961 48 35.6978 48ZM30.7179 47.8916L30.1251 46.1863H27.3844L26.7917 47.8916H25.3385L28.1156 40.2349H29.4304L32.2082 47.8916H30.7179ZM28.7548 42.2445L27.8937 44.7094H29.6158L28.7548 42.2445ZM23.0119 47.8916L21.6231 45.4591H20.503V47.8916H19.0767V40.2893H22.0396C23.5674 40.2893 24.4844 41.2341 24.4844 42.7982V42.8199C24.4844 44.0469 23.9192 44.8181 23.0956 45.1764L24.6787 47.8916H23.0119ZM23.0397 42.885C23.0397 42.1681 22.614 41.799 21.9196 41.799H20.503V43.9821H21.9472C22.6417 43.9821 23.0397 43.5475 23.0397 42.9069V42.885ZM15.0842 47.8916H12.001V40.2893H15.0099C16.3342 40.2893 17.1489 41.0606 17.1489 42.2552V42.2768C17.1489 43.1349 16.76 43.6127 16.297 43.9169C17.047 44.2533 17.5102 44.7638 17.5102 45.7845V45.8065C17.5102 47.1967 16.5469 47.8916 15.0842 47.8916ZM15.7322 42.5376C15.7322 42.0378 15.3988 41.7554 14.7972 41.7554H13.3897V43.3628H14.7045C15.3341 43.3628 15.7322 43.1241 15.7322 42.5591V42.5376ZM16.0932 45.5782C16.0932 45.068 15.7694 44.753 15.0378 44.753H13.3897V46.4255H15.0842C15.7138 46.4255 16.0932 46.1648 16.0932 45.6002V45.5782Z" fill="white"/>
</svg>
