<svg width="60" height="60" viewBox="0 0 60 60" fill="none" xmlns="http://www.w3.org/2000/svg">
<rect width="60" height="60" rx="30" fill="#278428"/>
<path d="M41.4692 33.1126C38.9064 32.8981 36.6208 32.0152 34.9091 31.1586C33.6141 30.5011 32.6483 29.8725 32.1567 29.5607L27.9121 36.017C28.066 36.1669 28.1449 36.2662 28.1449 36.2662C29.5731 37.1869 30.9222 37.8974 32.1999 38.4163C35.864 39.9214 38.9432 39.8956 41.4697 39.1031C47.7701 37.1213 50.6516 30.3323 50.6516 30.3323C47.5302 32.7481 44.3289 33.3464 41.4692 33.1126ZM9 35.9311C12.9655 32.5361 16.5825 31.6755 19.5857 31.9337L23.4077 26.1696C12.2406 24.4937 9 35.9311 9 35.9311Z" fill="#FFCC00"/>
<path d="M32.1998 38.4168L30.1619 43.8755H41.4696V39.1035C38.9426 39.8961 35.8639 39.9219 32.1998 38.4168ZM30.1619 16L23.4087 26.1696L19.5866 31.9337L11.5811 43.9862H22.6623L27.912 36.0174L32.1566 29.5611L39.901 17.7981L34.9095 31.159C36.6212 32.0156 38.9069 32.8985 41.4696 33.113V16L30.1619 16Z" fill="white"/>
</svg>
