<svg width="60" height="60" viewBox="0 0 60 60" fill="none" xmlns="http://www.w3.org/2000/svg">
<rect width="60" height="60" rx="30" fill="#A80A35"/>
<path d="M20.0005 16.5157V23.5703C28.1971 23.2124 30.7889 27.2658 30.7889 27.2658C29.9483 17.2101 20.0005 16.5157 20.0005 16.5157Z" fill="white"/>
<path d="M30.7891 27.2658C30.7891 27.2658 33.3808 23.2124 41.5774 23.5703V16.5157C41.5774 16.5157 31.6297 17.2101 30.7891 27.2658Z" fill="white"/>
<path d="M30.7966 27.258C30.7966 27.258 34.8586 29.8442 34.5 38.0235H41.5696C41.5696 38.0235 40.8737 28.0968 30.7966 27.258Z" fill="white"/>
<path d="M13.0259 48.1807H20.3593C18.8736 30.3692 30.7813 27.2581 30.7813 27.2581C11.5555 28.0689 13.0259 48.1807 13.0259 48.1807Z" fill="white"/>
<path d="M41.024 12H20.554C17.7577 12 15.4907 14.2621 15.4907 17.0525V31.7472C16.2603 30.7783 17.1267 29.8515 18.1034 28.9885V17.318C18.1034 15.8208 19.3198 14.6071 20.8202 14.6071H40.758C42.2584 14.6071 43.4748 15.8208 43.4748 17.318V37.2135C43.4748 38.7106 42.2584 39.9245 40.758 39.9245H22.9207V42.5315H41.0241C43.8204 42.5315 46.0874 40.2694 46.0874 37.479V17.0525C46.0874 14.2621 43.8204 12 41.024 12Z" fill="#F68C1F"/>
</svg>
