<svg width="60" height="60" viewBox="0 0 60 60" fill="none" xmlns="http://www.w3.org/2000/svg">
<rect width="60" height="60" rx="30" fill="#50C3C7"/>
<path d="M31.8562 22.4061L31.8582 24.6295C31.8551 24.7071 31.8718 24.7843 31.9067 24.8536C31.9416 24.9229 31.9936 24.9821 32.0576 25.0255C32.1216 25.0689 32.1957 25.095 32.2726 25.1015C32.3495 25.108 32.4268 25.0945 32.4971 25.0624C33.0433 24.9104 34.9937 24.026 35.1575 23.9455C35.4184 23.8107 35.5242 23.3589 35.0389 23.1418C34.0146 22.6675 32.4427 22.048 32.4427 22.048C32.4427 22.048 31.8889 21.8708 31.8562 22.4061Z" fill="white"/>
<path d="M35.7285 22.3925L35.7306 24.6158C35.7275 24.6935 35.7443 24.7706 35.7792 24.8399C35.8141 24.9091 35.866 24.9683 35.9301 25.0117C35.9941 25.055 36.0681 25.0812 36.145 25.0877C36.2219 25.0942 36.2991 25.0808 36.3695 25.0488C36.9156 24.8967 38.866 24.0123 39.0298 23.9318C39.2907 23.797 39.3968 23.3453 38.9112 23.1282C37.887 22.6536 36.315 22.0341 36.315 22.0341C36.315 22.0341 35.7612 21.8572 35.7285 22.3925Z" fill="white"/>
<path d="M7 26.269C7.01099 25.9722 7.16891 25.9861 7.36442 25.983C7.37413 25.983 7.76079 25.9879 7.80475 25.983C8.20112 25.9385 8.21517 25.5874 8.21696 25.2339C8.22079 24.6101 8.21697 23.9863 8.2185 23.3625C8.2185 22.9743 8.30641 22.886 8.68438 22.8853C8.80424 22.8853 8.92434 22.883 9.0442 22.8853C9.27266 22.8922 9.37642 23.0587 9.38077 23.291C9.39048 23.8811 9.39022 24.9486 9.39022 25.5387C9.39022 25.8356 9.60515 25.9871 9.92102 25.9799C10.3008 25.9714 10.8561 25.9799 11.2359 25.9833C11.5111 25.9856 11.6102 26.0846 11.6151 26.3568C11.6177 26.4975 11.6182 26.6397 11.6151 26.7794C11.6087 27.0351 11.497 27.1411 11.2448 27.1442H9.83567C9.62049 27.1442 9.41757 27.1833 9.39329 27.6286C9.37464 27.9692 9.39329 30.7579 9.39329 31.6158C9.39158 31.7543 9.41821 31.8916 9.47152 32.0192C9.52483 32.1468 9.60369 32.262 9.70316 32.3576C9.80264 32.4532 9.92061 32.5271 10.0497 32.5748C10.1788 32.6225 10.3163 32.6429 10.4536 32.6348C10.8456 32.616 11.1618 32.5707 11.3905 32.1054C11.4179 32.0403 11.4643 31.9851 11.5237 31.9473C11.5831 31.9095 11.6525 31.8909 11.7227 31.8939C11.876 31.8939 12.2701 31.9024 12.2701 31.8962C12.5354 31.9109 12.5906 32.1103 12.52 32.3675C12.4326 32.686 12.2593 32.974 12.0193 33.1995C11.7793 33.4249 11.4819 33.5791 11.1602 33.645C10.5162 33.8006 9.68795 33.725 9.30103 33.4649C8.67466 33.1168 8.23842 32.6186 8.22028 31.8489C8.22028 31.8489 8.23024 29.0429 8.22028 27.7626C8.2167 27.3122 8.138 27.1743 7.84437 27.1452C7.83568 27.1452 7.31025 27.1195 7.29798 27.1324C7.10913 27.1303 7.00281 27.0714 7.00025 26.8381L7 26.269Z" fill="#42464A"/>
<path d="M21.6494 32.587C21.6494 31.1721 21.6376 29.756 21.6532 28.3406C21.6454 27.8264 21.8051 27.3238 22.1081 26.9096C22.411 26.4954 22.8403 26.1926 23.3305 26.0473C24.3908 25.7062 25.4071 25.797 26.3138 26.5003C26.572 26.6935 26.7827 26.9436 26.9299 27.2315C27.077 27.5194 27.1567 27.8374 27.1628 28.1611C27.1947 29.2804 27.1912 30.4014 27.1651 31.5209C27.1574 32.033 26.9689 32.5256 26.6333 32.9106C26.2977 33.2955 25.8369 33.5476 25.3335 33.6218C24.7747 33.6913 24.2126 33.7307 23.6496 33.7399C23.0841 33.786 22.8188 34.0519 22.8132 34.6243C22.8063 35.3554 22.8117 36.1361 22.8106 36.8675C22.8106 37.2533 22.725 37.3359 22.3384 37.3367C22.2318 37.3367 22.125 37.3382 22.0184 37.3367C21.7526 37.3308 21.653 37.2381 21.6486 36.9747C21.6428 36.6125 21.6458 36.2503 21.6458 35.8881C21.6458 34.788 21.6458 33.6879 21.6458 32.5877L21.6494 32.587ZM26.0143 29.8368H26.0118C26.0118 29.3542 26.0212 28.8713 26.0092 28.3888C26.0131 28.1628 25.9546 27.9403 25.8402 27.7459C25.7257 27.5515 25.5599 27.393 25.3611 27.288C25.106 27.142 24.8209 27.0572 24.528 27.0402C24.2351 27.0232 23.9422 27.0745 23.6721 27.19C23.414 27.2769 23.1908 27.4456 23.036 27.671C22.8813 27.8964 22.8033 28.1662 22.8137 28.4399C22.8035 29.3717 22.8035 30.3034 22.8137 31.2351C22.8152 31.4972 22.894 31.7529 23.0402 31.9698C23.1864 32.1866 23.3934 32.3548 23.6348 32.4529C23.9788 32.6261 24.9865 32.6014 25.3304 32.3539C25.4288 32.3282 26.0481 31.9762 26.0169 31.0628C26.0026 30.655 26.0143 30.246 26.0143 29.837V29.8368Z" fill="#42464A"/>
<path d="M34.608 29.8839C34.608 30.347 34.608 30.81 34.608 31.273C34.6376 31.8314 34.4632 32.3814 34.1176 32.8193C33.772 33.2571 33.2792 33.5525 32.7322 33.6497C31.8479 33.8847 30.9082 33.776 30.0999 33.3454C29.2913 32.9081 28.9977 32.1081 29.0695 31.2676C29.0845 30.7603 29.2891 30.2772 29.6425 29.9151C29.9792 29.585 30.4251 29.3916 30.8947 29.372C31.5196 29.3417 32.147 29.3463 32.7723 29.3383C32.8848 29.3548 32.9996 29.3378 33.1026 29.2894C33.2056 29.2411 33.2924 29.1635 33.3522 29.0662C33.3895 28.9887 33.4129 28.9052 33.4212 28.8195C33.5395 27.8811 33.1107 27.2246 32.1556 27.0733C31.9107 27.02 31.6571 27.0214 31.4128 27.0775C31.1684 27.1335 30.9392 27.2428 30.7414 27.3977C30.5084 27.6304 30.3282 27.9113 30.2134 28.2209C30.1932 28.2931 30.1467 28.3551 30.0833 28.3946C30.0198 28.4341 29.944 28.4482 29.8707 28.4341C29.8674 28.4341 29.5359 28.4372 29.4294 28.4341C29.1301 28.4254 29.066 28.2131 29.1183 27.9176C29.3338 26.7034 30.3373 26.0163 31.4388 25.8951C32.0753 25.8076 32.7232 25.9176 33.2959 26.2105C33.687 26.4035 34.0165 26.7028 34.2472 27.0747C34.4778 27.4465 34.6004 27.8759 34.6011 28.3142C34.6243 28.8364 34.6052 29.3605 34.6052 29.8834L34.608 29.8839ZM31.9954 30.5348V30.536C31.7089 30.536 31.4222 30.5286 31.136 30.5381C31.0062 30.5292 30.876 30.5491 30.7547 30.5963C30.6333 30.6436 30.5238 30.717 30.4337 30.8115C30.2712 31.0408 30.2029 31.3244 30.2432 31.6031C30.2835 31.8818 30.4292 32.134 30.6499 32.3072C31.0984 32.5662 31.6226 32.6594 32.1321 32.5708C32.8937 32.4836 33.3716 32.115 33.438 31.3656C33.4835 30.8532 33.2395 30.5345 32.7342 30.5345L31.9954 30.5348Z" fill="#42464A"/>
<path d="M19.3372 31.4275C19.3156 31.951 19.1217 32.4524 18.7861 32.8529C18.4505 33.2534 17.9921 33.5302 17.4831 33.6398C17.0613 33.7672 16.6176 33.8043 16.1806 33.7488C15.7437 33.6932 15.3231 33.5462 14.946 33.3173C14.6042 33.117 14.3207 32.8299 14.1237 32.4847C13.9268 32.1396 13.8233 31.7484 13.8236 31.3504C13.7916 30.3317 13.8023 29.3109 13.819 28.2915C13.8296 27.7471 14.0232 27.2223 14.3681 26.8028C14.713 26.3833 15.1889 26.0938 15.7183 25.9815C16.1723 25.8442 16.6516 25.8144 17.119 25.8941C17.5864 25.9739 18.0291 26.1612 18.4128 26.4414C19.0896 26.9394 19.3502 27.6505 19.3645 28.4693C19.3735 28.9133 19.3602 31.0311 19.3372 31.4275ZM18.1903 28.5433C18.2071 28.3357 18.1752 28.127 18.0972 27.934C18.0191 27.7411 17.8971 27.5693 17.741 27.4326C17.5417 27.2763 17.3125 27.1629 17.0678 27.0995C16.8231 27.036 16.5681 27.024 16.3186 27.0639C15.9517 27.0774 15.6051 27.2365 15.3543 27.5064C15.1036 27.7763 14.9692 28.1351 14.9805 28.5045C14.9692 29.3825 14.9718 30.2604 14.9805 31.1384C14.9702 31.3262 15.0009 31.5139 15.0703 31.6885C15.1397 31.8631 15.2461 32.0203 15.3822 32.1491C15.6143 32.3515 15.8932 32.4918 16.1934 32.5571C16.4935 32.6223 16.8052 32.6104 17.0995 32.5224C17.403 32.4663 17.6775 32.3052 17.8755 32.0669C18.0734 31.8286 18.1824 31.5282 18.1836 31.2176C18.1836 30.7615 18.1905 28.9791 18.1915 28.5433H18.1903Z" fill="#42464A"/>
<path d="M47.4463 29.8179C47.4463 29.3485 47.4427 28.8787 47.4463 28.4093C47.4593 26.9736 48.4583 26.0784 49.7238 25.9035C50.4316 25.7851 51.1584 25.9133 51.7841 26.2667C52.1448 26.4614 52.4465 26.7507 52.6572 27.1039C52.8679 27.4572 52.9797 27.8612 52.9809 28.2732C53.0121 29.3184 53.0024 30.3659 52.9709 31.4116C52.9513 31.9422 52.7557 32.4509 52.4153 32.8566C52.0749 33.2622 51.6093 33.5414 51.0928 33.6496C50.676 33.7704 50.239 33.8041 49.8087 33.7485C49.3785 33.693 48.964 33.5495 48.5909 33.3267C48.2449 33.1216 47.9579 32.8293 47.7581 32.4786C47.5584 32.1279 47.4527 31.7309 47.4516 31.3267C47.4281 30.8245 47.4473 30.3206 47.4473 29.8174L47.4463 29.8179ZM51.8163 29.8503H51.8237C51.8237 29.4146 51.8237 28.9791 51.8237 28.5436C51.8406 28.3359 51.8087 28.1272 51.7307 27.9343C51.6527 27.7413 51.5308 27.5696 51.3747 27.4328C51.1753 27.2762 50.9459 27.1627 50.701 27.0993C50.4561 27.0358 50.2008 27.0238 49.951 27.0639C49.5841 27.0774 49.2375 27.2364 48.9867 27.5063C48.7359 27.7763 48.6015 28.1351 48.6127 28.5044C48.6014 29.3822 48.604 30.2604 48.6127 31.1384C48.6024 31.3261 48.633 31.5138 48.7023 31.6884C48.7717 31.863 48.8781 32.0202 49.0141 32.1491C49.2462 32.3515 49.5252 32.4918 49.8253 32.5571C50.1255 32.6223 50.4371 32.6104 50.7315 32.5223C51.035 32.4662 51.3095 32.3051 51.5075 32.0669C51.7056 31.8286 51.8147 31.5282 51.8161 31.2176C51.8145 30.7618 51.8153 30.3062 51.8153 29.8503H51.8163Z" fill="#42464A"/>
<path d="M38.987 25.9835C39.6666 25.9835 40.3461 25.9817 41.0256 25.9835C41.4841 25.9848 41.6476 26.1893 41.6949 26.6425C41.7637 27.3006 41.4838 27.6028 41.1907 27.9781C40.6711 28.6081 38.3144 31.4213 38.1912 31.6415C37.9336 32.1018 38.0872 32.5234 38.6998 32.4964C39.5191 32.5061 41.298 32.4886 41.3637 32.4964C41.5937 32.5236 41.6783 32.6507 41.685 32.8807C41.6896 33.035 41.6911 33.1894 41.6837 33.3437C41.6872 33.3877 41.6811 33.432 41.6658 33.4733C41.6505 33.5147 41.6265 33.5523 41.5953 33.5833C41.5641 33.6143 41.5265 33.6382 41.4853 33.6531C41.444 33.668 41.4 33.6736 41.3563 33.6696C41.1434 33.6776 40.93 33.6727 40.7174 33.6727C39.5715 33.6727 38.4257 33.6727 37.2799 33.6727C36.7432 33.6727 36.5899 33.488 36.5541 32.9496C36.5198 32.294 36.7329 31.6495 37.1506 31.1453C37.7016 30.4456 39.4882 28.2966 39.6369 28.1075C39.7856 27.9185 39.988 27.6648 39.8797 27.4235C39.7713 27.1822 39.6011 27.147 39.3555 27.1457C38.6561 27.1424 36.9909 27.1473 36.9909 27.1473C36.7435 27.1413 36.5725 27.0819 36.5549 26.8386C36.5495 26.6778 36.5505 26.4831 36.5549 26.3225C36.5608 26.0854 36.6663 25.9858 36.929 25.9845C37.6152 25.9819 38.3009 25.9838 38.987 25.9835Z" fill="#42464A"/>
<path d="M45.0924 29.8312C45.0924 30.9507 45.0924 32.1443 45.0924 33.2641C45.0812 33.5561 44.9948 33.668 44.7047 33.6734C44.6115 33.6734 44.4321 33.6734 44.3388 33.6734C44.0354 33.6688 43.9299 33.5674 43.9286 33.2618C43.9255 32.6315 43.9286 32.0013 43.9286 31.3711C43.9286 29.7353 43.9286 27.9472 43.9286 26.3111C43.9286 26.05 44.0564 25.9852 44.3352 25.9852C44.4551 25.9852 44.6495 25.9826 44.7697 25.9875C44.8131 25.9824 44.8572 25.9873 44.8985 26.0019C44.9399 26.0164 44.9774 26.0403 45.0081 26.0716C45.0389 26.103 45.0622 26.141 45.0762 26.1827C45.0903 26.2245 45.0947 26.2689 45.0891 26.3126C45.0957 26.7819 45.0934 27.2511 45.0937 27.7203C45.0934 28.4234 45.0929 29.127 45.0924 29.8312Z" fill="#42464A"/>
<path d="M11.126 22.0465H12.1421C12.3754 22.0327 12.6047 22.1114 12.781 22.2656C12.8322 22.3163 12.8726 22.377 12.8998 22.4439C12.927 22.5108 12.9404 22.5826 12.9392 22.6548V22.6618C12.9405 22.7918 12.9006 22.9187 12.8254 23.0244C12.7502 23.13 12.6435 23.2088 12.5209 23.2493C12.8163 23.3265 13.0762 23.4971 13.0762 23.841V23.8482C13.0762 24.2621 12.7245 24.5242 12.1937 24.5242H11.125L11.126 22.0465ZM12.1209 23.1894C12.4899 23.1894 12.7537 23.0093 12.7537 22.6798V22.6726C12.7537 22.4002 12.5324 22.216 12.1385 22.216H11.3087V23.1891L12.1209 23.1894ZM12.2017 24.3537C12.6236 24.3537 12.8917 24.1589 12.8917 23.8477V23.8405C12.8917 23.5362 12.6279 23.3592 12.1429 23.3592H11.3098V24.3537H12.2017Z" fill="#42464A"/>
<path d="M15.092 22.0288H15.2678L16.4137 24.524H16.2134L15.9006 23.8295H14.4487L14.1357 24.524H13.9458L15.092 22.0288ZM15.8231 23.6636L15.1763 22.2305L14.5259 23.6636H15.8231Z" fill="#42464A"/>
<path d="M17.4265 22.0465H17.5987L19.2967 24.2014V22.0465H19.4725V24.5235H19.3358L17.6026 22.3225V24.5235H17.4268L17.4265 22.0465Z" fill="#42464A"/>
<path d="M20.5872 23.2922V23.2852C20.5824 23.1193 20.6106 22.954 20.6703 22.7992C20.7299 22.6444 20.8197 22.5032 20.9343 22.3838C21.049 22.2644 21.1862 22.1693 21.3379 22.1041C21.4896 22.039 21.6527 22.005 21.8177 22.0042C21.9956 22.0007 22.1722 22.0342 22.3368 22.1023C22.5013 22.1705 22.6501 22.2721 22.774 22.4006L22.6439 22.5351C22.5381 22.42 22.4098 22.3282 22.267 22.2655C22.1243 22.2028 21.9701 22.1705 21.8143 22.1706C21.6733 22.1725 21.5341 22.2029 21.405 22.26C21.2759 22.3172 21.1595 22.3998 21.0627 22.5032C20.966 22.6065 20.8909 22.7283 20.8418 22.8614C20.7928 22.9945 20.7708 23.1362 20.7773 23.278V23.2852C20.7711 23.4277 20.7933 23.5699 20.8425 23.7035C20.8918 23.8372 20.9672 23.9595 21.0641 24.0634C21.1611 24.1673 21.2778 24.2506 21.4072 24.3084C21.5367 24.3662 21.6763 24.3973 21.8179 24.3999C21.9783 24.3999 22.1368 24.3655 22.2829 24.299C22.429 24.2325 22.5593 24.1353 22.6651 24.014L22.788 24.1344C22.6648 24.272 22.514 24.3816 22.3455 24.456C22.177 24.5304 21.9948 24.5679 21.8108 24.5661C21.6465 24.5662 21.4838 24.5331 21.3325 24.4686C21.1813 24.4041 21.0444 24.3096 20.9302 24.1907C20.816 24.0718 20.7268 23.931 20.6679 23.7766C20.6089 23.6222 20.5815 23.4575 20.5872 23.2922Z" fill="#42464A"/>
<path d="M23.6039 23.2923V23.2853C23.5987 23.1187 23.6267 22.9528 23.6863 22.7974C23.7459 22.6419 23.8359 22.5001 23.9509 22.3802C24.066 22.2604 24.2037 22.165 24.356 22.0997C24.5083 22.0344 24.6721 22.0005 24.8376 22C25.0032 21.9995 25.1671 22.0325 25.3198 22.0969C25.4725 22.1613 25.6107 22.2559 25.7265 22.3751C25.8422 22.4942 25.933 22.6356 25.9935 22.7907C26.054 22.9458 26.083 23.1115 26.0787 23.2781C26.0823 23.2817 26.0823 23.2817 26.0787 23.2853C26.0839 23.4519 26.0559 23.6178 25.9962 23.7732C25.9366 23.9287 25.8466 24.0705 25.7316 24.1903C25.6165 24.3102 25.4788 24.4055 25.3265 24.4708C25.1742 24.5361 25.0104 24.57 24.8448 24.5705C24.6793 24.571 24.5153 24.538 24.3627 24.4736C24.21 24.4091 24.0717 24.3145 23.956 24.1953C23.8403 24.0761 23.7496 23.9348 23.6891 23.7797C23.6286 23.6246 23.5996 23.4588 23.6039 23.2923ZM25.8888 23.2923V23.2853C25.8945 23.1421 25.8716 22.9993 25.8215 22.8652C25.7714 22.7311 25.6951 22.6085 25.5971 22.5045C25.4991 22.4006 25.3814 22.3176 25.251 22.2602C25.1206 22.2029 24.98 22.1724 24.8377 22.1707C24.6961 22.1717 24.5562 22.2015 24.4263 22.2583C24.2964 22.315 24.1792 22.3976 24.0817 22.5009C23.9843 22.6043 23.9085 22.7264 23.859 22.86C23.8094 22.9935 23.7872 23.1357 23.7935 23.2781V23.2853C23.7878 23.4285 23.8107 23.5713 23.8608 23.7054C23.9109 23.8395 23.9872 23.9621 24.0852 24.0661C24.1832 24.17 24.3009 24.2531 24.4313 24.3104C24.5618 24.3678 24.7023 24.3982 24.8446 24.3999C24.9862 24.3989 25.1262 24.3691 25.2561 24.3123C25.386 24.2555 25.5032 24.173 25.6007 24.0696C25.6982 23.9662 25.7739 23.844 25.8234 23.7105C25.8729 23.5769 25.8952 23.4347 25.8888 23.2923Z" fill="#42464A"/>
<path d="M45.0661 24.4637C45.0661 24.1404 44.8057 23.8783 44.4845 23.8783C44.1632 23.8783 43.9028 24.1404 43.9028 24.4637V24.5538C43.9028 24.8771 44.1632 25.1393 44.4845 25.1393C44.8057 25.1393 45.0661 24.8771 45.0661 24.5538V24.4637Z" fill="#42464A"/>
</svg>
