<svg width="60" height="60" viewBox="0 0 60 60" fill="none" xmlns="http://www.w3.org/2000/svg">
<rect width="60" height="60" rx="30" fill="#223AD2"/>
<path fill-rule="evenodd" clip-rule="evenodd" d="M47.774 23.6902C47.774 23.6902 45.909 23.6837 43.938 23.6902C41.967 23.6967 41.4678 25.2105 41.4678 25.2105L36.5388 38.001L38.4577 42.9781C40.4265 42.9704 40.9256 41.4579 40.9256 41.4579L47.774 23.6902Z" fill="#31C7ED"/>
<path fill-rule="evenodd" clip-rule="evenodd" d="M33.2419 29.4482L33.2372 29.436C33.237 29.4346 33.237 29.4332 33.2372 29.4317L33.2337 29.4235C32.8027 28.3354 31.9075 27.4384 30.8761 26.7428C31.9105 25.8332 32.5536 24.4775 32.5536 22.9642C32.5536 20.7803 30.6834 18 25.3126 18H15.8899V25.2931H12V29.4872H15.889V37.0237H25.7923C26.6458 37.0293 27.4969 36.9318 28.3271 36.733L28.3379 36.7305C28.9416 36.5843 29.5252 36.3643 30.0757 36.0755L32.151 41.4594C32.151 41.4594 32.6506 42.9728 34.6207 42.9797C36.5909 42.9866 38.4567 42.9797 38.4567 42.9797L33.2419 29.4482ZM21.4796 22.1945H24.9614C26.4949 22.1945 26.9742 22.9962 26.9742 23.7442C26.9742 24.4922 26.497 25.2888 24.9734 25.2931H21.4796V22.1945ZM21.4796 29.4867H25.1712C26.7966 29.4867 27.3048 30.3365 27.3048 31.1296C27.3048 31.9227 26.7992 32.7673 25.1842 32.772H21.4796V29.4867Z" fill="white"/>
<path opacity="0.8" d="M28.0642 30.8532C28.0642 30.8532 27.6487 29.4806 25.392 29.4806H25.2321V29.4871C26.8091 29.5084 27.3044 30.3469 27.3044 31.1296C27.3044 31.9209 26.7988 32.7672 25.1838 32.772H21.4797V29.4828L15.8899 29.4871V37.0237H25.7924C26.6459 37.0293 27.4969 36.9317 28.3272 36.733L28.3379 36.7304C28.9416 36.5842 29.5253 36.3643 30.0757 36.0755L28.0642 30.8532Z" fill="url(#paint0_linear_509_2238)"/>
<path d="M15.889 29.4874H12L15.889 31.2866V29.4874Z" fill="#31C7ED"/>
<defs>
<linearGradient id="paint0_linear_509_2238" x1="20.2806" y1="34.4372" x2="22.7248" y2="30.2244" gradientUnits="userSpaceOnUse">
<stop stop-color="white"/>
<stop offset="1" stop-color="#D7D7D7"/>
</linearGradient>
</defs>
</svg>
