<svg width="60" height="60" viewBox="0 0 60 60" fill="none" xmlns="http://www.w3.org/2000/svg">
<rect width="60" height="60" rx="30" fill="#04133E"/>
<path fill-rule="evenodd" clip-rule="evenodd" d="M16.1774 18.8958C17.2519 18.8958 17.4979 19.6079 18.1064 23.5952C18.43 25.7054 18.5983 28.3982 18.5983 31.557C18.5983 33.6931 18.43 35.0783 18.1064 35.7385C17.951 36.0751 17.5497 36.2046 17.2261 36.0233C16.7988 35.8032 16.527 35.4666 16.4234 35.0135C16.3846 34.8064 16.3846 34.5863 16.4105 34.3662C16.4881 33.8225 16.7859 32.5797 16.7859 31.3498C16.7859 30.6378 16.7859 29.4079 16.6823 27.5437H16.3846H16.4881C15.4913 27.5437 14.3132 27.6732 13.5882 27.958C11.9829 28.5665 10.9602 30.1329 10.9602 31.8418V32.3596C10.9602 33.3953 11.4263 33.9649 12.3584 33.9649C13.2387 33.9649 14.3132 33.1623 15.5819 31.557L15.7761 31.3498C15.8667 31.2463 16.035 31.2722 16.0868 31.3887C16.1515 31.4922 16.1645 31.6217 16.1257 31.7382C15.2324 34.3015 13.9119 35.5832 12.1642 35.5832C10.9602 35.5832 10.067 34.9618 9.48438 33.706C8.97949 32.6444 8.88887 31.4275 9.1219 30.2753C9.67857 27.6732 11.9829 25.8996 14.132 25.7313C15.4525 25.6277 16.4752 25.9384 16.4752 25.9384C16.3716 22.8832 15.5819 20.0998 15.5819 20.0998L15.5301 19.7244C15.4913 19.3231 15.7761 18.9476 16.1774 18.8958Z" fill="white"/>
<path fill-rule="evenodd" clip-rule="evenodd" d="M21.5629 26.8059C21.7701 26.8188 21.9642 26.8965 22.1066 27.0389C22.3915 27.3496 22.508 27.8933 22.4562 28.6701L22.3138 30.9356C22.2749 31.5052 22.2879 32.0878 22.3526 32.6574C22.4432 33.4989 22.6115 33.9261 23.1294 33.952L24.0097 34.0038L24.1909 34.0167C24.3851 34.0297 24.5275 34.198 24.5146 34.3792C24.5016 34.5734 24.424 34.7417 24.3075 34.8841C24.0356 35.1819 23.6731 35.4667 23.2071 35.7256C22.9611 35.868 22.6763 35.9327 22.4044 35.9198C21.2522 35.8421 20.8768 34.7676 20.4755 32.6963C20.346 31.9972 20.2813 31.2981 20.2683 30.599L20.2424 28.7089C20.3331 27.3625 20.5014 26.7282 21.5629 26.8059Z" fill="white"/>
<path fill-rule="evenodd" clip-rule="evenodd" d="M36.8649 26.8059C37.0591 26.8188 37.2533 26.8965 37.3957 27.0389C37.6805 27.3496 37.797 27.8933 37.7452 28.6701L37.6028 30.9356C37.564 31.5052 37.577 32.0878 37.6417 32.6574C37.7452 33.4989 37.9006 33.9261 38.4184 33.952L39.2988 34.0038L39.48 34.0167C39.6742 34.0297 39.8166 34.198 39.8037 34.3792C39.7907 34.5734 39.726 34.7417 39.5965 34.8841C39.3247 35.1819 38.9622 35.4667 38.4961 35.7256C38.2501 35.868 37.9783 35.9327 37.6935 35.9198C36.5413 35.8421 36.1788 34.7676 35.7645 32.6963C35.6351 31.9972 35.5703 31.2981 35.5574 30.599L35.5315 28.7089C35.6221 27.3625 35.7904 26.7282 36.8649 26.8059Z" fill="white"/>
<path fill-rule="evenodd" clip-rule="evenodd" d="M31.7643 25.1876C32.3857 24.9804 33.0719 25.2652 33.3308 25.8608C33.9004 27.1554 34.1852 29.874 34.1852 34.0296V34.6252C34.1852 38.4831 33.0201 41.0593 30.6769 42.328C30.2756 42.5481 29.8225 42.6646 29.3693 42.6646C28.1783 42.6646 27.3109 41.8878 26.7672 40.3473C26.6248 39.9459 26.5471 39.5317 26.5212 39.1174C26.4953 38.7938 26.7802 38.5478 27.0909 38.5996C27.2592 38.6255 27.3757 38.742 27.4663 38.8714C27.9065 39.4152 28.2042 39.8812 28.8256 40.3861C29.0327 40.5544 29.2917 40.658 29.5635 40.658C30.3532 40.658 31.0264 39.9848 31.5572 38.6255C31.9844 37.5251 32.1786 36.347 32.1527 35.1559L32.088 32.3726C32.088 32.3726 30.0555 35.1301 27.5569 35.0265C26.0811 34.9747 25.0195 33.6413 25.5632 31.2463C26.0034 29.2396 26.9355 27.8415 28.7868 26.5987C29.6542 26.0291 30.5863 25.5759 31.5702 25.2523L31.7643 25.1876ZM27.4016 32.0619V32.1266C27.4533 32.6185 27.8676 32.994 28.3596 33.0199C29.5247 33.0199 31.376 31.3498 31.7902 29.4079C31.9197 28.7995 31.842 28.2687 31.6608 27.8415C31.6608 27.8415 31.6478 27.8415 31.6478 27.8285C31.5443 27.5826 31.2465 27.4919 31.0135 27.6214C28.8774 28.6959 27.4016 30.3918 27.4016 32.0619Z" fill="white"/>
<path fill-rule="evenodd" clip-rule="evenodd" d="M46.6911 22.676H46.7947C47.0924 22.676 47.3902 22.8184 47.5585 23.0773C47.5714 23.0903 47.5714 23.1162 47.5844 23.1291C47.8045 23.5304 47.8951 23.9835 47.8562 24.4366L47.7138 26.2491L47.6232 27.4013C47.6103 27.5437 47.7397 27.6602 47.8821 27.6472C48.3611 27.6084 49.4486 27.5307 51.0668 27.453C51.5847 27.4272 52.0248 27.8544 51.9989 28.3722C51.986 28.8253 51.6882 29.2266 51.261 29.3561C50.6655 29.5373 49.6946 29.6668 48.2317 29.8739C48.0504 29.8998 47.8951 30.0552 47.8951 30.2494V30.3141V30.5212V30.9226C47.8951 33.46 47.6362 34.7416 47.0924 34.7416H47.0148C46.7558 34.7416 46.5099 34.651 46.3286 34.4827C45.7719 33.9649 45.4871 32.968 45.4871 31.5181L45.4742 30.5342C45.4612 30.3659 45.3188 30.2364 45.1505 30.2494C44.9822 30.2623 44.7492 30.2882 44.4385 30.327C43.3252 30.4824 42.1859 30.7025 41.215 30.7154C41.1114 30.7154 41.0078 30.7025 40.9172 30.6895L40.8654 30.6766C40.4641 30.5989 40.1793 30.2235 40.2181 29.8222L40.244 29.4338C40.257 29.3173 40.2829 29.2137 40.3347 29.1101C40.4382 28.9159 40.5936 28.7088 40.982 28.6311C41.681 28.4887 41.8882 28.4887 42.7555 28.3722L44.4385 28.191C45.2541 28.0874 45.4871 28.1003 45.4871 27.2977V23.88C45.4871 23.2197 46.0309 22.676 46.6911 22.676Z" fill="#E24747"/>
<path fill-rule="evenodd" clip-rule="evenodd" d="M22.1162 21.8633H20.6458V18H22.064C22.734 18 23.1604 18.4067 23.1604 19.0629C23.1604 19.4788 22.9167 19.7745 22.6731 19.8762C22.9515 19.9963 23.2213 20.2921 23.2213 20.7727C23.2213 21.4844 22.7601 21.8633 22.1162 21.8633ZM22.0118 18.5268H21.1939V19.6359H22.0118C22.3686 19.6359 22.6122 19.4418 22.6122 19.0814C22.6122 18.7209 22.3686 18.5268 22.0118 18.5268ZM22.064 20.1627H21.1939V21.3365H22.064C22.4469 21.3365 22.6644 21.0869 22.6644 20.745C22.6644 20.403 22.4469 20.1627 22.064 20.1627Z" fill="white"/>
<path fill-rule="evenodd" clip-rule="evenodd" d="M27.4177 21.8633L27.1636 21.0869H25.7182L25.4641 21.8633H24.8772L26.2175 18H26.6643L28.0046 21.8633H27.4177ZM26.454 18.878L25.8846 20.5878H27.0059L26.454 18.878Z" fill="white"/>
<path fill-rule="evenodd" clip-rule="evenodd" d="M35.4598 21.8633C35.063 21.8633 34.7123 21.7178 34.4446 21.4542C34.0662 21.0815 34.0755 20.6634 34.0755 19.9271C34.0755 19.1999 34.0662 18.7727 34.4446 18.4C34.7123 18.1454 35.063 18 35.4598 18C36.1704 18 36.7057 18.4091 36.8349 19.1635H36.2443C36.152 18.7817 35.8843 18.5181 35.4598 18.5181C35.2291 18.5181 35.026 18.5999 34.8876 18.7454C34.703 18.9454 34.6569 19.1635 34.6569 19.9271C34.6569 20.6907 34.703 20.9088 34.8876 21.1179C35.026 21.2633 35.2291 21.3451 35.4598 21.3451C35.8843 21.3451 36.152 21.0815 36.2443 20.6907H36.8349C36.7057 21.4542 36.1612 21.8633 35.4598 21.8633Z" fill="white"/>
<path fill-rule="evenodd" clip-rule="evenodd" d="M40.8819 21.4542C40.6244 21.7178 40.2841 21.8633 39.8702 21.8633C39.4563 21.8633 39.1251 21.7178 38.8584 21.4542C38.4813 21.0815 38.4905 20.6634 38.4905 19.9271C38.4905 19.1999 38.4813 18.7727 38.8584 18.4C39.1251 18.1454 39.4563 18 39.8702 18C40.2841 18 40.6244 18.1454 40.8819 18.4C41.2682 18.7727 41.2498 19.1999 41.2498 19.9271C41.2498 20.6634 41.2682 21.0815 40.8819 21.4542ZM40.4404 18.7454C40.3117 18.609 40.1001 18.5181 39.8702 18.5181C39.6402 18.5181 39.4287 18.609 39.2999 18.7454C39.1067 18.9545 39.07 19.1635 39.07 19.9271C39.07 20.6907 39.1067 20.9088 39.2999 21.1088C39.4287 21.2542 39.6402 21.3451 39.8702 21.3451C40.1001 21.3451 40.3117 21.2542 40.4404 21.1088C40.6336 20.9088 40.6704 20.6907 40.6704 19.9271C40.6704 19.1635 40.6336 18.9545 40.4404 18.7454Z" fill="white"/>
<path fill-rule="evenodd" clip-rule="evenodd" d="M31.8682 21.8633L30.0648 19.146V21.8633H29.4761V18H30.018L31.8215 20.7172V18H32.4195V21.8633H31.8682Z" fill="white"/>
</svg>
