<svg width="60" height="60" viewBox="0 0 60 60" fill="none" xmlns="http://www.w3.org/2000/svg">
<g clip-path="url(#clip0_506_1421)">
<path d="M0 30C0 46.5685 13.4315 60 30 60C46.5685 60 60 46.5685 60 30C60 13.4315 46.5685 0 30 0C13.4315 0 0 13.4315 0 30Z" fill="#FDE100"/>
<path fill-rule="evenodd" clip-rule="evenodd" d="M12 24.0001L19.493 29L28.493 23.0001L24.7465 20.493L29.6197 17.2536L40.1127 24.2536L22.8732 35.7465L26.6197 38.2535L48 24.0001L30 12L12 24.0001ZM48 36L40.493 31L31.493 37L35.2394 39.4929L30.3662 42.7465L19.8732 35.7465L37.1127 24.2536L33.3662 21.7465L12 36L30 48L48 36ZM48 17L44.2394 19.5071L40.493 17L48 12V17ZM12 43L15.7465 40.493L19.493 43L12 48V43Z" fill="#003882"/>
</g>
<defs>
<clipPath id="clip0_506_1421">
<rect width="60" height="60" fill="white"/>
</clipPath>
</defs>
</svg>
