<svg width="60" height="60" viewBox="0 0 60 60" fill="none" xmlns="http://www.w3.org/2000/svg">
<rect width="60" height="60" rx="30" fill="#004B8D"/>
<path d="M41.4211 40.5395C40.6772 41.224 39.7811 41.7298 38.5199 42.1794L23.4345 47.3952V34.4836L34.5454 28.12L34.5543 28.1149C34.784 27.9775 34.9789 27.8434 35.1676 27.7132C35.2033 27.6894 35.2393 27.6641 35.2749 27.6401C37.9097 27.757 39.9217 28.4672 41.4219 29.8088C43.0011 31.2906 43.7685 33.0458 43.7685 35.1731C43.7685 37.3032 42.9988 39.0588 41.4211 40.5395ZM32.9293 27.6327L23.4345 33.0719V27.6327H32.9293ZM22.2031 45.9949L17.4597 37.9232L22.2031 35.1927V45.9949ZM28.2901 13.2233C31.3605 13.2233 33.6277 13.9352 35.2193 15.3991C36.7762 16.83 37.5662 18.6353 37.5662 20.7653C37.5662 23.0498 36.6163 25.0468 34.8872 26.4095H22.2032V33.7788L17.232 36.6392V13.2236L28.2901 13.2233ZM42.2623 28.9137L42.2519 28.905C40.8041 27.6089 38.8982 26.8096 36.5719 26.5219C38.0009 24.9905 38.7979 22.9595 38.7979 20.7654C38.7979 18.28 37.8749 16.1727 36.0554 14.5009C34.2262 12.8183 31.6855 12 28.2902 12H16V37.8673L22.5424 49L38.9308 43.3342C40.3412 42.8309 41.3985 42.2292 42.2624 41.4333C44.0792 39.7309 45 37.6252 45 35.174C45 32.7238 44.0791 30.6172 42.2623 28.9137Z" fill="white"/>
</svg>
