<svg width="60" height="60" viewBox="0 0 60 60" fill="none" xmlns="http://www.w3.org/2000/svg">
<rect width="60" height="60" rx="30" fill="#006738"/>
<path fill-rule="evenodd" clip-rule="evenodd" d="M20.502 24.9558C20.502 24.9558 21.7738 18.4941 28.5079 19.7347C29.6679 19.9484 30.7851 20.2079 31.8749 20.461C37.1121 21.6775 41.7144 22.7464 47.3624 17.8737C47.3624 17.8737 45.9189 23.6053 38.5107 24.7103C35.353 25.1813 32.9232 24.7143 30.6169 24.2709C27.5125 23.6743 24.6321 23.1206 20.502 24.9558ZM12.0127 12H48.4243V49H12.0127V41.0909C12.5758 41.1941 13.1402 41.3027 13.7086 41.4121C17.8008 42.1999 22.1081 43.029 27.7195 42.1893C40.8763 40.2507 43.4389 30.0413 43.4389 30.0413C33.4424 38.6713 25.2992 36.7895 16.0323 34.6479C14.7179 34.3442 13.3808 34.0352 12.0127 33.7503V31.3918C15.7386 30.6607 18.8126 31.2528 22.0536 31.8771C25.373 32.5166 28.8676 33.1897 33.4171 32.5096C44.0939 30.9136 46.1733 22.649 46.1733 22.649C38.0665 29.6505 31.4558 28.1235 23.9381 26.387C22.339 26.0177 20.6991 25.6389 18.9949 25.3306C15.9617 24.7814 13.6915 25.3306 12 26.2999L12.0127 12Z" fill="white"/>
</svg>
