<svg width="60" height="60" viewBox="0 0 60 60" fill="none" xmlns="http://www.w3.org/2000/svg">
<rect width="60" height="60" rx="30" fill="#000051"/>
<path d="M41.6351 21.1472L37.1292 13.2617C36.6891 12.4836 35.8508 12 34.9706 12H25.9589C25.0577 12 24.2404 12.4836 23.8003 13.2617L19.2944 21.1472C18.8543 21.9252 18.8543 22.8925 19.2944 23.6706L23.8003 31.5561C24.2404 32.3341 25.0787 32.8178 25.9589 32.8178H29.2283L30.4647 30.6519H25.9589C25.8332 30.6519 25.7074 30.5888 25.6445 30.4626L21.1387 22.5771C21.0758 22.472 21.0758 22.3248 21.1387 22.2196L25.6445 14.3341C25.7074 14.229 25.8332 14.1449 25.9589 14.1449H34.9706C35.0963 14.1449 35.2221 14.2079 35.285 14.3341L39.7908 22.2196C39.8537 22.3248 39.8537 22.472 39.7908 22.5771L37.1711 27.1612H39.6441L41.656 23.6706C42.0961 22.8925 42.0961 21.9252 41.6351 21.1472Z" fill="#0788FE"/>
<path d="M33.6917 36.3084L31.6797 32.8177H29.2068L31.8264 37.4018C31.8893 37.507 31.8893 37.6542 31.8264 37.7593L27.3206 45.6448C27.2577 45.75 27.132 45.8341 27.0062 45.8341H17.9945C17.8688 45.8341 17.7431 45.771 17.6802 45.6448L13.1743 37.7593C13.1115 37.6542 13.1115 37.507 13.1743 37.4018L17.6802 29.5163C17.7431 29.4112 17.8688 29.3271 17.9945 29.3271H22.5004L21.2639 27.1612H18.0155C17.1143 27.1612 16.297 27.6448 15.8569 28.4229L11.3301 36.3084C10.89 37.0864 10.89 38.0537 11.3301 38.8317L15.8359 46.7172C16.276 47.4953 17.1143 47.9789 17.9945 47.9789H27.0062C27.9074 47.9789 28.7247 47.4953 29.1649 46.7172L33.6707 38.8317C34.1527 38.0537 34.1527 37.0864 33.6917 36.3084Z" fill="#A06FFE"/>
<path d="M49.5772 36.3084L45.0714 28.4439C44.6313 27.6659 43.793 27.1823 42.9127 27.1823H33.901C32.9999 27.1823 32.1825 27.6659 31.7424 28.4439L29.2275 32.8178H31.7005L33.5867 29.5164C33.6496 29.4112 33.7753 29.3271 33.901 29.3271H42.9127C43.0385 29.3271 43.1642 29.3902 43.2271 29.5164L47.7329 37.4019C47.7958 37.507 47.7958 37.6542 47.7329 37.7594L43.2271 45.6449C43.1642 45.75 43.0385 45.8341 42.9127 45.8341H33.901C33.7753 45.8341 33.6496 45.771 33.5867 45.6449L31.7005 42.3645L30.464 44.5304L31.7424 46.7383C32.1825 47.5164 33.0208 48 33.901 48H42.9127C43.8139 48 44.6313 47.5164 45.0714 46.7383L49.5772 38.8528C50.0383 38.0537 50.0383 37.0865 49.5772 36.3084Z" fill="#00D9CB"/>
</svg>
