<svg width="60" height="60" viewBox="0 0 60 60" fill="none" xmlns="http://www.w3.org/2000/svg">
<rect width="60" height="60" rx="30" fill="black"/>
<g clip-path="url(#clip0_510_1944)">
<path fill-rule="evenodd" clip-rule="evenodd" d="M13.6003 28.1041H35.4004L41.6003 31.7275L46.2004 32.13V41.5911L15.2003 42.7989L13.6003 28.1041Z" fill="black"/>
<path fill-rule="evenodd" clip-rule="evenodd" d="M42.4678 40.1807C42.4672 40.3382 42.4572 40.4965 42.4384 40.6528C42.4077 40.9093 42.2491 41.0766 41.9916 41.0923C41.7044 41.1098 41.4137 41.1162 41.1275 41.0919C40.8591 41.069 40.7114 40.9375 40.6671 40.6266C40.6471 40.4856 40.6473 40.3413 40.6476 40.198L40.6477 40.1374C40.6473 39.6019 40.6473 39.0663 40.6473 38.5308V38.5236C40.6474 37.5261 40.6474 36.5285 40.6442 35.531C40.6435 35.2925 40.6267 35.0511 40.587 34.8162C40.5101 34.3626 40.2821 33.9763 39.6684 33.811C39.0526 33.6451 38.4301 33.65 37.8074 33.7591C37.5938 33.7965 37.3863 33.8643 37.201 33.9876C36.9337 34.1658 36.7809 34.4122 36.7018 34.7233C36.6305 35.0039 36.6299 35.2869 36.6294 35.5693L36.6292 35.648C36.6258 36.49 36.6262 37.332 36.6266 38.1741C36.6268 38.8022 36.6271 39.4303 36.6258 40.0583C36.6254 40.2644 36.6074 40.4711 36.5855 40.6761C36.5562 40.951 36.3699 41.075 36.1546 41.091C35.8678 41.1122 35.5759 41.1219 35.2907 41.0927C34.9519 41.058 34.8686 40.8988 34.8132 40.605C34.8029 40.5501 34.8031 40.4927 34.8034 40.436L34.8034 40.4095V39.3409C34.8034 37.9656 34.8034 36.5903 34.8061 35.2151C34.8072 34.7205 34.9032 34.2417 35.0954 33.7853C35.3703 33.1325 35.8449 32.6727 36.4856 32.3827C36.9202 32.1858 37.3792 32.0837 37.8533 32.0321C38.2662 31.9871 38.6784 31.9688 39.0921 31.9976C39.6358 32.0353 40.1728 32.1097 40.685 32.3121C41.4412 32.611 41.9668 33.1314 42.2404 33.9027C42.3932 34.3333 42.4571 34.7786 42.4615 35.2313C42.4669 35.7869 42.4658 36.3425 42.4646 36.8981V36.9002C42.4641 37.1334 42.4636 37.3666 42.4636 37.5998H42.4691C42.4691 37.8234 42.4692 38.047 42.4692 38.2706V38.2772C42.4696 38.9117 42.4698 39.5462 42.4678 40.1807ZM21.7278 36.5445C21.7278 36.4192 21.7289 36.2938 21.73 36.1684C21.7325 35.8746 21.735 35.5803 21.7237 35.2869C21.7126 34.9978 21.6335 34.7175 21.4915 34.4615C21.2549 34.0352 20.8572 33.84 20.4046 33.7605C19.7503 33.6458 19.0925 33.6416 18.445 33.8174C18.1959 33.885 17.9698 34.0024 17.7852 34.1909C17.5418 34.4395 17.4264 34.7493 17.3839 35.0828C17.3456 35.3843 17.332 35.6899 17.3249 35.9941C17.3152 36.4023 17.3144 36.8112 17.3248 37.2194C17.3321 37.5017 17.3503 37.7854 17.3904 38.0646C17.4277 38.3242 17.5212 38.5699 17.6868 38.7807C17.932 39.093 18.2711 39.239 18.6468 39.3185C19.0281 39.3993 19.4145 39.4006 19.8016 39.3932C20.1082 39.3873 20.4102 39.3462 20.7023 39.255C21.0809 39.1369 21.3788 38.9187 21.546 38.5426C21.656 38.295 21.7203 38.0368 21.7278 37.7697C21.7359 37.4832 21.7342 37.1965 21.7324 36.9098V36.909V36.9053C21.7316 36.785 21.7309 36.6648 21.7309 36.5446L21.7278 36.5445ZM29.6568 33.7221C29.9288 33.7572 30.1904 33.8234 30.433 33.9526C30.8049 34.1509 31.0251 34.4628 31.1314 34.8687C31.1934 35.1054 31.1946 35.3424 31.1958 35.5846C31.196 35.6219 31.1962 35.6595 31.1966 35.6971C31.0329 35.7413 27.3765 35.7453 27.2069 35.7069C27.205 35.7022 27.2025 35.6971 27.1999 35.6919C27.1938 35.6795 27.1871 35.6659 27.1865 35.652C27.171 35.313 27.1883 34.978 27.3155 34.6572C27.4615 34.2889 27.7215 34.0298 28.0851 33.8825C28.5919 33.6773 29.1197 33.6528 29.6568 33.7221ZM32.969 36.4783C32.9608 36.6014 32.9308 36.7272 32.8875 36.8432C32.7974 37.0837 32.5998 37.1895 32.3557 37.2127C32.226 37.2251 32.0947 37.2227 31.964 37.2228C30.4499 37.2234 28.9357 37.2233 27.4217 37.2235H27.2278C27.2105 37.2491 27.2052 37.2532 27.2046 37.258C27.1566 37.6802 27.1784 38.0952 27.36 38.4867C27.5225 38.8368 27.8091 39.0519 28.1643 39.1824C28.5411 39.3208 28.9336 39.3743 29.3323 39.3914C30.0208 39.421 30.7032 39.3582 31.3811 39.2438C31.6383 39.2004 31.8929 39.1416 32.1487 39.0897C32.17 39.0854 32.191 39.079 32.2125 39.0755C32.4555 39.0361 32.6179 39.1174 32.6697 39.3548C32.7418 39.6861 32.7316 40.0268 32.6745 40.3603C32.6376 40.5755 32.4688 40.6935 32.2719 40.7483C31.9634 40.8342 31.6511 40.908 31.3376 40.974C30.5691 41.1356 29.7897 41.1299 29.0113 41.094C28.4386 41.0676 27.8757 40.9672 27.3375 40.7607C26.6755 40.5065 26.1441 40.0925 25.8055 39.4585C25.6435 39.1552 25.539 38.8307 25.4707 38.4921C25.359 37.9381 25.3558 37.3782 25.357 36.8174C25.3581 36.2187 25.3359 35.6187 25.4106 35.0225C25.5031 34.2844 25.7342 33.602 26.247 33.0422C26.5965 32.6606 27.0285 32.4022 27.5188 32.2453C28.2864 31.9996 29.0722 31.9371 29.8732 32.0186C30.2978 32.0617 30.7102 32.1447 31.1072 32.3039C31.8521 32.6025 32.3827 33.1194 32.6942 33.8585C32.8844 34.3097 32.9655 34.784 33.0004 35.2712C33.0295 35.6759 32.9959 36.0767 32.969 36.4783ZM23.576 37.3756C23.5773 37.802 23.5348 38.2248 23.4334 38.6375C23.1669 39.7216 22.5218 40.4707 21.4519 40.8366C20.8095 41.0564 20.1472 41.118 19.4739 41.1112C19.1357 41.1077 18.7989 41.0917 18.4658 41.0309C17.6838 40.8882 16.9729 40.6007 16.4153 40.0086C16.0964 39.67 15.8817 39.2705 15.7352 38.8313C15.5677 38.3291 15.5219 37.8112 15.5223 37.286C15.5234 36.0225 15.5227 34.7589 15.5227 33.4955H15.5237C15.5237 32.1612 15.5234 30.8268 15.5242 29.4926C15.5242 29.3674 15.528 29.2421 15.535 29.1172C15.5505 28.8426 15.7333 28.6459 15.979 28.6146C16.2791 28.5763 16.575 28.5698 16.8727 28.6186C17.1519 28.6645 17.2697 28.8294 17.3065 29.0956C17.322 29.2083 17.32 29.3238 17.3201 29.4381C17.3207 30.3257 17.3198 31.2135 17.3194 32.1011C17.3194 32.1338 17.3172 32.1668 17.3206 32.1991C17.3301 32.2917 17.3596 32.3101 17.4495 32.2834C18.3576 32.0137 19.2816 31.9256 20.2248 32.0284C20.9221 32.1044 21.5767 32.2951 22.16 32.6991C22.5999 33.0038 22.9303 33.4005 23.166 33.8777C23.4638 34.4803 23.5688 35.126 23.5749 35.7908C23.5798 36.319 23.5744 36.8473 23.576 37.3756ZM47.9591 35.7006C47.8927 34.9 47.7483 34.1146 47.508 33.3492C46.715 30.8241 45.241 28.7963 43.0535 27.2984C41.7746 26.4228 40.3688 25.8479 38.8494 25.5406C38.2516 25.4198 37.6444 25.3838 37.0429 25.2977C35.9646 25.1433 35.0178 24.3413 34.7534 23.2811C34.6777 22.9775 34.6547 22.659 34.6269 22.3455C34.571 21.7151 34.467 21.0937 34.3076 20.4818C33.383 16.9335 30.8686 14.1087 27.437 12.7653C26.1614 12.2659 24.8356 12.017 23.4672 12.0008C22.4109 11.9883 21.3727 12.1236 20.3521 12.4017C19.0462 12.7577 17.8442 13.3307 16.7429 14.1148C15.963 14.67 15.265 15.3135 14.6522 16.0516C14.093 16.7251 13.6121 17.4477 13.2178 18.2283C12.6609 19.3306 12.2928 20.4935 12.1214 21.7163C12.0544 22.1946 11.9995 22.674 12.0002 23.1603C12.0053 26.9293 12.003 30.6985 12.003 34.4675C12.003 38.3238 12.0057 42.18 12 46.0363C11.9989 46.7968 12.4164 47.5517 13.294 47.8695C13.5693 47.9691 13.8536 48.0003 14.1445 48C15.7185 47.9986 17.2926 47.999 18.8667 47.999C24.8308 47.999 30.7949 47.9986 36.7591 47.9996C37.4091 47.9997 38.0533 47.9335 38.6907 47.8169C40.3146 47.5197 41.807 46.8997 43.1615 45.9537C44.2202 45.2143 45.1273 44.3205 45.8792 43.2702C46.3403 42.6263 46.7223 41.9384 47.0442 41.2145C47.3776 40.4648 47.6209 39.6874 47.7821 38.8854C47.9935 37.8334 48.0479 36.7712 47.9591 35.7006Z" fill="white"/>
</g>
<defs>
<clipPath id="clip0_510_1944">
<rect width="36" height="36" fill="white" transform="translate(12 12)"/>
</clipPath>
</defs>
</svg>
