<svg width="60" height="60" viewBox="0 0 60 60" fill="none" xmlns="http://www.w3.org/2000/svg">
<rect width="60" height="60" rx="30" fill="url(#paint0_linear_508_1429)"/>
<path d="M29.3433 37.2445L27.2537 38.427C26.9552 38.5748 26.9552 38.7226 26.9552 39.0182V46.5566C26.9552 46.8522 27.1045 47 27.2537 47H29.3433V37.2445ZM33.2239 35.0273L30.5373 36.5054H30.3881V46.7044H33.3731C33.5315 46.7044 33.6833 46.6421 33.7953 46.5312C33.9072 46.4203 33.9701 46.2699 33.9701 46.1131V35.4707C34.0001 35.3758 33.9969 35.2737 33.9611 35.1808C33.9254 35.0879 33.8592 35.0096 33.7731 34.9584C33.687 34.9073 33.586 34.8862 33.4864 34.8987C33.3868 34.9112 33.2944 34.9565 33.2239 35.0273ZM29.0448 20.2462C26.8414 20.2295 24.6418 20.4275 22.4776 20.8375C23.6361 19.3459 25.1294 18.1419 26.8392 17.3209C28.549 16.4999 30.4283 16.0845 32.3284 16.1075C35.2348 16.1075 38.0629 17.0411 40.3881 18.7681C40.6866 19.0637 40.9851 19.2115 41.2836 18.9159C41.3471 18.8604 41.398 18.7922 41.4328 18.7157C41.4677 18.6393 41.4857 18.5564 41.4857 18.4725C41.4857 18.3886 41.4677 18.3057 41.4328 18.2292C41.398 18.1528 41.3471 18.0845 41.2836 18.0291C39.9481 16.4165 38.2597 15.1261 36.3462 14.2554C34.4326 13.3847 32.3441 12.9566 30.2388 13.0035C27.4136 13.0539 24.668 13.9392 22.3544 15.5458C20.0407 17.1523 18.2646 19.4068 17.2537 22.0199L12.4776 23.9415C12.0796 24.2371 11.9303 24.5327 12.0299 24.8284C12.06 24.9135 12.1094 24.9907 12.1744 25.054C12.2393 25.1173 12.318 25.1651 12.4044 25.1936C12.4909 25.2221 12.5828 25.2307 12.6731 25.2186C12.7634 25.2066 12.8497 25.1742 12.9254 25.124C14.1466 24.7421 15.3935 24.4457 16.6567 24.2371C16.5267 24.9189 16.4766 25.6133 16.5075 26.3065C16.4672 28.6564 17.0361 30.9774 18.1597 33.0476C19.2833 35.1178 20.9241 36.8681 22.9254 38.1313C23.2239 38.2792 23.6716 38.2792 23.8209 37.9835C23.9701 37.6879 23.9701 37.3923 23.6716 37.0967C22.423 35.9784 21.4306 34.6084 20.7613 33.0786C20.0919 31.5489 19.7611 29.8949 19.791 28.228C19.7447 26.6379 20.1041 25.062 20.8358 23.6459L25.0149 23.3502C35.1642 23.3502 43.8209 26.7499 43.8209 31.0364C43.8209 35.3229 40.9851 35.4707 37.5522 36.9489C36.806 37.2445 36.806 37.5401 36.806 37.8357C36.806 38.1313 37.2537 38.2792 37.7015 38.1313C43.6716 36.3576 48 33.1058 48 29.4105C48 25.7152 39.6418 20.2462 29.0448 20.2462Z" fill="white"/>
<defs>
<linearGradient id="paint0_linear_508_1429" x1="0" y1="30" x2="60" y2="30" gradientUnits="userSpaceOnUse">
<stop stop-color="#CC092F"/>
<stop offset="0.4" stop-color="#CC092F"/>
<stop offset="0.9" stop-color="#B81570"/>
<stop offset="1" stop-color="#B81570"/>
</linearGradient>
</defs>
</svg>
