<svg width="60" height="60" viewBox="0 0 60 60" fill="none" xmlns="http://www.w3.org/2000/svg">
<rect width="60" height="60" rx="30" fill="#3333CC"/>
<path d="M18.4196 25.5056C17.0669 25.5056 15.8781 25.8754 14.8943 26.615L14.2794 27.0669V20L11 20.9861V40.1736H14.3204V38.9821L14.9353 39.4341C15.9601 40.1325 17.1489 40.5023 18.4606 40.5023C22.2319 40.5023 25.3063 37.1332 25.3063 32.9834C25.3063 28.8337 22.1909 25.5056 18.4196 25.5056ZM18.1737 37.1332C15.9601 37.1332 14.2794 35.3665 14.2794 33.0245C14.2794 30.6826 15.9601 28.8747 18.1737 28.8747C20.3873 28.8747 22.0679 30.6415 22.0679 32.9834C22.027 35.3254 20.3873 37.1332 18.1737 37.1332Z" fill="white"/>
<path d="M32.193 31.4632L31.8241 31.34C30.2664 30.7647 29.6105 30.395 29.6105 29.5732C29.6105 28.7104 30.4713 28.3817 31.2912 28.3817C32.111 28.3817 33.0949 28.6693 33.0949 29.9019V30.6004H36.3742V29.9019C36.3742 27.1491 34.2836 25.1769 31.2912 25.1769C28.0528 25.1769 26.3721 27.3545 26.3721 29.5321C26.3721 32.6137 28.9136 33.5176 30.9633 34.2571L31.1682 34.3393C32.7259 34.9145 33.5048 35.3254 33.5048 36.0239C33.5048 36.9689 32.48 37.2975 31.5781 37.2975C30.5533 37.2975 29.2826 37.0099 29.2826 35.5719V34.8323H26.0032V35.5719C26.0032 38.5302 28.2168 40.5023 31.5781 40.5023C34.5706 40.5023 36.7842 38.6534 36.7842 36.0649C36.7432 33.1478 34.2017 32.2028 32.193 31.4632Z" fill="white"/>
<path d="M44.081 38.2836H47.6063V37.0099H42.5642L44.7368 34.8734C46.4995 33.1478 47.3603 31.5865 47.3603 29.9841C47.3603 27.6011 45.6797 25.1769 42.4413 25.1769C40.0227 25.1769 37.4402 26.6972 37.4402 29.9841V30.5593H40.6786V30.0252C40.6786 28.9158 41.2935 28.3406 42.4822 28.3406C43.2611 28.3406 44.1219 28.7926 44.1219 29.9841C44.1219 30.9702 43.1381 32.0384 42.4413 32.7369L39.2438 35.9417C38.1371 37.051 37.4812 38.5712 37.4812 40.1325H47.6473V38.8588H44.081C43.917 38.8588 43.753 38.7356 43.753 38.5302C43.753 38.448 43.876 38.2836 44.081 38.2836ZM49 38.6123C49 38.8588 48.7951 39.0643 48.5491 39.0643C48.3032 39.0643 48.0982 38.8588 48.0982 38.6123C48.0982 38.3658 48.3032 38.1604 48.5491 38.1604C48.7951 38.1604 49 38.3658 49 38.6123Z" fill="white"/>
</svg>
