<svg width="60" height="60" viewBox="0 0 60 60" fill="none" xmlns="http://www.w3.org/2000/svg">
<rect width="60" height="60" rx="30" fill="#001E61"/>
<path fill-rule="evenodd" clip-rule="evenodd" d="M37.7028 29.4563L38.0963 27.491H34.7093V24.8062L32.3317 25.1745V33.1936C32.3317 35.9659 33.392 36.7909 36.2828 36.7909H37.5484L37.9421 34.8429H36.4538C35.1369 34.8429 34.7091 34.51 34.7091 33.0356V29.4563H37.7028ZM21.3673 23.8759V32.492C21.3673 35.6856 22.804 37.0191 25.9344 37.0191C29.1843 37.0191 30.6212 35.7208 30.6212 32.5093V31.6848C30.6212 28.6667 29.2868 27.1925 26.3791 27.1925C25.4553 27.1925 24.446 27.3854 23.7618 27.9293V23.4899L21.3673 23.8759ZM26.0198 29.1225C27.6618 29.1225 28.2436 29.7895 28.2436 31.7721V32.5093C28.2436 34.4393 27.6618 35.1065 25.9856 35.1065C24.3094 35.1065 23.7274 34.4393 23.7274 32.4918V31.4917C23.7274 29.7192 24.3094 29.1225 26.0198 29.1225ZM43.4501 27.1925C40.3197 27.1925 38.8828 28.5436 38.8828 31.6319V32.1057C38.8828 35.036 40.1316 36.4573 43.0735 36.4573C44.0144 36.4573 44.9552 36.2822 45.6222 35.7379V36.0892C45.6222 37.7388 44.9211 38.2822 43.2788 38.2822H42.2956C41.7337 38.2924 41.4783 38.3948 41.1396 38.9644L41.1377 38.9636C38.3173 43.5426 33.4207 46.3399 28.0845 46.3399C19.5701 46.3399 12.6434 39.2344 12.6434 30.4999C12.6434 21.7656 19.5701 14.6601 28.0845 14.6601C34.065 14.6601 39.5057 18.213 42.0511 23.7422H42.7606C40.1664 17.8215 34.4154 14 28.0845 14C19.2156 14 12 21.4019 12 30.4999C12 39.5981 19.2156 47 28.0845 47C33.3003 47 38.1138 44.4346 41.1146 40.1773H43.4157C46.4434 40.1773 48 39.0018 48 36.0013V31.4741C48 28.4909 46.5119 27.1925 43.4501 27.1925ZM45.6395 32.404C45.6395 34.0535 45.075 34.5622 43.4503 34.5622C41.6197 34.5622 41.2606 33.913 41.2606 32.0006V31.7023C41.2606 29.8068 41.5856 29.1225 43.4501 29.1225C45.2802 29.1225 45.6395 29.7895 45.6395 31.7197V32.404Z" fill="white"/>
</svg>
