<svg width="60" height="60" viewBox="0 0 60 60" fill="none" xmlns="http://www.w3.org/2000/svg">
<rect width="60" height="60" rx="30" fill="black"/>
<path d="M24.1539 33.7023C24.7828 33.1632 25.1927 32.4546 25.3859 31.5775H31.5946C31.3101 34.0847 30.2793 36.1145 28.5032 37.6685C26.7263 39.2226 24.5387 40 21.942 40C20.0479 40 18.3429 39.5923 16.8263 38.7777C15.3097 37.963 14.1262 36.831 13.2757 35.3814C12.4252 33.9319 12 32.305 12 30.5C12 28.695 12.4252 27.0681 13.2757 25.6186C14.1262 24.169 15.3097 23.037 16.8263 22.2223C18.3429 21.4069 20.0479 21 21.942 21C24.4975 21 26.6551 21.7497 28.4151 23.2499C30.1742 24.7493 31.2139 26.715 31.5316 29.1462H25.4118C25.1523 28.3443 24.7085 27.6991 24.0795 27.2098C23.4513 26.7214 22.7472 26.4768 21.9679 26.4768C20.8951 26.4768 20.0301 26.8465 19.3728 27.5859C18.714 28.3253 18.3858 29.2967 18.3858 30.4992C18.3858 31.6946 18.7172 32.662 19.3785 33.4015C20.0414 34.1409 20.9032 34.5098 21.9679 34.5098C22.7973 34.5098 23.5257 34.2406 24.1539 33.7023ZM46.1916 28.7623C47.3969 29.8944 48 31.359 48 33.1537C48 35.2057 47.3064 36.8603 45.9183 38.1158C44.5294 39.3722 42.7008 40 40.4291 40C38.1849 40 36.3603 39.3698 34.9544 38.1095C33.5478 36.8484 32.8453 35.2152 32.8453 33.2067C32.8453 32.1103 33.0385 31.0067 33.4241 29.8968C33.8097 28.7868 34.4063 27.5724 35.2139 26.2551L38.0677 21.608L44.0985 21.6072L40.7217 27.0903C41.0589 27.0729 41.3248 27.0642 41.5205 27.0642C43.4275 27.0642 44.9846 27.6302 46.1916 28.7623ZM42.1195 34.8383C42.5536 34.4053 42.7711 33.844 42.7711 33.1537C42.7711 32.4641 42.5536 31.8981 42.1195 31.4555C41.6846 31.013 41.1211 30.7921 40.4299 30.7921C39.7379 30.7921 39.1736 31.0138 38.7403 31.4555C38.3046 31.8981 38.0879 32.4641 38.0879 33.1537C38.0879 33.844 38.3046 34.4053 38.7395 34.8383C39.1736 35.2722 39.7379 35.4891 40.4291 35.4891C41.1211 35.4891 41.6854 35.2722 42.1195 34.8383Z" fill="white"/>
</svg>
