<svg width="60" height="60" viewBox="0 0 60 60" fill="none" xmlns="http://www.w3.org/2000/svg">
<g clip-path="url(#clip0_506_1426)">
<path d="M0 30C0 46.5685 13.4315 60 30 60C46.5685 60 60 46.5685 60 30C60 13.4315 46.5685 0 30 0C13.4315 0 0 13.4315 0 30Z" fill="#0070AF"/>
<path fill-rule="evenodd" clip-rule="evenodd" d="M22.853 31.4118H35.297L43.8236 46H31.3776L22.853 31.4118Z" fill="white"/>
<path fill-rule="evenodd" clip-rule="evenodd" d="M24.6765 29.5882H37.3637L48.3824 15H35.6952L24.6765 29.5882Z" fill="#F6822A"/>
<path fill-rule="evenodd" clip-rule="evenodd" d="M11 46H24.1741L35.6176 31.4118H22.4414L11 46Z" fill="#F6822A"/>
<path fill-rule="evenodd" clip-rule="evenodd" d="M16.4707 15H28.3737L36.5295 29.5882H24.6245L16.4707 15Z" fill="white"/>
</g>
<defs>
<clipPath id="clip0_506_1426">
<rect width="60" height="60" fill="white"/>
</clipPath>
</defs>
</svg>
