<svg width="60" height="60" viewBox="0 0 60 60" fill="none" xmlns="http://www.w3.org/2000/svg">
<rect width="60" height="60" rx="30" fill="#255BE3"/>
<path d="M11 34.1729C11 30.1502 14.2973 27.0184 18.5945 27.0184C21.081 27.0184 23.3513 28.1253 24.6486 29.7992L22.7837 31.6621C22.2891 31.0295 21.658 30.5164 20.9373 30.1611C20.2167 29.8059 19.4251 29.6176 18.6216 29.6102C16.054 29.6102 14 31.5271 14 34.1729C14 36.8458 16.054 38.7627 18.6216 38.7627C19.4539 38.7616 20.2748 38.5686 21.0201 38.1986C21.7656 37.8287 22.4153 37.2918 22.9188 36.6298L24.7567 38.4386C23.5135 40.1935 21.1351 41.3545 18.5945 41.3545C14.2973 41.3545 11 38.2227 11 34.1729Z" fill="white"/>
<path d="M27.1895 27.5042H30.1354V40.8684H27.1895V27.5042Z" fill="white"/>
<path d="M35.6213 37.2781V29.9886H32.405V27.5048H35.7564V24.6429L38.5132 23.293V27.5048H42.8915V29.9886H38.5132V36.7921C38.5132 38.142 39.2699 38.736 40.7023 38.736C41.4477 38.7399 42.1851 38.5833 42.8645 38.2771V40.8149C42.0132 41.188 41.0911 41.3722 40.1618 41.3548C37.5402 41.3548 35.6213 39.924 35.6213 37.2781Z" fill="white"/>
<path d="M45.2158 27.5042H48.1618V40.8684H45.2158V27.5042Z" fill="white"/>
<path d="M37.6486 19C40.0681 18.9943 42.4534 19.5702 44.6032 20.6792C46.7529 21.7881 48.604 23.3976 50 25.3716H46.5675C45.4425 24.1225 44.0671 23.1236 42.5306 22.4399C40.994 21.7561 39.3307 21.4028 37.6486 21.4028C35.9666 21.4028 34.3032 21.7561 32.7667 22.4399C31.2302 23.1236 29.8548 24.1225 28.7298 25.3716H25.2974C26.6934 23.3976 28.5444 21.7881 30.6941 20.6792C32.8439 19.5702 35.2292 18.9943 37.6486 19Z" fill="#FF3C28"/>
</svg>
