<svg width="60" height="60" viewBox="0 0 60 60" fill="none" xmlns="http://www.w3.org/2000/svg">
<rect width="60" height="60" rx="30" fill="#FF6332"/>
<path d="M28.8491 26.0041C28.7674 25.966 26.8143 25.0837 24.332 25.0837C18.4502 25.0837 12.3662 29.5821 12.3662 37.1094C12.3662 41.5229 14.9627 46.6765 22.2784 46.6765C24.951 46.6765 27.2991 45.4909 27.3971 45.4397L27.5094 45.383L26.8242 41.1791L26.6133 41.2895C26.0361 41.5916 24.8462 42.0976 23.3529 42.0976C19.9235 42.0976 17.707 39.9467 17.707 36.6177C17.707 32.7239 20.7908 29.6726 24.7282 29.6726C26.325 29.6726 27.6311 30.3359 27.993 30.5393L28.2076 30.6597L28.9689 26.059L28.8491 26.0041Z" fill="white"/>
<path d="M46.8801 26.0038C46.7984 25.9657 44.8446 25.0834 42.363 25.0834C36.4812 25.0834 30.3972 29.5818 30.3972 37.1091C30.3972 41.5226 32.993 46.6762 40.3088 46.6762C42.982 46.6762 45.3301 45.4906 45.4281 45.4394L45.5398 45.3827L44.8553 41.1788L44.6443 41.2892C44.0671 41.5912 42.8766 42.0973 41.384 42.0973C37.9545 42.0973 35.738 39.9464 35.738 36.6174C35.738 32.7236 38.8218 29.6723 42.7592 29.6723C44.3567 29.6723 45.6621 30.335 46.024 30.539L46.2387 30.6594L46.9999 26.0587L46.8801 26.0038Z" fill="white"/>
<path d="M19.6614 21.2874C21.2 21.2874 22.4488 20.0386 22.4488 18.498C22.4488 16.958 21.2 15.7092 19.6614 15.7092C18.1222 15.7092 16.874 16.958 16.874 18.498C16.874 20.0386 18.1222 21.2874 19.6614 21.2874Z" fill="white"/>
<path d="M30.3852 14.5677C28.5335 14.5677 27.0273 16.0745 27.0273 17.9275C27.0273 19.7798 28.5335 21.2874 30.3852 21.2874C32.2368 21.2874 33.743 19.7798 33.743 17.9275C33.743 16.0745 32.2368 14.5677 30.3852 14.5677Z" fill="white"/>
<path d="M42.2456 13.4261C40.0795 13.4261 38.3167 15.1897 38.3167 17.3564C38.3167 19.5239 40.0795 21.2874 42.2456 21.2874C44.4116 21.2874 46.1738 19.5239 46.1738 17.3564C46.1738 15.1897 44.4116 13.4261 42.2456 13.4261Z" fill="white"/>
</svg>
