<svg width="60" height="60" viewBox="0 0 60 60" fill="none" xmlns="http://www.w3.org/2000/svg">
<rect width="60" height="60" rx="30" fill="#003641"/>
<path d="M42.3657 34.2946C40.0208 34.2946 38.074 32.3701 38.074 29.9534C38.074 31.8778 37.4103 33.6233 36.26 35.0107C37.7201 36.8008 39.888 37.9197 42.3215 37.9197C46.7016 37.9645 50.2412 34.3841 50.2412 29.9981H46.6574C46.6574 32.3701 44.7107 34.2946 42.3657 34.2946Z" fill="white"/>
<path d="M42.3658 22.0312C39.6669 22.0312 37.2777 23.4187 35.8619 25.5221C35.8176 25.5669 35.7734 25.6564 35.7291 25.7459C35.6406 25.8802 35.5521 26.0144 35.4637 26.1487C35.4194 26.2382 35.3752 26.3277 35.331 26.4172C35.2424 26.5515 35.1982 26.6858 35.154 26.82C35.1097 26.9095 35.0655 26.999 35.0212 27.0885C34.9769 27.2228 34.9327 27.3571 34.8885 27.4913C34.8442 27.5808 34.8442 27.6704 34.8 27.7599C34.7558 27.8941 34.7115 28.0732 34.6673 28.2074C34.6673 28.2969 34.623 28.3864 34.623 28.476C34.5788 28.655 34.5788 28.7893 34.5345 28.9683C34.5345 29.0577 34.4903 29.1473 34.4903 29.2367C34.446 29.5053 34.446 29.7291 34.446 29.9976C34.446 32.3696 32.5435 34.3389 30.1543 34.3389C27.8094 34.3389 25.8627 32.4144 25.8627 29.9976C25.9069 31.9668 25.2875 33.7122 24.2256 35.0996C25.6414 36.8451 27.7651 37.9192 30.1543 37.9192C34.4903 37.9192 38.0298 34.3389 38.0298 29.9528C38.0298 27.5808 39.9323 25.6116 42.3216 25.6116C44.7107 25.6116 46.6132 27.5361 46.6132 29.9528H50.2413C50.2413 25.5669 46.7018 22.0312 42.3658 22.0312Z" fill="#96DC00"/>
<path d="M30.1989 22.031C25.8629 22.031 22.3234 25.6113 22.3234 29.9973C22.4561 33.4882 19.6245 35.4574 16.3946 34.4728C15.4655 34.2042 14.6691 33.5329 14.1824 32.6826C12.1914 29.147 14.6691 25.5218 17.9875 25.5218C18.2086 25.5218 18.3857 25.5218 18.6068 25.5666C19.2705 25.6561 19.89 25.3428 20.1554 24.761C20.4652 24.1344 20.7748 23.3736 20.9961 22.9708C21.0845 22.7918 20.9961 22.6128 20.8191 22.5233C19.536 22.031 18.3857 21.8967 16.8813 22.0757C14.4037 22.3442 11.572 24.4925 10.6429 26.8197C8.34218 32.6826 12.5454 38.2322 18.0317 38.2322C22.4561 38.2322 26.0399 34.6071 25.9515 29.9973V29.684C25.9515 28.2966 26.6593 26.9987 27.854 26.3274C31.1723 24.4477 34.4906 26.8645 34.4906 29.9973C34.4906 28.0729 35.1543 26.3274 36.3046 24.94C34.8446 23.1498 32.6323 22.031 30.1989 22.031Z" fill="white"/>
</svg>
