<svg width="60" height="60" viewBox="0 0 60 60" fill="none" xmlns="http://www.w3.org/2000/svg">
<rect width="60" height="60" rx="30" fill="#199B43"/>
<path fill-rule="evenodd" clip-rule="evenodd" d="M43.4042 34.2128L29.7753 48L25.0212 43.1914C29.5798 37.9954 36.0842 34.6113 43.3883 34.2128" fill="white"/>
<path fill-rule="evenodd" clip-rule="evenodd" d="M47.9455 30.1818C44.6525 28.7958 41.1135 28.0827 37.5385 28.0851C29.879 28.0851 22.9872 31.2992 18.1277 36.4375L23.5854 41.8723C28.4771 36.0453 35.8239 32.3458 44.0346 32.3458C44.6322 32.3458 45.2242 32.3618 45.8217 32.4074L48 30.2361L47.9455 30.1818Z" fill="white"/>
<path fill-rule="evenodd" clip-rule="evenodd" d="M29.9999 18.9687C26.9979 18.9651 24.0179 19.458 21.1914 20.4255L29.9999 12L38.8084 20.4255C35.9821 19.4578 33.0019 18.9649 29.9999 18.9687Z" fill="#FFCD00"/>
<path fill-rule="evenodd" clip-rule="evenodd" d="M44.9337 26.8212L41.4069 23.3161C38.0936 21.9114 34.5282 21.1887 30.926 21.1915C22.9196 21.1915 17.3827 24.3314 12 29.6815L16.5595 34.2128C19.0352 31.4369 22.0768 29.2162 25.4823 27.6981C28.8878 26.18 32.5793 25.3993 36.3117 25.4078C39.2449 25.406 42.1584 25.8829 44.9362 26.8193" fill="white"/>
</svg>
