<svg width="60" height="60" viewBox="0 0 60 60" fill="none" xmlns="http://www.w3.org/2000/svg">
<rect width="60" height="60" rx="30" fill="#005941"/>
<path d="M45.0717 30C45.0717 38.3112 38.3105 45.0716 29.9995 45.0716C21.6886 45.0716 14.9283 38.3112 14.9283 30C14.9283 21.6888 21.6895 14.9284 29.9995 14.9284C38.3095 14.9284 45.0717 21.6888 45.0717 30ZM48 30C48 20.0746 39.9256 12 29.9995 12C20.0735 12 12 20.0746 12 30C12 39.9254 20.0744 48 29.9995 48C39.9246 48 47.9991 39.9244 47.9991 30" fill="#EF7C02"/>
<path d="M38.8684 30.6511L34.5715 34.7671L31.988 32.2826L33.0002 31.3099C34.6627 29.5355 32.5354 27.9862 32.5354 27.9862C32.522 27.9825 32.5124 27.9769 32.5027 27.9713L28.8503 31.4874L28.6274 31.7051L25.4283 34.7727L21.1342 30.6567C20.5426 30.0896 20.5417 29.1664 21.1323 28.5983L25.4283 24.4813L28.0118 26.9659L26.9986 27.9395C25.3361 29.7139 27.4653 31.2632 27.4653 31.2632C27.4778 31.2669 27.4865 31.2725 27.498 31.2781L34.5725 24.4757L38.8675 28.5917C39.4581 29.158 39.4591 30.083 38.8694 30.6511M40.8546 26.6865L34.8222 20.9036C34.7002 20.7877 34.4447 20.7868 34.3228 20.9036L29.997 25.0588L25.677 20.9092C25.5493 20.7858 25.3053 20.7868 25.1786 20.9092L19.1452 26.6921C18.3288 27.4751 17.8774 28.5188 17.8774 29.6289C17.8774 30.739 18.3279 31.7817 19.1452 32.5638L25.1786 38.3477C25.2996 38.4645 25.5455 38.4738 25.677 38.3477L30.0028 34.1925L34.3228 38.3421C34.4687 38.4832 34.6723 38.486 34.8212 38.3421L40.8546 32.5591C41.6709 31.7761 42.1223 30.7324 42.1223 29.6224C42.1223 28.5123 41.6719 27.4695 40.8546 26.6874" fill="white"/>
</svg>
