<svg width="60" height="60" viewBox="0 0 60 60" fill="none" xmlns="http://www.w3.org/2000/svg">
<rect width="60" height="60" rx="30" fill="#0079BE"/>
<path d="M32.707 44.0027C40.3605 44.0394 47.3462 37.761 47.3462 30.123C47.3462 21.7706 40.3605 15.9972 32.707 16H26.1203C18.3751 15.9972 12 21.7723 12 30.123C12 37.7626 18.3751 44.0394 26.1203 44.0027H32.707Z" fill="white"/>
<path d="M26.1514 17.1572C19.0741 17.1594 13.3391 22.8961 13.3374 29.9763C13.3391 37.0553 19.074 42.7914 26.1514 42.7936C33.2305 42.7914 38.9666 37.0553 38.9676 29.9763C38.9666 22.8961 33.2305 17.1594 26.1514 17.1572ZM18.029 29.9763C18.0356 26.5165 20.1964 23.5662 23.2434 22.3938V37.557C20.1964 36.3853 18.0356 33.4366 18.029 29.9763ZM29.0584 37.5603V22.3933C32.1065 23.5629 34.2706 26.5149 34.2761 29.9763C34.2706 33.4388 32.1065 36.3886 29.0584 37.5603Z" fill="#0079BE"/>
</svg>
