<svg width="60" height="60" viewBox="0 0 60 60" fill="none" xmlns="http://www.w3.org/2000/svg">
<rect width="60" height="60" rx="30" fill="#FF4F0E"/>
<g clip-path="url(#clip0_510_2301)">
<path d="M52.7238 36.3568C52.8123 33.8554 51.1544 31.8822 48.4912 31.8822C48.2157 31.8822 47.9312 31.9179 47.65 31.9783L52.4592 25.7877H43.1131V28.1308H47.7087L41.4375 36.3568H44.4531C45.4405 35.0182 46.6221 34.1022 48.0509 34.1022C49.4795 34.1022 50.2023 34.983 50.1495 36.3568H52.7238Z" fill="#121212"/>
<path d="M41.0162 28.1302V25.7871H37.5952V25.1003C37.5952 23.1979 36.3431 22 34.3325 22C32.322 22 30.9819 23.2682 30.9819 25.0827C30.9819 27.0202 32.322 28.1302 34.6323 28.1302H35.0554V33.2207C35.0554 35.3874 36.1842 36.6204 38.4588 36.6204C39.2526 36.6204 39.8868 36.4974 40.24 36.321V34.1191C39.9226 34.2422 39.57 34.3307 39.076 34.3307C38.0182 34.3307 37.5946 33.7669 37.5946 32.7806V28.1302H41.0156H41.0162ZM34.403 25.7871C33.7506 25.7871 33.3627 25.4701 33.3627 24.9239C33.3627 24.4304 33.6978 24.0958 34.1741 24.0958C34.7209 24.0958 35.056 24.4831 35.056 25.1173V25.7865H34.4035L34.403 25.7871Z" fill="#121212"/>
<path d="M26.5225 25.5627C22.7858 25.1489 19.8869 28.0441 20.3 31.7767C20.5617 34.1408 22.743 36.3198 25.1097 36.5812C28.8464 36.9938 31.7441 34.0998 31.331 30.3672C31.0693 28.0036 28.8886 25.8247 26.5225 25.5627Z" fill="#121212"/>
<path d="M18.7341 22.2643H16.1949V24.9069C16.1949 26.1318 16.1574 26.6785 16.0418 27.7141C15.0644 26.1933 13.6416 25.5234 11.9807 25.5234C8.94748 25.5234 7.27246 28.1127 7.27246 31.0019C7.27246 33.8912 8.94748 36.6211 11.9807 36.6211C13.6434 36.6211 15.0673 35.95 16.0447 34.4263C16.1732 35.4226 16.1955 35.9289 16.1955 36.3568H18.7347V35.8281C18.7347 34.1145 18.4367 32.4008 18.0424 31.0189C18.4783 29.647 18.7347 28.0265 18.7347 25.0833V22.2649L18.7341 22.2643ZM12.2271 34.1901C10.5697 34.1901 9.84629 32.6575 9.84629 31.0019C9.84629 29.4342 10.5691 27.9544 12.2271 27.9544C13.4967 27.9544 14.6783 29.1347 15.2427 31.0019C14.6783 32.957 13.4967 34.1901 12.2271 34.1901Z" fill="#121212"/>
</g>
<defs>
<clipPath id="clip0_510_2301">
<rect width="45.4546" height="15" fill="white" transform="translate(7.27246 22)"/>
</clipPath>
</defs>
</svg>
