<svg width="60" height="60" viewBox="0 0 60 60" fill="none" xmlns="http://www.w3.org/2000/svg">
<rect width="60" height="60" rx="30" fill="#0051FF"/>
<path fill-rule="evenodd" clip-rule="evenodd" d="M8 26V33.8344H10.9804V32.5011H9.41177V30.4619H10.8235V29.207H9.41177V27.3333H10.9804V26H8ZM16.2744 29.6776C16.9192 29.3116 17.3201 28.7102 17.3201 27.9956C17.3201 26.8366 16.4922 26 14.941 26H12.1001V33.8344H14.9933C16.6578 33.8344 17.5903 32.7712 17.5903 31.4815C17.5816 30.6623 17.1458 30.0349 16.2744 29.6776ZM14.6622 27.3333C15.5511 27.3333 15.9432 27.6993 15.9432 28.2396C15.9432 28.8235 15.429 29.2157 14.5314 29.2157H13.5118V27.3333H14.6622ZM14.6273 32.5011H13.5118V30.4619H14.6273C15.6992 30.4619 16.1349 30.8366 16.1349 31.4292C16.1349 32.0218 15.6992 32.5011 14.6273 32.5011ZM46.039 30.0174L52.2437 33.9216H49.6032L44.6358 30.793L39.9125 33.9216H37.4986L43.3984 30.0174L39.6946 27.6819C39.3985 27.4989 39.1109 27.342 38.7536 27.342C38.1697 27.342 37.6729 27.7255 37.6729 28.5011V31.8475C37.6729 33.268 37.0106 34 35.808 34C35.076 34 34.4573 33.6601 33.8646 33.0065L28.967 27.5599C28.8015 27.3856 28.6794 27.3333 28.54 27.3333C28.296 27.3333 28.1042 27.4902 28.1042 27.8301V32.2745C28.1042 33.4858 27.4071 34 26.5008 34C25.7426 34 25.2546 33.6514 24.7928 33.0414L24.0956 32.1176H20.113V33.9129H18.7099V27.8475C18.7099 26.6449 19.3461 26 20.3745 26C20.967 26 21.4812 26.2876 22.0216 27.0022L26.161 32.5011C26.248 32.6144 26.3439 32.6667 26.4398 32.6667C26.588 32.6667 26.7012 32.5534 26.7012 32.3442V28.0044C26.7012 26.671 27.5204 26.0087 28.5052 26.0087C29.1848 26.0087 29.7775 26.3573 30.2219 26.854L35.1806 32.3617C35.3897 32.5882 35.5814 32.6754 35.7558 32.6754C36.0432 32.6754 36.2611 32.4575 36.2611 32.0915V28.6405C36.2611 26.854 37.272 26.0087 38.7709 26.0087C39.3723 26.0087 40.0259 26.2266 40.6358 26.61L44.8014 29.2331L49.5596 26.0871H51.9736L46.039 30.0174ZM20.113 27.6471V30.8627H23.1457L20.6097 27.4989C20.5313 27.3856 20.4528 27.342 20.3483 27.342C20.2263 27.342 20.113 27.4292 20.113 27.6471Z" fill="white"/>
</svg>
