<svg width="60" height="60" viewBox="0 0 60 60" fill="none" xmlns="http://www.w3.org/2000/svg">
<rect width="60" height="60" rx="30" fill="#F37124"/>
<path d="M43.5129 25.1677L48 23.4862V19L42.5696 23.3246C42.2279 23.5923 42.0193 23.8584 42.0193 24.2584C42.0193 24.9522 42.6755 25.4861 43.5145 25.1661M42.0177 40.7323H44.9038V26.5831H42.0177V40.7339V40.7323ZM28.9254 40.7323H31.8115V35.2861H39.0258V32.6169H31.8115C31.7585 30.4016 33.228 29.0662 35.2478 29.0662C36.3499 29.0662 37.2948 29.4662 38.0023 29.9739L39.8392 27.8646C38.5012 26.8508 37.0574 26.3154 35.3264 26.3154C31.5227 26.3154 28.9254 28.8785 28.9254 32.6169V40.7339V40.7323ZM15.939 32.1631C16.3593 30.2416 17.8545 29.0662 19.9272 29.0662C21.9999 29.0662 23.4164 30.2416 23.6795 32.1631H15.939ZM26.6426 33.3646C26.6426 30.1077 24.3341 26.317 19.9256 26.317C16.0433 26.3154 13 29.2784 13 33.5508C13 37.8231 16.0689 41 20.2143 41C22.7859 41 24.8586 39.7446 26.2223 37.9031L24.2025 36.2216C23.2063 37.557 21.841 38.2508 20.1357 38.2508C17.8801 38.2508 16.3577 36.9432 15.9374 34.8339H25.2164C26.1084 34.8339 26.641 34.4062 26.641 33.3646" fill="white"/>
</svg>
