<svg width="60" height="60" viewBox="0 0 60 60" fill="none" xmlns="http://www.w3.org/2000/svg">
<rect width="60" height="60" rx="30" fill="#003933"/>
<path d="M6 28.9618H9.47184C10.0945 25.6579 12.9676 23 16.6309 23C20.7967 23 23.7179 25.9692 23.7179 30.4463C23.7179 30.925 23.6699 31.3083 23.6219 31.6436H12.4164C12.9431 33.6788 14.619 34.8761 16.6303 34.8761C18.3542 34.8761 19.6468 34.2055 20.6767 33.0328L22.736 34.9241C21.3714 36.4801 19.3361 37.558 16.6303 37.558C12.9671 37.558 10.0939 34.9481 9.47125 31.6442H6V28.9618ZM20.7487 28.9618C20.6048 28.1238 20.2221 27.3578 19.6714 26.8071C18.9534 26.0886 17.8995 25.6339 16.6309 25.6339C15.3622 25.6339 14.3323 26.0651 13.5663 26.8311C13.0396 27.3578 12.6084 28.0764 12.393 28.9623H20.7487V28.9618ZM25.8006 23.096H28.8171V34.5888H34.2762V37.462H28.8651C26.8778 37.462 25.8006 36.3847 25.8006 34.3974V23.096ZM34.8514 30.279C34.8514 26.3765 38.0359 23.0006 42.2498 23.0006C45.9849 23.0006 48.9055 25.6345 49.5282 28.9623H53V31.6442H49.5282C48.8815 34.9481 45.9603 37.558 42.2498 37.558C38.0119 37.5574 34.8514 34.2055 34.8514 30.279ZM42.2498 34.7322C44.7637 34.7322 46.631 32.8169 46.631 30.303C46.631 27.8131 44.7157 25.8252 42.2498 25.8252C39.7358 25.8252 37.868 27.7405 37.868 30.2784C37.868 32.7449 39.7838 34.7322 42.2498 34.7322Z" fill="white"/>
</svg>
