<svg width="60" height="60" viewBox="0 0 60 60" fill="none" xmlns="http://www.w3.org/2000/svg">
<rect width="60" height="60" rx="30" fill="#00219E"/>
<path d="M39.1234 26.6621C39.1234 20.7174 34.424 15.8353 28.4839 15.61H28.1803H28.0498C25.0917 15.61 22.4016 16.6442 20.4753 18.5278C19.9914 18.9999 19.5573 19.5218 19.1824 20.084C15.5435 24.9921 16.573 31.919 21.4811 35.558C23.386 36.9718 25.6966 37.7333 28.0688 37.7333C29.6819 37.7333 34.6138 37.2802 34.6138 42.6794C34.6138 47.3171 29.3569 47.6777 27.8173 47.6777C24.6813 47.6777 21.3317 46.3658 21.3317 42.6794V42.2904C21.3388 42.0721 21.168 41.8918 20.9498 41.8847C20.945 41.8847 20.9379 41.8847 20.9331 41.8847H17.3962C17.1779 41.8847 17 42.0626 17 42.2809V42.6723C17 45.4976 18.1173 47.8912 20.2357 49.5731C22.1596 51.1079 24.8497 51.9453 27.8102 51.9453C34.4003 51.9453 38.8909 48.3016 38.8909 42.6628C38.8909 39.5315 37.4818 37.0122 34.8581 35.3753C37.5529 33.2854 39.1281 30.0663 39.1281 26.655M34.8961 26.655C34.8937 30.4269 31.8335 33.4823 28.0617 33.4799C24.2898 33.4775 21.2344 30.4174 21.2368 26.6455C21.2368 24.8189 21.9698 23.0682 23.2722 21.7849C23.8581 21.1467 24.5911 20.658 25.4072 20.3615C28.8872 18.9026 32.8915 20.5394 34.3504 24.0195C34.7015 24.8569 34.8818 25.7536 34.8818 26.6598" fill="white"/>
<path d="M33.9448 9.81712C33.9448 10.8206 34.7585 11.6342 35.7619 11.6342H38.3429C38.7723 11.6342 39.121 11.983 39.121 12.4123V14.9933C39.121 15.9968 39.9347 16.8104 40.9381 16.8104C41.9416 16.8104 42.7553 15.9968 42.7553 14.9933V8.90619C42.7553 8.40565 42.3496 8 41.8491 8H41.8467H35.7619C34.7585 8 33.9448 8.81367 33.9448 9.81712Z" fill="#00DDFF"/>
</svg>
