<svg width="60" height="60" viewBox="0 0 60 60" fill="none" xmlns="http://www.w3.org/2000/svg">
<rect width="60" height="60" rx="30" fill="#ED1C24"/>
<path d="M29.3605 39.7408C28.1548 39.9868 26.8202 40.1391 25.6603 40.1391C19.5363 40.1391 15.6721 36.588 15.6721 29.3803C15.6721 22.7701 19.2553 19.0198 25.8593 19.0198C28.6815 19.0198 30.895 19.5012 32.8617 20.1456C33.2597 18.8909 33.5875 17.4029 33.6694 16.0789C31.574 15.3632 28.9508 15 25.8593 15C16.4332 15 11 20.2393 11 29.5443C11 38.0887 15.9532 44.1716 25.3325 44.1716C28.3538 44.1716 31.574 43.6082 33.8694 42.6826V28.3375H29.3605V39.7408Z" fill="white"/>
<path d="M43.2023 26.3105H45.4558V24.0482H43.2023V26.3105ZM38.6758 17.2623H40.939V15H38.6758V17.2623ZM38.6758 21.7859H40.939V19.5246H38.6758V21.7859ZM47.719 17.2623H49.9822V15H47.719V17.2623ZM43.2023 21.7859H45.4558V19.5246H43.2023V21.7859ZM38.6758 26.3105H40.939V24.0482H38.6758V26.3105ZM43.2023 17.2623H45.4558V15H43.2023V17.2623ZM47.719 21.7859H49.9822V19.5246H47.719V21.7859ZM47.719 26.3105H49.9822V24.0482H47.719V26.3105Z" fill="white"/>
</svg>
