<svg width="60" height="60" viewBox="0 0 60 60" fill="none" xmlns="http://www.w3.org/2000/svg">
<rect width="60" height="60" rx="30" fill="#3C4043"/>
<path fill-rule="evenodd" clip-rule="evenodd" d="M28.6033 34.5952V30.245H30.8486C31.7686 30.245 32.5451 29.9367 33.1782 29.3287L33.3301 29.1746C34.4865 27.9157 34.4105 25.9547 33.1782 24.7901C32.562 24.1736 31.7179 23.8396 30.8486 23.8567H27.2444V34.5952H28.6033ZM28.6034 28.9261V25.1754H30.8828C31.3724 25.1754 31.8367 25.3638 32.1828 25.7063C32.9173 26.4256 32.9342 27.6245 32.2251 28.3695C31.8789 28.7377 31.3893 28.9433 30.8828 28.9261H28.6034ZM39.6688 27.8214C39.0864 27.2819 38.293 27.0079 37.2885 27.0079C35.9971 27.0079 35.0264 27.4874 34.3849 28.438L35.5835 29.2001C36.0224 28.5493 36.6217 28.2239 37.3814 28.2239C37.8625 28.2239 38.3267 28.4037 38.6897 28.7291C39.0442 29.0374 39.2468 29.4827 39.2468 29.9537V30.2705C38.7234 29.9794 38.0651 29.8252 37.2548 29.8252C36.3094 29.8252 35.5497 30.0479 34.9842 30.5018C34.4187 30.9556 34.1317 31.555 34.1317 32.3172C34.1148 33.0108 34.4102 33.6702 34.9336 34.1155C35.4653 34.595 36.1406 34.8348 36.934 34.8348C37.8709 34.8348 38.6137 34.4152 39.1792 33.576H39.2383V34.595H40.5382V30.065C40.5382 29.1145 40.2512 28.3609 39.6688 27.8214ZM35.9808 33.2422C35.7022 33.0367 35.5333 32.7027 35.5333 32.343C35.5333 31.9406 35.719 31.6066 36.0821 31.3411C36.4535 31.0757 36.9178 30.9386 37.4665 30.9386C38.2263 30.9301 38.8173 31.1014 39.2394 31.4439C39.2394 32.0262 39.0114 32.5314 38.564 32.9596C38.1588 33.3706 37.6101 33.6019 37.036 33.6019C36.6561 33.6104 36.2847 33.482 35.9808 33.2422ZM43.4588 37.8235L47.9999 27.2477H46.5228L44.4211 32.5228H44.3957L42.2434 27.2477H40.7662L43.7458 34.1241L42.0577 37.8235H43.4588Z" fill="white"/>
<path d="M23.9118 29.3029C23.9118 28.8833 23.8781 28.4637 23.8106 28.0527H18.0793V30.4247H21.3628C21.2277 31.1869 20.7888 31.8719 20.1473 32.3001V33.8415H22.1055C23.2535 32.7711 23.9118 31.1869 23.9118 29.3029Z" fill="#4285F4"/>
<path d="M18.0795 35.3315C19.7169 35.3315 21.1012 34.7835 22.1057 33.8415L20.1474 32.3001C19.5988 32.6769 18.8982 32.891 18.0795 32.891C16.4926 32.891 15.1505 31.8034 14.6694 30.3477H12.6521V31.9404C13.6819 34.0213 15.7836 35.3315 18.0795 35.3315Z" fill="#34A853"/>
<path d="M14.6698 30.3477C14.4165 29.5855 14.4165 28.7549 14.6698 27.9842V26.4H12.6521C11.7826 28.1383 11.7826 30.1935 12.6521 31.9319L14.6698 30.3477Z" fill="#FBBC04"/>
<path d="M18.0795 25.4409C18.9488 25.4237 19.7845 25.7577 20.4091 26.3657L22.1479 24.6017C21.0421 23.5569 19.5903 22.9832 18.0795 23.0003C15.7836 23.0003 13.6819 24.3191 12.6521 26.4L14.6694 27.9928C15.1505 26.5284 16.4926 25.4409 18.0795 25.4409Z" fill="#EA4335"/>
</svg>
