<svg width="60" height="60" viewBox="0 0 60 60" fill="none" xmlns="http://www.w3.org/2000/svg">
<rect width="60" height="60" rx="30" fill="#F37421"/>
<path d="M7.82324 21.6103V35.1176H10.8875V29.4677H15.9199V35.1176H18.9687V21.6103H15.9199V26.8048H10.8875V21.6103H7.82324Z" fill="white"/>
<path d="M45.3504 31.1889C45.3889 30.965 45.4507 30.5097 45.4507 29.9848C45.4507 27.5612 44.2466 25.0913 41.0821 25.0913C37.6782 25.0913 36.1345 27.8391 36.1345 30.3244C36.1345 33.3886 38.041 35.3183 41.3676 35.3183C42.6875 35.3183 43.9147 35.1176 44.9181 34.7162L44.5168 32.6554C43.6986 32.9178 42.8496 33.0567 41.8076 33.0567C40.3874 33.0567 39.1447 32.4547 39.0444 31.1966H45.3504V31.1889ZM39.0135 29.1049C39.0907 28.2867 39.6155 27.1213 40.8968 27.1213C42.3016 27.1213 42.618 28.3639 42.618 29.1049H39.0135Z" fill="white"/>
<path d="M46.4231 35.1176H49.4719V30.1469C49.4719 29.9077 49.4951 29.6684 49.5337 29.4677C49.7343 28.5261 50.4985 27.924 51.6177 27.924C51.9573 27.924 52.2197 27.9626 52.4358 28.0012V25.1377C52.212 25.0991 52.073 25.0991 51.7952 25.0991C50.8535 25.0991 49.6494 25.7011 49.1477 27.1213H49.0706L48.9702 25.3152H46.3459C46.3845 26.1565 46.4231 27.0981 46.4231 28.5415V35.1176Z" fill="white"/>
<path fill-rule="evenodd" clip-rule="evenodd" d="M22.0637 21.07C22.9281 21.07 23.6305 21.7724 23.6305 22.6369C23.6305 23.5013 22.9281 24.2037 22.0637 24.2037C21.1992 24.2037 20.4968 23.5013 20.4968 22.6369C20.4968 21.7724 21.1992 21.07 22.0637 21.07Z" fill="#FFE700"/>
<path fill-rule="evenodd" clip-rule="evenodd" d="M28.5009 32.8329H30.0291C31.5651 32.8329 32.2597 31.8526 32.2597 30.8261C32.2597 29.7995 32.1826 27.484 30.2915 27.484C28.1149 27.484 28.4623 30.363 28.4777 31.8681C28.47 32.1922 28.4931 32.5164 28.5009 32.8329ZM20.4968 25.3074H23.6305V30.8338C23.6305 31.8603 24.2017 32.8406 25.4598 32.8406C25.4675 30.3552 25.4598 27.7927 25.3749 25.3074H27.9914C28.0455 25.7859 28.0995 26.2645 28.1458 26.743C29.3808 24.2731 33.2786 24.8134 34.5907 26.9051C35.9414 29.0585 36.4045 35.2333 30.0291 35.2333H28.5472C28.5626 36.4837 28.5626 37.7418 28.5626 38.9999H25.4289C25.4289 37.7958 25.4366 36.53 25.4444 35.2333C22.056 35.2179 20.4968 33.0721 20.4968 30.8338V25.3074Z" fill="white"/>
</svg>
