<svg width="60" height="60" viewBox="0 0 60 60" fill="none" xmlns="http://www.w3.org/2000/svg">
<rect width="60" height="60" rx="30" fill="#B3131B"/>
<path d="M26.6328 39.9932L7 40V39.9538C7 39.9284 7.03131 39.7637 7.06958 39.5878C7.10785 39.4119 7.16735 39.132 7.2018 38.966C7.23625 38.7999 7.29515 38.5177 7.33269 38.3388C7.37022 38.16 7.43259 37.8621 7.47128 37.6768C7.50997 37.4916 7.57058 37.1989 7.60597 37.0264C7.64136 36.854 7.70044 36.5717 7.73727 36.3993C7.77409 36.2268 7.83687 35.9289 7.87678 35.7373C7.91669 35.5457 7.97735 35.253 8.01159 35.0869C8.04583 34.9208 8.10024 34.6647 8.1325 34.5178C8.16477 34.3709 8.2059 34.1723 8.2239 34.0765C8.24191 33.9807 8.30018 33.6984 8.35339 33.4493C8.40661 33.2002 8.46535 32.918 8.48394 32.8222C8.50253 32.7264 8.56154 32.4441 8.61507 32.195C8.6686 31.9459 8.72741 31.6637 8.74576 31.5679C8.7641 31.472 8.82324 31.1898 8.87717 30.9407C8.93111 30.6916 8.98932 30.4146 9.00653 30.3252C9.02374 30.2357 9.07089 30.0058 9.11129 29.8141C9.1517 29.6225 9.22816 29.2619 9.28121 29.0128C9.33425 28.7637 9.42498 28.3299 9.48282 28.0488C9.54067 27.7678 9.60979 27.4333 9.63643 27.3055C9.66307 27.1778 9.71125 26.9478 9.74349 26.7945C9.77573 26.6412 9.83427 26.3642 9.87358 26.179C9.91289 25.9937 9.97685 25.6906 10.0157 25.5054C10.0546 25.3201 10.1145 25.0327 10.1488 24.8666C10.1831 24.7005 10.2417 24.4235 10.279 24.2511C10.3163 24.0786 10.3804 23.7755 10.4215 23.5774C10.4626 23.3794 10.5315 23.0763 10.5745 22.9038C10.6176 22.7314 10.6784 22.5223 10.7098 22.4393C10.7411 22.3562 10.8276 22.1762 10.902 22.0392L11.0373 21.7902L11.1603 21.6328C11.228 21.5462 11.3487 21.4093 11.4287 21.3287C11.5086 21.248 11.6436 21.1267 11.7285 21.059C11.8135 20.9913 11.9364 20.9 12.0018 20.856C12.0671 20.8121 12.1954 20.7351 12.2869 20.685C12.3784 20.6349 12.5067 20.5693 12.572 20.5392C12.6374 20.5092 12.771 20.4542 12.8691 20.4172C12.9671 20.3802 13.1542 20.3181 13.2849 20.2793C13.4156 20.2405 13.6609 20.182 13.83 20.1493C13.9992 20.1166 14.2665 20.0729 14.4241 20.0522L14.7106 20.0146L34.3553 20.0073L54 20V20.0462C54 20.0716 53.9685 20.2363 53.93 20.4122C53.8914 20.5881 53.8271 20.8888 53.7869 21.0804C53.7468 21.2721 53.6882 21.5491 53.6567 21.696C53.6252 21.8429 53.5656 22.1251 53.5243 22.3231C53.4829 22.5211 53.4193 22.8243 53.3829 22.9967C53.3465 23.1692 53.2875 23.4514 53.2519 23.6239C53.2163 23.7964 53.1569 24.0786 53.1201 24.2511C53.0833 24.4235 53.0261 24.6953 52.9931 24.855C52.9602 25.0147 52.9005 25.3021 52.8605 25.4937C52.8205 25.6854 52.7563 25.9885 52.7178 26.1674C52.6793 26.3462 52.6206 26.6232 52.5874 26.7829C52.5542 26.9426 52.4945 27.23 52.4546 27.4217C52.4148 27.6133 52.3507 27.9164 52.3122 28.0953C52.2737 28.2741 52.2164 28.5459 52.1847 28.6992C52.1531 28.8525 52.0936 29.14 52.0524 29.338C52.0113 29.536 51.9514 29.8234 51.9193 29.9767C51.8871 30.1301 51.8297 30.4018 51.7917 30.5807C51.7537 30.7595 51.6887 31.0679 51.6473 31.2659C51.6058 31.4639 51.5465 31.7461 51.5155 31.8931C51.4845 32.04 51.4263 32.317 51.3864 32.5086C51.3464 32.7002 51.2828 33.0034 51.2451 33.1822C51.2073 33.3611 51.1481 33.6433 51.1135 33.8094C51.0789 33.9754 51.0187 34.2629 50.9797 34.4481C50.9408 34.6334 50.8772 34.9365 50.8384 35.1217C50.7997 35.307 50.7415 35.584 50.7093 35.7373C50.677 35.8906 50.6181 36.1728 50.5782 36.3644C50.5384 36.5561 50.4737 36.858 50.4343 37.0355L50.3628 37.3582L50.2775 37.5814C50.2306 37.7041 50.1602 37.8673 50.1209 37.9439C50.0817 38.0206 50.0017 38.1558 49.9432 38.2445C49.8848 38.3331 49.8033 38.4467 49.7621 38.4969C49.721 38.547 49.5971 38.6766 49.4869 38.7847L49.2865 38.9814L49.0937 39.1153C48.9876 39.189 48.8734 39.264 48.8398 39.2819C48.8062 39.2997 48.6785 39.3635 48.5558 39.4235C48.4332 39.4836 48.26 39.5599 48.1709 39.5933C48.0819 39.6266 47.9054 39.6834 47.7789 39.7194C47.6523 39.7555 47.5167 39.7909 47.4775 39.7983C47.4383 39.8056 47.3022 39.8331 47.1751 39.8594C47.0479 39.8858 46.7913 39.9251 46.6048 39.9468L46.2657 39.9863L26.6328 39.9932ZM19.6478 35.0288H20.1587L20.1731 34.9921C20.1811 34.9719 20.1876 34.9244 20.1876 34.8865C20.1876 34.8487 20.2044 34.711 20.225 34.5806C20.2456 34.4503 20.2939 34.1502 20.3323 33.9139C20.3708 33.6775 20.4284 33.3222 20.4603 33.1241C20.4922 32.9261 20.5312 32.6726 20.5469 32.5609C20.5626 32.4491 20.5817 32.3576 20.5894 32.3576C20.5972 32.3576 20.6302 32.407 20.6628 32.4674L20.7222 32.5771L20.8539 32.7069L20.9856 32.8366L21.1478 32.9001L21.3099 32.9635L21.5032 32.988L21.6964 33.0125L21.9417 32.9978L22.187 32.9831L22.4526 32.9159L22.7181 32.8487L22.8607 32.7851C22.9391 32.7501 23.0781 32.6738 23.1696 32.6156L23.3359 32.5097L23.491 32.3581C23.5763 32.2748 23.6966 32.1412 23.7583 32.0612C23.8201 31.9812 23.8706 31.9099 23.8706 31.9028C23.8706 31.8956 23.9009 31.8461 23.938 31.7927C23.975 31.7393 24.0509 31.5911 24.1065 31.4633C24.1622 31.3356 24.2492 31.1056 24.2998 30.9523L24.3919 30.6736L24.4395 30.4321C24.4657 30.2993 24.4994 30.0798 24.5144 29.9444L24.5416 29.698L24.5259 29.489L24.5101 29.2799L24.4605 29.0709L24.411 28.8618L24.3307 28.7053L24.2504 28.5488L24.0954 28.3881L23.9404 28.2274L23.757 28.1348L23.5736 28.0421L23.3716 27.9948L23.1696 27.9476L22.9676 27.9331L22.7657 27.9186L22.5407 27.9439L22.3157 27.9691L22.1321 28.015L21.9484 28.0608L21.7889 28.133C21.7012 28.1727 21.5735 28.2401 21.5052 28.2828C21.4369 28.3255 21.3664 28.3747 21.3486 28.392C21.3308 28.4094 21.2882 28.4415 21.2538 28.4634L21.1915 28.5033L21.2351 28.2993C21.2591 28.1871 21.2791 28.0822 21.2796 28.0662L21.2806 28.0372H20.845H20.4093L20.3329 28.5076C20.2909 28.7663 20.2246 29.1661 20.1855 29.396C20.1465 29.626 20.0876 29.9709 20.0546 30.1626C20.0217 30.3542 19.963 30.6939 19.9241 30.9175C19.8852 31.141 19.821 31.4964 19.7814 31.7072C19.7417 31.918 19.6836 32.2264 19.6523 32.3925C19.6209 32.5585 19.562 32.8721 19.5212 33.0893C19.4804 33.3065 19.4149 33.6514 19.3756 33.8558C19.3364 34.0602 19.2724 34.3843 19.2335 34.5759C19.1947 34.7675 19.157 34.9478 19.1499 34.9766L19.1369 35.0288H19.6478ZM21.8473 32.3432L21.6489 32.3549L21.5192 32.3325L21.3895 32.3102L21.2578 32.2514L21.1261 32.1926L21.0341 32.1067L20.9421 32.0208L20.889 31.9047C20.8598 31.8408 20.8223 31.7323 20.8056 31.6635L20.7754 31.5385L20.7875 31.3383L20.7996 31.1381L20.8608 30.8246C20.8945 30.6521 20.955 30.3281 20.9952 30.1045C21.0354 29.8809 21.0963 29.5534 21.1305 29.3765L21.1927 29.0551L21.3289 28.9443C21.4039 28.8833 21.5225 28.8016 21.5927 28.7627L21.7202 28.692L21.8865 28.6417L22.0528 28.5914L22.2667 28.5791L22.4805 28.5668L22.6547 28.6031L22.8288 28.6394L22.9517 28.6947L23.0746 28.75L23.1776 28.8513L23.2807 28.9526L23.3363 29.0598C23.3668 29.1188 23.4098 29.2343 23.4317 29.3164L23.4715 29.4657L23.4593 29.9071L23.4471 30.3484L23.3861 30.6093C23.3525 30.7527 23.2886 30.9722 23.2441 31.097L23.1632 31.324L23.064 31.5077C23.0095 31.6087 22.9254 31.7452 22.8772 31.8111C22.8289 31.8769 22.752 31.9622 22.7063 32.0006C22.6605 32.039 22.5839 32.099 22.536 32.1339L22.449 32.1975L22.2473 32.2645L22.0457 32.3316L21.8473 32.3432ZM26.7813 32.9818L27.0427 32.9847L27.3041 32.9614C27.4479 32.9486 27.6831 32.9219 27.8268 32.9021C27.9706 32.8823 28.2189 32.838 28.3787 32.8037L28.6692 32.7412L28.6837 32.6365C28.6916 32.5789 28.7242 32.4075 28.7562 32.2556L28.8142 31.9794L28.8014 31.9669L28.7886 31.9544L28.6998 31.9963C28.6509 32.0194 28.4988 32.0744 28.3617 32.1186L28.1124 32.1989L27.8508 32.2484L27.5892 32.298L27.1734 32.2987L26.7576 32.2995L26.615 32.255C26.5366 32.2305 26.4213 32.1858 26.3587 32.1555L26.245 32.1005L26.1511 32.0176L26.0573 31.9347L25.9841 31.8096L25.9108 31.6844L25.8649 31.5275L25.819 31.3706L25.8187 31.0801L25.8184 30.7897L25.8591 30.5306L25.8999 30.2715L26.2574 30.2552L26.615 30.2389L27.9368 30.2472L29.2585 30.2555L29.2984 30.09C29.3204 29.999 29.3539 29.8108 29.373 29.6719L29.4077 29.4193L29.4084 29.2068L29.4091 28.9943L29.3715 28.8356L29.3339 28.677L29.2716 28.572C29.2374 28.5142 29.1771 28.4305 29.1376 28.3859C29.0981 28.3413 29.0277 28.2785 28.981 28.2463C28.9343 28.2141 28.8426 28.1599 28.7773 28.126L28.6585 28.0642L28.4509 28.0153L28.2433 27.9664L27.9876 27.9425L27.7318 27.9186L27.4942 27.9337L27.2566 27.9488L26.9714 28.0024L26.6863 28.0559L26.5081 28.1255C26.4101 28.1638 26.2604 28.2337 26.1754 28.2808C26.0905 28.3279 25.9729 28.4045 25.9141 28.4511C25.8552 28.4977 25.7534 28.5882 25.6878 28.6523C25.6221 28.7164 25.525 28.8316 25.472 28.9082C25.419 28.9849 25.3377 29.1208 25.2914 29.2102C25.245 29.2996 25.1846 29.4251 25.1572 29.4889C25.1297 29.5528 25.0798 29.6835 25.0463 29.7793C25.0128 29.8751 24.9601 30.058 24.9292 30.1858C24.8983 30.3135 24.856 30.5238 24.8352 30.6531L24.7973 30.8882L24.7976 31.2338L24.798 31.5795L24.8341 31.7305C24.854 31.8135 24.8919 31.9389 24.9185 32.0092C24.945 32.0795 24.9941 32.184 25.0276 32.2415C25.0611 32.299 25.1325 32.3915 25.1864 32.4472C25.2403 32.5028 25.3378 32.5872 25.4032 32.6348C25.4685 32.6823 25.5849 32.7492 25.6617 32.7834L25.8014 32.8456L25.9962 32.8916C26.1033 32.9169 26.265 32.9469 26.3555 32.9583C26.4459 32.9696 26.6376 32.9802 26.7813 32.9818ZM27.2289 29.7096C26.5711 29.7096 26.0329 29.705 26.0329 29.6994C26.0329 29.6938 26.0609 29.6128 26.0952 29.5194C26.1295 29.426 26.1898 29.287 26.2291 29.2105L26.3006 29.0714L26.4578 28.9186L26.615 28.7658L26.7695 28.6936C26.8544 28.6539 26.9667 28.6106 27.019 28.5975C27.0712 28.5844 27.2209 28.5669 27.3516 28.5588L27.5892 28.5439L27.7717 28.5668L27.9542 28.5898L28.0868 28.6491L28.2194 28.7085L28.2921 28.7851C28.3321 28.8273 28.3798 28.8894 28.3981 28.9231L28.4313 28.9845L28.4532 29.1206L28.4751 29.2567L28.4501 29.4832L28.425 29.7096H27.2289ZM34.3376 32.9819L34.5991 32.9848L34.896 32.9504C35.0593 32.9315 35.2766 32.9001 35.379 32.8807C35.4814 32.8613 35.6471 32.8228 35.7473 32.7951C35.8475 32.7675 35.9381 32.7376 35.9487 32.7287C35.9593 32.7198 35.9876 32.6144 36.0117 32.4944C36.0357 32.3745 36.0659 32.2136 36.0789 32.1369C36.0918 32.0603 36.0985 31.9935 36.0937 31.9885C36.089 31.9834 36.0714 31.9899 36.0548 32.0029C36.0381 32.0158 35.9216 32.0637 35.7957 32.1094L35.5669 32.1925L35.2411 32.2542L34.9153 32.3159L34.6382 32.3067L34.3612 32.2974L34.2039 32.2441L34.0465 32.1908L33.9249 32.0868L33.8034 31.9828L33.7227 31.8392L33.642 31.6956L33.6036 31.5035L33.5652 31.3114L33.5655 31.0622L33.5657 30.813L33.6124 30.511L33.6591 30.209L33.7084 30.0464C33.7356 29.957 33.7663 29.8525 33.7767 29.8141C33.7871 29.7758 33.8307 29.6661 33.8736 29.5703C33.9164 29.4744 33.9929 29.3264 34.0435 29.2412L34.1355 29.0863L34.2484 28.9719L34.3614 28.8575L34.481 28.7849L34.6006 28.7124L34.7543 28.6661C34.8388 28.6407 34.9881 28.6077 35.0861 28.5927L35.2643 28.5656L35.5257 28.5784L35.7871 28.5912L36.096 28.6517L36.4049 28.7121L36.5305 28.7579C36.5996 28.7831 36.6592 28.8037 36.6629 28.8037C36.6665 28.8037 36.6831 28.7175 36.6997 28.6121C36.7162 28.5067 36.7457 28.3333 36.7652 28.2268C36.7847 28.1202 36.7959 28.0285 36.7902 28.0229C36.7844 28.0173 36.6916 28.0029 36.5838 27.9908C36.4761 27.9788 36.1832 27.9575 35.9331 27.9434L35.4782 27.9179L35.1574 27.9419L34.8366 27.966L34.599 28.0148L34.3614 28.0636L34.2084 28.1235C34.1242 28.1564 34.0009 28.2158 33.9344 28.2554C33.8679 28.2951 33.7833 28.3485 33.7463 28.374C33.7093 28.3996 33.5972 28.4993 33.4971 28.5955L33.3151 28.7706L33.2135 28.9161C33.1576 28.9961 33.061 29.163 32.9987 29.2869L32.8855 29.5122L32.7987 29.7561C32.751 29.8902 32.6844 30.1097 32.6507 30.2439L32.5894 30.4878L32.5671 30.7084L32.5449 30.9291L32.5451 31.2194L32.5453 31.5098L32.5678 31.6787L32.5902 31.8476L32.6614 32.0214L32.7326 32.1951L32.8148 32.3207L32.897 32.4463L33.0277 32.5721L33.1584 32.6979L33.2967 32.7693L33.4349 32.8407L33.6166 32.8901C33.7165 32.9172 33.8609 32.9483 33.9374 32.9592C34.0139 32.9702 34.1942 32.9804 34.338 32.9819H34.3376ZM38.2462 32.9734L38.567 32.9644L38.769 32.9138L38.9709 32.8633L39.1016 32.8029C39.1735 32.7697 39.2911 32.7041 39.363 32.6572C39.4349 32.6103 39.5461 32.521 39.6102 32.4589C39.6743 32.3968 39.7694 32.2908 39.8215 32.2234C39.8736 32.156 39.9193 32.1039 39.9231 32.1077C39.927 32.1114 39.915 32.2189 39.8965 32.3464C39.878 32.4739 39.8627 32.6436 39.8624 32.7235L39.862 32.8686H40.2981H40.7342L40.7475 32.5376L40.7608 32.2066L40.8231 31.7769C40.8573 31.5406 40.9126 31.1904 40.9459 30.9988C40.9792 30.8071 41.0372 30.4831 41.0747 30.2787C41.1122 30.0743 41.1716 29.7555 41.2067 29.5703L41.2705 29.2335L41.2726 28.9425L41.2747 28.6516L41.2075 28.5171L41.1402 28.3827L41.0489 28.2971L40.9577 28.2114L40.8078 28.1372L40.658 28.063L40.4347 28.0144L40.2115 27.9659L39.904 27.943L39.5966 27.9202L39.2006 27.9441C38.9828 27.9573 38.6763 27.9833 38.5195 28.0019L38.2344 28.0358L38.04 28.0365L37.8457 28.0372L37.8174 28.1708C37.8019 28.2442 37.7587 28.4187 37.7214 28.5586C37.6841 28.6984 37.6571 28.8162 37.6613 28.8204C37.6655 28.8245 37.7695 28.8014 37.8923 28.7691C38.0151 28.7368 38.2759 28.6837 38.472 28.6511L38.8284 28.5917L39.1492 28.5788L39.4699 28.5659L39.6766 28.6013L39.8832 28.6367L40.0211 28.7032L40.159 28.7698L40.2363 28.8823L40.3135 28.9948L40.3124 29.1722L40.3113 29.3496L40.2704 29.5442L40.2294 29.7389L39.3744 29.7419L38.5195 29.7449L38.2397 29.8199C38.0858 29.8612 37.9153 29.916 37.861 29.9416C37.8066 29.9673 37.7522 29.9884 37.7401 29.9884C37.728 29.9884 37.6364 30.038 37.5366 30.0986L37.3552 30.2089L37.2123 30.3483C37.1337 30.425 37.0333 30.54 36.9891 30.6039C36.945 30.6678 36.8733 30.8012 36.8298 30.9004L36.7507 31.0808L36.7144 31.2837L36.6781 31.4866V31.6994V31.9122L36.7128 32.0894L36.7475 32.2666L36.8118 32.3821C36.8472 32.4457 36.9122 32.5388 36.9561 32.589L37.0361 32.6804L37.1782 32.7648L37.3204 32.8492L37.483 32.8942C37.5725 32.9189 37.7087 32.9489 37.7857 32.9607L37.9256 32.9823L38.2464 32.9733L38.2462 32.9734ZM38.5432 32.3238L38.3531 32.3335L38.2272 32.3022C38.158 32.2849 38.0529 32.2465 37.9937 32.2168L37.8862 32.1627L37.8274 32.0944C37.7951 32.0569 37.7458 31.9832 37.7178 31.9306L37.6669 31.835L37.6569 31.6117L37.6469 31.3884L37.6872 31.253C37.7093 31.1785 37.7613 31.0492 37.8027 30.9657L37.8779 30.8139L38.022 30.6741L38.166 30.5342L38.319 30.4622L38.4719 30.3902L38.662 30.3461L38.8521 30.3019H39.4462H40.0402L40.0778 30.3171L40.1154 30.3323L40.0837 30.5146C40.0663 30.6148 40.0248 30.7961 39.9915 30.9175C39.9582 31.0388 39.8994 31.2173 39.8608 31.3139C39.8223 31.4106 39.7907 31.4961 39.7907 31.5039C39.7907 31.5117 39.7516 31.5822 39.7039 31.6605L39.6171 31.8029L39.4747 31.9409C39.3963 32.0168 39.3235 32.0789 39.313 32.0789C39.3024 32.0789 39.2544 32.105 39.2062 32.137L39.1187 32.1951L38.926 32.2546L38.7333 32.3142L38.5432 32.3238ZM46.2776 32.9817L46.5033 32.9844L46.7171 32.9505C46.8348 32.9318 46.9845 32.9018 47.0498 32.8837C47.1151 32.8656 47.2328 32.8187 47.3112 32.7794L47.4537 32.708L47.5764 32.6025L47.699 32.497L47.8282 32.3286C47.8992 32.236 47.9636 32.1445 47.9712 32.1253L47.985 32.0905L47.973 32.2066C47.9664 32.2705 47.9516 32.375 47.9401 32.4389C47.9286 32.5028 47.9121 32.6256 47.9035 32.7118L47.8878 32.8686H48.3539H48.82V32.7118V32.5551L48.891 31.9627C48.9301 31.637 48.9879 31.2032 49.0194 30.9988C49.0509 30.7944 49.0996 30.5017 49.1275 30.3484C49.1555 30.1951 49.205 29.9181 49.2376 29.7329C49.2701 29.5476 49.3289 29.2236 49.3682 29.0128C49.4076 28.802 49.4705 28.4675 49.5081 28.2695C49.5457 28.0715 49.6041 27.7631 49.6379 27.5843C49.6717 27.4054 49.7323 27.0918 49.7726 26.8874C49.8128 26.683 49.8716 26.3956 49.9032 26.2487C49.9348 26.1017 49.9606 25.9737 49.9605 25.9641V25.9467H49.452H48.9435L48.9284 26.0919C48.9202 26.1717 48.8812 26.4356 48.8419 26.6784C48.8026 26.9211 48.7385 27.3079 48.6995 27.5378C48.6605 27.7678 48.6228 27.9908 48.6159 28.0333L48.6032 28.1108L48.5631 28.0941C48.541 28.0849 48.4214 28.0525 48.2972 28.022L48.0715 27.9666L47.7626 27.9431L47.4537 27.9196L47.1923 27.9434L46.9309 27.9672L46.6933 28.0259L46.4557 28.0846L46.23 28.1922L46.0043 28.2999L45.8379 28.4202L45.6716 28.5406L45.528 28.6912C45.4489 28.774 45.3348 28.9109 45.2743 28.9955L45.1643 29.1493L45.0352 29.4121C44.9641 29.5566 44.8777 29.748 44.8431 29.8374C44.8085 29.9268 44.7474 30.125 44.7074 30.2779L44.6347 30.5558L44.5988 30.9167L44.563 31.2775L44.5899 31.5679L44.6168 31.8582L44.6486 31.9627C44.6661 32.0202 44.703 32.1227 44.7306 32.1904L44.7808 32.3134L44.8722 32.4345L44.9637 32.5555L45.0682 32.6392L45.1726 32.7228L45.3152 32.792C45.3936 32.83 45.5251 32.8792 45.6075 32.9013C45.6898 32.9233 45.8235 32.9498 45.9045 32.9601C45.9855 32.9704 46.1534 32.9801 46.2775 32.9817H46.2776ZM46.6827 32.3226L46.5033 32.332L46.3822 32.3106C46.3156 32.2989 46.209 32.2675 46.1454 32.2408L46.0296 32.1923L45.9322 32.1143L45.8348 32.0363L45.7625 31.9008L45.6901 31.7653L45.6571 31.6143L45.6241 31.4633L45.6269 31.1614L45.6297 30.8594L45.668 30.5923L45.7063 30.3252L45.7658 30.1393C45.7986 30.0371 45.8255 29.9407 45.8257 29.9251C45.826 29.9094 45.8583 29.8258 45.8976 29.7392C45.9369 29.6527 46.0026 29.5192 46.0435 29.4425C46.0845 29.3659 46.1611 29.2464 46.2137 29.177C46.2663 29.1076 46.3601 29.003 46.422 28.9447C46.484 28.8863 46.5826 28.8098 46.6411 28.7746L46.7474 28.7106L46.9342 28.6474L47.1211 28.5842L47.5131 28.584H47.9052L48.1309 28.6452C48.2551 28.6789 48.3869 28.7179 48.4239 28.732L48.4911 28.7575L48.478 28.8213C48.4707 28.8563 48.4425 29.0105 48.4152 29.1638C48.3879 29.3171 48.3341 29.6097 48.2957 29.8141C48.2572 30.0186 48.1982 30.3269 48.1644 30.4994C48.1307 30.6718 48.0818 30.8913 48.0558 30.9872C48.0298 31.083 47.9931 31.2157 47.9743 31.2821C47.9554 31.3485 47.9106 31.4635 47.8746 31.5376C47.8386 31.6117 47.7757 31.7194 47.7347 31.7769C47.6938 31.8344 47.6245 31.914 47.5808 31.9539C47.537 31.9937 47.4425 32.0645 47.3706 32.1112L47.2399 32.1961L47.051 32.2547L46.8621 32.3133L46.6827 32.3226ZM11.7118 32.8686H12.2892L12.3306 32.6189C12.3534 32.4816 12.3979 32.2177 12.4295 32.0324C12.4611 31.8472 12.5199 31.5022 12.5602 31.2659C12.6004 31.0296 12.6608 30.6794 12.6944 30.4878C12.7279 30.2961 12.7811 29.9989 12.8127 29.8272C12.8443 29.6555 12.8761 29.5091 12.8835 29.502L12.8968 29.489H14.4492H16.0016L16.0188 29.5058L16.0361 29.5226L16.0091 29.6568C15.9943 29.7306 15.9505 29.9582 15.9118 30.1626C15.8731 30.367 15.808 30.7119 15.7672 30.9291C15.7263 31.1463 15.6673 31.4546 15.6359 31.6143C15.6046 31.774 15.5412 32.1085 15.495 32.3576C15.4489 32.6067 15.4112 32.8236 15.4113 32.8396L15.4115 32.8686H15.9913H16.571L16.5966 32.7235C16.6107 32.6436 16.6334 32.4999 16.6471 32.4041C16.6607 32.3083 16.6936 32.1044 16.7201 31.9511C16.7467 31.7978 16.7997 31.4947 16.838 31.2775C16.8762 31.0603 16.9403 30.6893 16.9803 30.4529C17.0203 30.2166 17.0797 29.8716 17.1122 29.6864C17.1448 29.5012 17.2028 29.1876 17.2411 28.9896C17.2795 28.7915 17.3433 28.4571 17.383 28.2463C17.4227 28.0355 17.4822 27.7167 17.5152 27.5378C17.5482 27.359 17.6084 27.0349 17.6489 26.8177C17.6894 26.6006 17.7406 26.3471 17.7627 26.2545L17.8027 26.0861H17.2157H16.6288L16.6128 26.1964C16.604 26.2571 16.5757 26.4269 16.5498 26.5738C16.5239 26.7208 16.4768 26.9821 16.4452 27.1545C16.4135 27.327 16.3557 27.6563 16.3166 27.8862C16.2776 28.1162 16.2278 28.4206 16.2061 28.5627L16.1665 28.821L15.3048 28.8381L14.4432 28.8551L13.7215 28.8384C13.3245 28.8292 12.9976 28.8198 12.9949 28.8176C12.9922 28.8154 13.0057 28.7251 13.0249 28.617C13.0441 28.5089 13.0805 28.3212 13.1057 28.1998C13.1309 28.0784 13.1787 27.838 13.2119 27.6656C13.2451 27.4931 13.2827 27.2788 13.2955 27.1894C13.3082 27.1 13.335 26.951 13.3549 26.8584C13.3749 26.7658 13.4127 26.5707 13.439 26.4248C13.4653 26.279 13.4933 26.1431 13.5013 26.1229L13.5157 26.0861H12.9335H12.3513L12.314 26.2893C12.2935 26.4011 12.2661 26.5605 12.2532 26.6435C12.2403 26.7266 12.1969 26.9931 12.1568 27.2358C12.1167 27.4786 12.0576 27.8392 12.0253 28.0372C11.9931 28.2352 11.9344 28.5958 11.8948 28.8386C11.8553 29.0813 11.7901 29.4576 11.7499 29.6748C11.7097 29.892 11.6516 30.2003 11.6206 30.36C11.5897 30.5197 11.5308 30.8228 11.4897 31.0336C11.4486 31.2444 11.3887 31.5423 11.3565 31.6956C11.3243 31.8489 11.2887 32.0266 11.2774 32.0905C11.2661 32.1544 11.2293 32.3386 11.1957 32.4999C11.162 32.6612 11.1345 32.8101 11.1345 32.8309V32.8686H11.7118ZM18.1031 32.8686H18.6142L18.6286 32.8319C18.6366 32.8117 18.6431 32.7587 18.6431 32.7141C18.6431 32.6695 18.6752 32.4378 18.7145 32.1992C18.7538 31.9605 18.8187 31.5719 18.8587 31.3356C18.8988 31.0992 18.9579 30.7543 18.9901 30.5691C19.0224 30.3838 19.0797 30.0755 19.1175 29.8838C19.1554 29.6922 19.2135 29.3943 19.2466 29.2218C19.2798 29.0494 19.345 28.7212 19.3915 28.4927C19.438 28.2641 19.4819 28.0679 19.489 28.0567L19.5019 28.0363L18.985 28.0426L18.4682 28.0488L18.4251 28.3508C18.4014 28.5169 18.3497 28.8461 18.3101 29.0825C18.2705 29.3188 18.2106 29.6794 18.177 29.8838C18.1434 30.0882 18.0848 30.4175 18.0468 30.6155C18.0088 30.8135 17.9505 31.1167 17.9173 31.2891C17.8842 31.4616 17.8246 31.7647 17.785 31.9627C17.7454 32.1608 17.6923 32.4221 17.6669 32.5434C17.6416 32.6648 17.6144 32.7876 17.6064 32.8164L17.592 32.8686H18.1031ZM30.0569 32.8686H30.5642L30.5794 32.6588C30.5878 32.5434 30.6165 32.3108 30.6432 32.142C30.6699 31.9731 30.7246 31.6364 30.7647 31.3937C30.8049 31.1509 30.8794 30.7469 30.9305 30.4958C30.9815 30.2448 31.0392 29.9952 31.0586 29.9412C31.0781 29.8873 31.094 29.8288 31.094 29.8113C31.094 29.7938 31.1322 29.6985 31.1788 29.5994C31.2254 29.5003 31.3123 29.3486 31.3719 29.2623L31.4802 29.1053L31.6251 28.9741L31.7701 28.8429L31.9489 28.7594L32.1277 28.676L32.4009 28.6774L32.6742 28.6788L32.8085 28.718C32.8824 28.7396 32.9492 28.7573 32.957 28.7573C32.9648 28.7573 32.9712 28.7326 32.9712 28.7024C32.9712 28.6722 32.9979 28.5192 33.0306 28.3624C33.0633 28.2056 33.09 28.0706 33.09 28.0626C33.09 28.0545 33.0125 28.0248 32.9177 27.9967C32.823 27.9685 32.692 27.939 32.6266 27.9311L32.5078 27.9168L32.3534 27.9435C32.2684 27.9581 32.1421 27.9906 32.0727 28.0155C32.0033 28.0405 31.8886 28.097 31.8179 28.1412C31.7473 28.1854 31.6373 28.2716 31.5736 28.3326C31.5099 28.3937 31.4028 28.5169 31.3355 28.6063C31.2682 28.6957 31.1979 28.7898 31.1792 28.8153L31.1452 28.8618L31.1658 28.7689C31.1772 28.7178 31.2088 28.5505 31.2362 28.3972C31.2635 28.2439 31.2915 28.1002 31.2985 28.0778L31.3111 28.0372H30.858H30.405V28.0932C30.405 28.124 30.3782 28.3095 30.3455 28.5055C30.3128 28.7015 30.259 29.029 30.2258 29.2334C30.1926 29.4378 30.1337 29.7932 30.0949 30.0232C30.0561 30.2531 29.9972 30.5824 29.9639 30.7549C29.9307 30.9273 29.8718 31.2305 29.8329 31.4285C29.7941 31.6265 29.7295 31.9505 29.6895 32.1485C29.6495 32.3466 29.6017 32.5804 29.5832 32.6682C29.5647 32.756 29.5495 32.837 29.5495 32.8482V32.8686L30.0569 32.8686ZM42.0996 32.8686H42.6183V32.7134V32.5583L42.6781 32.1734C42.711 31.9617 42.7652 31.6265 42.7986 31.4285C42.832 31.2305 42.8737 30.9796 42.8912 30.871C42.9087 30.7624 42.955 30.5272 42.9942 30.3484C43.0333 30.1695 43.0822 29.9762 43.1029 29.9187C43.1235 29.8612 43.1405 29.8009 43.1407 29.7846C43.1409 29.7684 43.1851 29.664 43.239 29.5527L43.3369 29.3503L43.4661 29.1825L43.5952 29.0147L43.7366 28.9108C43.8144 28.8537 43.9394 28.7779 44.0144 28.7423L44.1509 28.6777L44.4479 28.6797L44.7449 28.6817L44.8619 28.7184L44.9788 28.7551L44.9985 28.7432L45.0182 28.7313L45.0192 28.6572C45.0197 28.6164 45.0452 28.4648 45.0757 28.3201L45.1312 28.0572L45.0688 28.0333C45.0344 28.0201 44.9529 27.9929 44.8875 27.9728L44.7687 27.9362L44.5549 27.9367L44.341 27.9373L44.1667 27.9972L43.9924 28.0572L43.8616 28.1343L43.7307 28.2114L43.5606 28.3856L43.3905 28.5598L43.2991 28.695C43.2488 28.7693 43.2045 28.8268 43.2007 28.8227C43.1969 28.8187 43.2242 28.6638 43.2614 28.4785C43.2986 28.2933 43.3296 28.1182 43.3301 28.0895L43.3311 28.0372H42.8916H42.452V28.052C42.452 28.0602 42.4301 28.2091 42.4033 28.383C42.3765 28.5569 42.3227 28.8926 42.2838 29.1289C42.2448 29.3653 42.1809 29.7468 42.1418 29.9768C42.1026 30.2067 42.0436 30.536 42.0106 30.7084C41.9776 30.8809 41.919 31.184 41.8804 31.382C41.8417 31.5801 41.7783 31.8989 41.7393 32.0905C41.7004 32.2821 41.6488 32.5356 41.6247 32.6538L41.5809 32.8686L42.0996 32.8686ZM19.1081 27.2005L19.2524 27.201L19.3671 27.1628L19.4818 27.1246L19.5833 27.024L19.6848 26.9233L19.7382 26.7892L19.7917 26.6551L19.7936 26.4577L19.7955 26.2603L19.748 26.1832L19.7005 26.1061L19.6177 26.056L19.535 26.0059H19.3563L19.1777 26.0059L19.0561 26.0592L18.9345 26.1124L18.8639 26.1863L18.7933 26.2603L18.7378 26.388L18.6824 26.5158L18.6719 26.7148L18.6614 26.9138L18.7131 27.0127L18.7647 27.1116L18.8643 27.1558L18.9639 27.2L19.1081 27.2005Z" fill="white"/>
</svg>
