<svg width="60" height="60" viewBox="0 0 60 60" fill="none" xmlns="http://www.w3.org/2000/svg">
<rect width="60" height="60" rx="30" fill="#EA1D2C"/>
<path fill-rule="evenodd" clip-rule="evenodd" d="M10.0394 21.2984H11.6278L11.8848 20H10.2958L10.0389 21.2979L10.0394 21.2984ZM9 26.4901H10.6L11.4873 21.9996H9.89936L9 26.4906V26.4901ZM12.8303 27.7539H11.2308L12.1999 22.9H11.6509L11.826 21.9996H12.3866C12.7018 20.7835 13.5896 20 14.8739 20C15.2593 20 15.6563 20.0703 16.0066 20.1872L15.8199 21.1343C15.4927 20.9822 15.1539 20.9471 14.7921 20.9471C14.1964 20.9471 14.0684 21.3918 13.9981 21.7777L13.963 21.988H15.1539L14.9672 22.8884H13.7994L12.8303 27.7539ZM16.2867 26.5955C18.1787 26.5955 19.4866 24.8413 19.4866 23.4029C19.4866 22.3625 18.5175 21.9062 17.5945 21.9062C15.5278 21.9062 14.3951 23.8009 14.3951 25.0988C14.3951 26.1277 15.3758 26.5955 16.2867 26.5955ZM24.5319 23.4029C24.5319 24.8413 23.2241 26.5955 21.332 26.5955C20.4211 26.5955 19.4404 26.1277 19.4404 25.0988C19.4404 23.8009 20.5732 21.9062 22.6399 21.9062C23.5628 21.9062 24.5319 22.3625 24.5319 23.4029ZM27.112 26.4906H28.701L30.0199 20H28.4204L27.9998 21.9996C27.7889 21.9526 27.5735 21.9292 27.3574 21.9298C25.7926 21.9298 24.3683 23.9645 24.3683 25.4145C24.3683 26.0113 24.7538 26.596 25.3962 26.596C26.3186 26.596 26.9484 26.1398 27.2174 25.7071H27.3108L27.112 26.4906ZM17.7702 31.2968C19.464 31.4022 21.0284 30.8878 22.1962 29.8704L22.675 31.2271L23.3641 27.7534L20.1526 27.7418L21.2386 28.572C20.2811 29.5196 18.518 30.1861 17.0817 30.022C15.6102 29.8584 14.4308 28.8525 13.952 27.7534H13.8471C14.1502 29.4724 15.6332 31.1683 17.7702 31.2968Z" fill="white"/>
<path fill-rule="evenodd" clip-rule="evenodd" d="M34.2985 39.8867C34.3809 39.8867 34.4218 39.8458 34.4218 39.7645V35.5289C34.4218 35.4471 34.3809 35.4062 34.2985 35.4062H33.3399C33.2581 35.4062 33.2172 35.4471 33.2172 35.5289V39.7635C33.2172 39.8453 33.2581 39.8862 33.3399 39.8862H34.2985V39.8867ZM34.9934 33.931C34.9926 33.9055 34.9833 33.881 34.9672 33.8613L34.5361 33.1628C34.5125 33.1276 34.4837 33.1103 34.448 33.1103C34.4167 33.1092 34.3859 33.1184 34.3604 33.1365L32.9529 34.1932C32.9115 34.2341 32.891 34.2661 32.891 34.2892C32.891 34.3065 32.8999 34.3301 32.9172 34.3589L33.2162 34.8309C33.2263 34.8474 33.2406 34.8609 33.2576 34.8701C33.2747 34.8794 33.2938 34.8839 33.3132 34.8833C33.3378 34.8844 33.3623 34.8782 33.3834 34.8655L34.9226 34.027C34.9698 33.9981 34.9934 33.9662 34.9934 33.931ZM31.1773 39.7645C31.1773 39.8458 31.1363 39.8867 31.054 39.8867H30.1048C30.0225 39.8867 29.9811 39.8458 29.9811 39.7645V36.4723H29.1987C29.1163 36.4723 29.0754 36.4314 29.0754 36.3501V35.5294C29.0754 35.4476 29.1163 35.4072 29.1987 35.4072H29.9811V35.2756C29.9811 34.7633 30.1599 34.3353 30.5175 33.9918C30.8752 33.6426 31.4526 33.4187 32.2502 33.3196L32.3907 33.3106C32.4259 33.3106 32.4495 33.3196 32.461 33.3369C32.4788 33.3542 32.4904 33.3862 32.4961 33.4328L32.5753 34.2451V34.2624C32.5753 34.3264 32.537 34.3642 32.461 34.3762C32.1097 34.4166 31.8396 34.478 31.6518 34.5598C31.4646 34.6353 31.3382 34.7313 31.2743 34.8477C31.2092 34.9641 31.1773 35.1125 31.1773 35.2934V35.4067H32.4086C32.4904 35.4067 32.5313 35.4471 32.5313 35.5289V36.3496C32.5313 36.4309 32.4904 36.4718 32.4086 36.4718H31.1773V39.764V39.7645ZM9.12271 39.8867C9.0409 39.8867 9 39.8458 9 39.7645V33.7034C9 33.6221 9.0409 33.5812 9.12271 33.5812H11.4354C12.1391 33.5812 12.6782 33.7328 13.0537 34.0354C13.4292 34.338 13.6164 34.7517 13.6164 35.2756C13.6164 35.5724 13.5314 35.8341 13.3615 36.0612C13.1916 36.2882 12.9572 36.4629 12.6583 36.5856C13.0332 36.6957 13.3232 36.885 13.5288 37.153C13.7333 37.4204 13.8366 37.7377 13.8366 38.1048C13.8366 38.4656 13.7454 38.7797 13.5639 39.0477C13.382 39.3151 13.1156 39.5223 12.7637 39.6675C12.4176 39.8133 11.998 39.8862 11.5062 39.8862H9.12271V39.8867ZM11.4354 36.1582C11.7112 36.1582 11.9283 36.0848 12.0867 35.9395C12.2508 35.7942 12.3331 35.6138 12.3331 35.3983C12.3331 35.177 12.2566 35.0024 12.104 34.8739C11.9519 34.746 11.729 34.682 11.4359 34.682H10.2565V36.1577H11.4348L11.4354 36.1582ZM11.5062 38.7865C11.8402 38.7865 12.0924 38.7194 12.2623 38.5857C12.438 38.4457 12.5261 38.2563 12.5261 38.0177C12.5261 37.7791 12.438 37.593 12.2623 37.4592C12.0924 37.3192 11.8402 37.2495 11.5062 37.2495H10.2565V38.786H11.5046L11.5062 38.7865ZM15.4812 39.7032C15.8273 39.9009 16.2227 40 16.6679 40C17.1315 40 17.5243 39.9067 17.8468 39.7205C18.1585 39.5395 18.4116 39.2729 18.5762 38.9522C18.5998 38.9056 18.5736 38.862 18.4976 38.8211L17.776 38.4803C17.7115 38.4457 17.6559 38.4603 17.6092 38.5243C17.3979 38.8327 17.099 38.9874 16.7125 38.9874C16.4073 38.9874 16.1524 38.894 15.9468 38.7079C15.7423 38.5212 15.6186 38.2621 15.5777 37.9307H18.4881C18.5705 37.9307 18.614 37.8924 18.6203 37.8169C18.6318 37.6543 18.6381 37.5348 18.6381 37.4587C18.6381 37.0397 18.5526 36.6669 18.3827 36.3412C18.2194 36.0224 17.9695 35.7561 17.6617 35.5729C17.357 35.3863 16.9993 35.2934 16.5892 35.2934C16.155 35.2934 15.768 35.3952 15.4282 35.5992C15.0955 35.8014 14.8248 36.0913 14.6458 36.4372C14.4638 36.7922 14.3731 37.1913 14.3731 37.6333C14.3731 38.0995 14.4696 38.5128 14.6631 38.8736C14.8624 39.2286 15.1351 39.505 15.4812 39.7032ZM17.196 36.4723C17.3601 36.6176 17.4566 36.8273 17.486 37.1011H15.595C15.6595 36.8389 15.7764 36.6322 15.9463 36.4807C16.1225 36.3234 16.3333 36.2447 16.5798 36.2447C16.8263 36.2447 17.0313 36.3208 17.196 36.4723ZM20.6429 39.764C20.6429 39.8458 20.602 39.8867 20.5202 39.8867H19.57C19.4882 39.8867 19.4473 39.8458 19.4473 39.7645V35.5289C19.4473 35.4471 19.4882 35.4062 19.57 35.4062H20.4762C20.558 35.4062 20.5989 35.4471 20.5989 35.5289V36.0003C20.8275 35.7554 21.0619 35.5782 21.3026 35.4675C21.5491 35.3511 21.8124 35.2929 22.094 35.2929C22.6042 35.2929 22.997 35.4555 23.2723 35.7817C23.5539 36.1021 23.6945 36.5421 23.6945 37.1005V39.764C23.6945 39.8453 23.6536 39.8862 23.5712 39.8862H22.622C22.5397 39.8862 22.4983 39.8453 22.4983 39.764V37.2054C22.4983 36.9495 22.4401 36.7492 22.3226 36.6034C22.2051 36.4576 22.0326 36.3847 21.8034 36.3847C21.6105 36.3847 21.4138 36.4372 21.2145 36.5421C21.021 36.6469 20.8307 36.8043 20.6429 37.014V39.7645V39.764ZM25.6023 39.7032C25.9484 39.9009 26.3443 40 26.7895 40C27.2526 40 27.6454 39.9067 27.9679 39.7205C28.2798 39.5396 28.5332 39.273 28.6978 38.9522C28.7214 38.9056 28.6947 38.862 28.6187 38.8211L27.8976 38.4803C27.8331 38.4457 27.777 38.4603 27.7303 38.5243C27.5195 38.8327 27.2206 38.9874 26.8336 38.9874C26.5289 38.9874 26.2735 38.894 26.0685 38.7079C25.8634 38.5212 25.7402 38.2621 25.6993 37.9307H28.6097C28.6921 37.9307 28.7356 37.8924 28.7419 37.8169C28.7534 37.6543 28.7592 37.5348 28.7592 37.4587C28.7592 37.0397 28.6742 36.6669 28.5043 36.3412C28.341 36.0224 28.0911 35.7561 27.7833 35.5729C27.4786 35.3863 27.121 35.2934 26.7103 35.2934C26.2767 35.2934 25.8896 35.3952 25.5498 35.5992C25.2169 35.8014 24.946 36.0913 24.7669 36.4372C24.5854 36.7922 24.4942 37.1913 24.4942 37.6333C24.4942 38.0995 24.5912 38.5128 24.7847 38.8736C24.984 39.2286 25.2562 39.505 25.6023 39.7032ZM27.3171 36.4723C27.4812 36.6176 27.5782 36.8273 27.6076 37.1011H25.7161C25.7806 36.8389 25.898 36.6322 26.0679 36.4807C26.2436 36.3234 26.455 36.2447 26.7009 36.2447C26.9474 36.2447 27.1529 36.3208 27.3171 36.4723ZM37.5011 40C37.0554 40 36.6594 39.9009 36.3138 39.7032C35.9768 39.503 35.7026 39.2126 35.522 38.8647C35.3348 38.5039 35.2409 38.0964 35.2409 37.6428C35.2409 37.1939 35.3348 36.7922 35.522 36.4372C35.7044 36.088 35.9818 35.7975 36.3222 35.5992C36.6683 35.3952 37.0611 35.2934 37.5011 35.2934C37.9642 35.2934 38.3449 35.3983 38.6438 35.6081C38.9432 35.8173 39.1713 36.0994 39.3297 36.455C39.3365 36.4716 39.3395 36.4895 39.3386 36.5074C39.3386 36.5478 39.3124 36.583 39.2594 36.6123L38.4681 36.9348C38.4482 36.9425 38.4277 36.9485 38.4068 36.9527C38.3716 36.9527 38.3391 36.9264 38.3097 36.874C38.1283 36.5478 37.8582 36.3847 37.5011 36.3847C37.1901 36.3847 36.9379 36.5011 36.7444 36.734C36.5509 36.9668 36.4544 37.2668 36.4544 37.6339C36.4544 38.0177 36.5509 38.3261 36.7444 38.5595C36.9379 38.7923 37.1901 38.9087 37.5011 38.9087C37.8876 38.9087 38.1807 38.7398 38.38 38.4021C38.4151 38.3324 38.4681 38.3119 38.5384 38.3408L39.3213 38.6638C39.3622 38.6816 39.3884 38.7021 39.4 38.7252C39.412 38.7425 39.412 38.7661 39.4 38.7949C39.2438 39.1463 38.9944 39.4482 38.6789 39.6681C38.3627 39.8894 37.9699 40 37.5011 40ZM41.1589 39.8867C41.2407 39.8867 41.2821 39.8458 41.2821 39.7645V35.5294C41.2821 35.4476 41.2407 35.4067 41.1589 35.4067H40.2002C40.1184 35.4067 40.077 35.4476 40.077 35.5294V39.7645C40.077 39.8458 40.1184 39.8867 40.2002 39.8867H41.1589ZM40.13 34.4549C40.2705 34.5834 40.4525 34.6474 40.6753 34.6474C40.8977 34.6474 41.077 34.5834 41.2113 34.4549C41.3466 34.3269 41.4137 34.1581 41.4137 33.9488C41.4137 33.7391 41.3466 33.5734 41.2113 33.4507C41.077 33.3227 40.8977 33.2587 40.6753 33.2587C40.4525 33.2587 40.2705 33.3227 40.13 33.4512C39.9952 33.5734 39.9275 33.7359 39.9275 33.9399C39.9275 34.1549 39.9952 34.3269 40.13 34.4549ZM44.3677 40C43.9225 40 43.5266 39.9009 43.181 39.7032C42.8394 39.5101 42.5614 39.2219 42.3807 38.8736C42.193 38.5128 42.0991 38.1027 42.0991 37.6423C42.0991 37.1997 42.193 36.8011 42.3807 36.4461C42.566 36.0939 42.8461 35.8005 43.1894 35.5992C43.5355 35.3952 43.9283 35.2934 44.3677 35.2934C44.8135 35.2934 45.2062 35.3925 45.5461 35.5902C45.8922 35.7885 46.1591 36.0675 46.3463 36.4288C46.534 36.7838 46.6279 37.1881 46.6279 37.6423C46.6279 38.0906 46.5309 38.4955 46.3374 38.8563C46.1553 39.2057 45.8778 39.4963 45.5371 39.6943C45.1973 39.8983 44.8077 40 44.3677 40ZM44.3677 38.9087C44.6845 38.9087 44.9367 38.7949 45.1239 38.5678C45.3174 38.3408 45.4144 38.035 45.4144 37.6512C45.4144 37.2726 45.3174 36.9668 45.1239 36.734C44.9304 36.5011 44.6787 36.3847 44.3677 36.3847C44.0573 36.3847 43.8019 36.5011 43.6026 36.734C43.4091 36.9611 43.3126 37.261 43.3126 37.6339C43.3126 38.0177 43.4091 38.3261 43.6026 38.5595C43.8019 38.7923 44.0573 38.9087 44.3677 38.9087ZM47.156 39.0571C47.5079 39.6859 48.1083 40 48.9584 40C49.3339 40 49.659 39.9386 49.9348 39.8165C50.2159 39.6943 50.4299 39.5254 50.5767 39.3104C50.7288 39.0891 50.8054 38.8384 50.8054 38.5589C50.8054 38.2506 50.723 38.0004 50.5589 37.8085C50.4044 37.6132 50.2055 37.4575 49.9789 37.3544C49.7502 37.2495 49.4718 37.1504 49.1435 37.057C48.8792 36.993 48.6888 36.9322 48.5719 36.8735C48.4602 36.81 48.4046 36.7198 48.4046 36.6034C48.4046 36.4928 48.4602 36.4026 48.5719 36.3323C48.6888 36.2625 48.8383 36.2274 49.0203 36.2274C49.3952 36.2274 49.68 36.3674 49.873 36.6469C49.8966 36.6878 49.9291 36.7078 49.97 36.7078C49.994 36.7049 50.0176 36.6991 50.0402 36.6905L50.6732 36.3674C50.7204 36.3386 50.744 36.3061 50.744 36.2715C50.7397 36.2506 50.7337 36.23 50.7262 36.2101C50.3801 35.5992 49.8027 35.2934 48.9935 35.2934C48.6479 35.2934 48.3401 35.3543 48.0706 35.477C47.801 35.5934 47.5928 35.7591 47.446 35.9746C47.2997 36.1844 47.2263 36.4199 47.2263 36.6815C47.2263 37.0953 47.3757 37.4094 47.6746 37.625C47.9735 37.8347 48.3606 37.9973 48.8357 38.1137C49.1288 38.1835 49.3339 38.2563 49.4513 38.3324C49.574 38.4021 49.6359 38.5007 49.6359 38.6292C49.6359 38.7572 49.5772 38.8589 49.4597 38.9349C49.3485 39.0104 49.1844 39.0482 48.9673 39.0482C48.563 39.0482 48.2436 38.8909 48.0087 38.5762C47.9798 38.5301 47.9473 38.507 47.9122 38.507C47.8869 38.5097 47.8627 38.5187 47.8419 38.5332L47.2084 38.8909C47.1618 38.9202 47.1382 38.9549 47.1382 38.9958C47.1382 39.0015 47.1439 39.022 47.156 39.0571Z" fill="white"/>
</svg>
