<svg width="60" height="60" viewBox="0 0 60 60" fill="none" xmlns="http://www.w3.org/2000/svg">
<rect width="60" height="60" rx="30" fill="#171527"/>
<path d="M29.9352 49.0043C40.4589 49.0043 48.9999 40.4622 48.9999 29.937C48.9999 19.4118 40.4589 10.8696 29.9352 10.8696C19.4116 10.8696 10.8706 19.4118 10.8706 29.937C10.8706 40.4622 19.4116 49.0043 29.9352 49.0043Z" fill="#171527"/>
<path fill-rule="evenodd" clip-rule="evenodd" d="M29.936 39.7755C35.3694 39.7755 39.7734 35.371 39.7734 29.9368C39.7734 24.5026 35.3694 20.0981 29.936 20.0981C24.5026 20.0981 20.0986 24.5026 20.0986 29.9368C20.0986 35.371 24.5026 39.7755 29.936 39.7755ZM42.7665 29.9368C42.7665 37.0299 37.028 42.7691 29.936 42.7691C22.844 42.7691 17.1055 37.0299 17.1055 29.9368C17.1055 22.8437 22.844 17.1045 29.936 17.1045C37.028 17.1045 42.7665 22.8437 42.7665 29.9368Z" fill="url(#paint0_linear_510_2648)"/>
<defs>
<linearGradient id="paint0_linear_510_2648" x1="29.9366" y1="17.1059" x2="29.9366" y2="42.7678" gradientUnits="userSpaceOnUse">
<stop stop-color="#00EE26"/>
<stop offset="1" stop-color="#FFC600"/>
</linearGradient>
</defs>
</svg>
