<svg width="60" height="60" viewBox="0 0 60 60" fill="none" xmlns="http://www.w3.org/2000/svg">
<rect width="60" height="60" rx="30" fill="url(#paint0_linear_508_1630)"/>
<mask id="mask0_508_1630" style="mask-type:luminance" maskUnits="userSpaceOnUse" x="14" y="10" width="32" height="43">
<path d="M45.1189 10H14V52.3312H45.1189V10Z" fill="white"/>
</mask>
<g mask="url(#mask0_508_1630)">
<path d="M32.6648 47.119H33.6343V52.2345H32.6648V47.119ZM36.1427 52.309C35.7188 52.309 35.3976 52.1968 35.1801 51.9724C34.9634 51.7471 34.8538 51.4132 34.8538 50.9687V49.0297H34.232V48.3017H34.8538V47.2552H35.7933V48.3009H36.672V49.0289H35.7933V50.8848C35.7933 51.1117 35.8396 51.2795 35.9295 51.3883C36.0203 51.4971 36.1616 51.551 36.3534 51.551C36.499 51.551 36.6411 51.5211 36.7773 51.4602V52.195C36.5709 52.2704 36.3594 52.309 36.1427 52.309ZM38.4533 52.332C38.0696 52.332 37.7613 52.2284 37.5284 52.0212C37.2963 51.8148 37.1799 51.5364 37.1799 51.1879C37.1799 50.7434 37.3571 50.3983 37.7108 50.1533C38.0645 49.9084 38.5664 49.786 39.2181 49.786H39.3851C39.4408 49.786 39.4939 49.7894 39.5444 49.7937C39.529 49.511 39.4485 49.3012 39.3012 49.1651C39.1539 49.0289 38.9355 48.9603 38.6426 48.9603C38.2684 48.9603 37.8949 49.0665 37.5207 49.2781V48.5202C37.9292 48.3086 38.3514 48.2024 38.7865 48.2024C39.3175 48.2024 39.726 48.3471 40.0137 48.6383C40.3015 48.9295 40.4454 49.3441 40.4454 49.8844V52.2336H39.6643L39.6113 51.7788C39.4905 51.951 39.3277 52.0854 39.1222 52.1848C38.9192 52.2815 38.6966 52.332 38.4533 52.332ZM38.7111 51.6649C38.9432 51.6649 39.1419 51.5818 39.3063 51.4148C39.47 51.2479 39.5521 51.0457 39.5521 50.8094V50.4223C39.5024 50.4223 39.4502 50.4214 39.3971 50.418C39.344 50.4162 39.29 50.4137 39.2344 50.4137C38.8601 50.4137 38.5732 50.471 38.3745 50.585C38.1741 50.6989 38.0757 50.8642 38.0757 51.0809C38.0757 51.2581 38.1339 51.3986 38.2495 51.5048C38.3643 51.6118 38.5193 51.6649 38.7111 51.6649ZM42.4837 52.332C42.0794 52.332 41.7566 52.1925 41.5167 51.9115C41.277 51.6315 41.1571 51.2556 41.1571 50.7862V48.3009H42.0966V50.6347C42.0966 50.9327 42.1582 51.1613 42.2824 51.3206C42.4066 51.48 42.5813 51.5596 42.8091 51.5596C43.036 51.5596 43.2202 51.4765 43.359 51.3095C43.4977 51.1425 43.5671 50.9207 43.5671 50.6423V48.3009H44.5065V52.2336H43.6878L43.6347 51.772C43.5088 51.9535 43.3461 52.0931 43.1457 52.189C42.9462 52.2841 42.7269 52.332 42.4837 52.332ZM43.1662 47.7708H42.3406L43.1508 46.5881H44.1733L43.1662 47.7708Z" fill="white"/>
</g>
<mask id="mask1_508_1630" style="mask-type:luminance" maskUnits="userSpaceOnUse" x="14" y="10" width="32" height="33">
<path d="M39.8802 20.6779V41.8323H44.4758V25.2281C44.4758 22.7153 42.4384 20.6779 39.9256 20.6779H39.8802ZM19.2679 20.6779C16.7783 20.6779 14.7597 22.6965 14.7597 25.1861V41.8332H19.3141V20.6779H19.2679ZM27.5187 12.9392C25.4033 12.9392 23.6888 14.6546 23.6888 16.7692V16.8077V20.7258L23.699 33.4711C23.7093 34.3746 23.7702 35.2918 23.9311 36.18C24.3662 38.5651 25.5035 40.5211 27.7756 41.5745C30.6566 42.9115 33.2652 42.7384 36.1968 41.7818V37.4372C36.1968 37.4372 34.6304 38.0992 32.3215 38.0992C32.0012 38.0992 31.6791 38.0907 31.364 38.0324C29.8327 37.7498 28.8504 36.7614 28.5378 35.1248C28.4479 34.6538 28.3948 34.1657 28.3931 33.6852V24.6328H36.1985V20.6779H28.3931V12.9392H27.5187ZM39.1677 12.851C39.1549 14.4928 40.4378 15.7569 42.1301 15.7706C43.8036 15.7834 45.119 14.5099 45.1182 12.8776C45.1182 11.2607 43.8481 10.0154 42.1832 10.0009C42.1729 10.0009 42.1635 10.0009 42.1541 10.0009C40.4601 10 39.1797 11.2196 39.1677 12.851ZM16.9642 10C15.265 10.0043 13.9889 11.2556 14.0001 12.9032C14.0112 14.5176 15.2856 15.7526 16.9573 15.7706C18.6299 15.7868 19.9488 14.5151 19.9513 12.8827C19.9548 11.2487 18.6701 10.0043 16.9821 10H16.9642Z" fill="white"/>
</mask>
<g mask="url(#mask1_508_1630)">
<path d="M30.4229 -5.54141L61.5496 27.3743L28.6852 58.4521L-2.44141 25.5373L30.4229 -5.54141Z" fill="white"/>
</g>
<defs>
<linearGradient id="paint0_linear_508_1630" x1="60" y1="60" x2="1.50236" y2="-0.0022951" gradientUnits="userSpaceOnUse">
<stop stop-color="#EB7224"/>
<stop offset="0.2287" stop-color="#EB7224"/>
<stop offset="0.3349" stop-color="#EC6D43"/>
<stop offset="0.4604" stop-color="#EC675F"/>
<stop offset="0.5836" stop-color="#ED6272"/>
<stop offset="0.7016" stop-color="#EE5E80"/>
<stop offset="0.8131" stop-color="#EF5A89"/>
<stop offset="0.9154" stop-color="#EF588F"/>
<stop offset="1" stop-color="#EF5791"/>
</linearGradient>
</defs>
</svg>
