<svg width="60" height="60" viewBox="0 0 60 60" fill="none" xmlns="http://www.w3.org/2000/svg">
<rect width="60" height="60" rx="30" fill="black"/>
<path fill-rule="evenodd" clip-rule="evenodd" d="M43.6966 33.2962C44.8276 33.1566 45.2998 32.7917 45.272 31.4908C45.2415 30.3076 45.131 29.1279 44.9415 27.9596C44.2675 24.1684 42.5997 20.9247 39.9469 18.5269C37.0172 15.8821 32.9885 14.3623 27.8888 14.3859C26.4098 14.4013 24.9451 14.0951 23.5961 13.4885C22.2395 12.8667 21.033 11.9595 20.0589 10.8288L18.4621 9.00621C17.9047 8.40662 17.136 8.04734 16.3185 8.00435C15.5011 7.96137 14.6989 8.23804 14.0818 8.77587C13.4646 9.3137 13.0807 10.0705 13.0113 10.8863C12.942 11.7021 13.1926 12.5129 13.7101 13.1472L15.3069 14.9698C16.8762 16.782 18.8157 18.2365 20.9947 19.2353C23.1689 20.2113 25.5294 20.7028 27.9124 20.6757C31.3466 20.6607 33.9415 21.5816 35.7164 23.1874C37.4335 24.7373 38.4766 27.0193 38.8243 29.7777C39.187 32.6522 41.0201 33.614 43.6966 33.2876V33.2962ZM16.6312 25.6282C19.3099 25.3019 21.1385 26.2722 21.5056 29.138C21.8533 31.8966 22.8964 34.1786 24.6135 35.7285C26.3906 37.3342 28.9877 38.2552 32.4154 38.2401C34.7991 38.2127 37.1603 38.7042 39.3352 39.6805C41.5143 40.6791 43.4539 42.1337 45.0229 43.9461L46.6199 45.7685C47.1706 46.3982 47.4487 47.2211 47.393 48.0558C47.3372 48.8906 46.9522 49.6689 46.3226 50.2199C45.693 50.7706 44.8705 51.0487 44.0357 50.993C43.2011 50.9373 42.4229 50.5521 41.8722 49.9226L40.2753 48.0978C39.3007 46.9675 38.0943 46.0605 36.7381 45.438C35.3892 44.8315 33.9244 44.5253 32.4454 44.5407C27.3457 44.5642 23.3149 43.038 20.3873 40.3976C17.7302 38.0019 16.071 34.7581 15.3885 30.965C15.1989 29.7959 15.0885 28.6154 15.058 27.4314C15.0301 26.1283 15.5023 25.7634 16.6312 25.626V25.6282ZM28.4683 26.0897H31.8616C32.3054 26.0909 32.731 26.2676 33.045 26.5813C33.359 26.895 33.5363 27.3202 33.538 27.7641V31.1602C33.5363 31.6042 33.359 32.0294 33.045 32.3432C32.731 32.6568 32.3054 32.8336 31.8616 32.8347H28.4683C28.0244 32.8336 27.599 32.6568 27.285 32.3432C26.9709 32.0294 26.7937 31.6042 26.792 31.1602V27.7641C26.7937 27.3202 26.9709 26.895 27.285 26.5813C27.599 26.2676 28.0244 26.0909 28.4683 26.0897Z" fill="white"/>
</svg>
