<svg width="60" height="60" viewBox="0 0 60 60" fill="none" xmlns="http://www.w3.org/2000/svg">
<rect width="60" height="60" rx="30" fill="#FF0000"/>
<g clip-path="url(#clip0_509_1622)">
<path fill-rule="evenodd" clip-rule="evenodd" d="M27.6199 38.9456C27.6199 37.6798 27.6945 36.8309 28.2926 35.7926C28.648 35.176 29.3996 34.4772 30.1899 34.4772C30.6536 34.4772 31.0215 34.5355 31.2414 34.5355V41.4271C31.2414 41.6073 30.5001 42.0404 30.0146 42.0404C29.2646 42.0404 28.8978 41.9273 28.4156 41.4489C27.8708 40.9091 27.6199 39.8506 27.6199 38.9445V38.9456ZM22.9764 38.7122C22.9764 40.2305 23.1859 41.4865 23.5859 42.5999C23.8858 43.4347 24.1443 43.7476 24.6244 44.3652C24.6924 44.4529 24.8149 44.5753 24.897 44.6477L25.2002 44.8996C26.3273 45.7415 27.855 46 29.2211 45.6566C29.958 45.4716 30.8587 45.0156 31.3954 44.4724L31.8172 44.0469C31.8912 43.9555 31.8509 43.9424 31.9723 43.9097C31.9799 44.2428 32.4044 44.9149 32.7185 45.1494C32.8257 45.2294 32.8899 45.2893 33.0129 45.3513C33.3911 45.5412 33.7253 45.6621 34.1917 45.6621C34.8737 45.6621 35.5654 45.4868 36.0656 45.0825C36.5413 44.6977 36.8493 44.0355 36.8493 43.4134C36.8493 43.2366 36.8041 43.0744 36.7911 42.9171C35.8016 42.9171 35.8566 41.7836 35.8566 40.7855V31.5576L33.4641 30.9128C31.4874 30.5188 29.1683 30.5242 27.3445 31.2529C26.8574 31.4477 25.9148 31.9734 25.5093 32.3674C25.0086 32.8545 24.9934 32.8343 24.5656 33.3807C24.417 33.5701 24.2924 33.7676 24.1677 33.976C23.9283 34.376 23.6899 34.8631 23.5342 35.3284C23.1718 36.414 22.9758 37.5019 22.9758 38.7127L22.9764 38.7122Z" fill="white"/>
<path fill-rule="evenodd" clip-rule="evenodd" d="M28.5545 18.1824C28.5436 18.0524 28.4762 17.998 28.4179 17.881C28.3602 17.765 28.3216 17.7014 28.2606 17.6002C27.9319 17.0522 27.5324 16.5422 27.0442 16.1297C26.3612 15.5518 25.5138 15.0582 24.5532 15.0582C23.5197 15.0582 22.9466 15.1997 22.072 15.702C21.5299 16.0138 21.0346 16.4818 20.652 16.9683C19.3475 18.6281 18.9654 21.0688 19.5918 23.2021C19.6827 23.5112 19.7856 23.8023 19.9102 24.081C20.375 25.1247 21.1337 26.0526 22.0458 26.735C22.177 26.833 22.6369 27.2063 22.8013 27.2063C22.8802 27.2063 22.8818 27.1921 22.9471 27.1769C23.0179 26.8738 22.8399 26.8602 22.6179 26.63C21.6812 25.6569 21.0776 24.0635 21.0776 22.6503C21.0776 21.0253 21.5783 19.3002 23.0032 18.4431C23.942 17.8782 25.0757 17.7406 26.0374 18.3631C26.2148 18.4779 26.3699 18.5819 26.5305 18.7174C26.992 19.1076 27.3893 19.5582 27.7256 20.0632C27.7877 20.1568 27.8339 20.2194 27.8857 20.3141L27.9395 20.4202C28.167 20.8261 28.1888 21.0444 28.4381 21.0444C28.5905 21.0444 29.0122 20.3576 29.1135 20.2308C29.7911 19.3813 30.5715 18.669 31.6127 18.2614C32.6707 17.8478 34.2011 17.7732 35.1432 18.516C35.5764 18.8572 35.8943 19.3427 36.0646 19.9016C36.7406 22.1202 35.5514 24.2029 33.7184 25.4191C31.8336 26.6697 30.7979 26.6457 28.776 27.2231C28.1257 27.4087 27.5373 27.609 26.9381 27.8968C26.8293 27.9491 26.7743 27.9817 26.66 28.028C26.5584 28.0687 26.4599 28.1166 26.365 28.1711C26.0162 28.3741 25.6335 28.5684 25.2945 28.7948C24.6158 29.2481 24.0389 29.752 23.4647 30.3234C23.0168 30.7691 22.503 31.4695 22.2162 32.0246C22.0312 32.3837 21.574 33.1652 21.574 33.5434C21.574 33.735 21.7574 33.8356 21.9245 33.8356C22.0475 33.8356 22.3316 33.212 22.4328 33.0591C22.5291 32.9138 22.5857 32.8071 22.6881 32.6716C22.7887 32.5377 22.8764 32.4218 22.9798 32.2918C23.5665 31.5522 24.2963 30.9873 25.1024 30.5008L25.9802 30.0644C26.6094 29.807 27.2739 29.579 27.9531 29.4086C29.3666 29.0543 30.9547 28.9101 32.3632 28.5907C33.4658 28.3409 34.7067 27.9126 35.6799 27.3516C36.3607 26.9592 36.9882 26.4966 37.5428 25.9437L37.9951 25.4322C38.6885 24.5887 39.1005 23.5966 39.3672 22.5404C39.5076 21.9842 39.6545 20.8523 39.6001 20.1949C39.5653 19.7737 39.5745 19.4074 39.4951 19.0129C39.2344 17.7177 38.5377 16.5422 37.4215 15.8593C36.4946 15.2922 35.4763 15.0169 34.4547 15H34.2615C33.0691 15.0185 31.881 15.388 30.8388 16.0568C30.5176 16.2631 30.1769 16.4895 29.9059 16.7594C29.6104 17.0532 29.3753 17.253 29.0737 17.592C29.021 17.6513 29.0122 17.6753 28.9562 17.7373C28.899 17.8015 28.8778 17.8325 28.8245 17.8973C28.7467 17.992 28.6808 18.1492 28.5551 18.1824H28.5545Z" fill="white"/>
<path fill-rule="evenodd" clip-rule="evenodd" d="M12.1116 27.0604C12.2384 27.3244 12.2868 28.3796 12.2868 28.754V45.5162H19.0916C19.8606 45.5162 20.4636 45.3742 20.9578 44.9002L20.9872 44.8708C21.8215 44.0012 21.8373 42.4949 21.8373 41.1648H17.252V28.4911C17.252 27.849 17.0751 27.3853 16.5097 27.1306C15.6552 26.7448 14.2091 26.8623 13.2512 26.9151C13.0744 26.9249 12.8654 26.9565 12.6749 26.9815C12.5257 27.0011 12.2727 27.0604 12.1116 27.0604ZM42.3686 32.7255C42.3202 32.6243 42.2853 32.399 42.2581 32.2814L41.9833 31.1256C41.9669 31.039 41.9757 30.9443 41.8723 30.9443H38.4555V45.5162H43.1866V35.6456C43.1866 35.4492 43.8566 35.1074 44.0541 35.0236C45.3876 34.4577 46.9615 34.9735 47.392 34.9735C47.4301 34.8092 47.4993 34.6356 47.5564 34.4664C47.7257 33.963 47.8813 33.3236 47.8884 32.7108V32.6194C47.878 31.8395 47.613 31.1174 46.8086 30.7974C45.8834 30.429 44.4574 30.8077 43.7428 31.2371C43.265 31.5244 42.7915 31.9957 42.5243 32.5013C42.4987 32.5503 42.4932 32.5726 42.4682 32.6205C42.4078 32.7353 42.453 32.695 42.3686 32.7255Z" fill="white"/>
</g>
<defs>
<clipPath id="clip0_509_1622">
<rect width="36" height="31" fill="white" transform="translate(12 15)"/>
</clipPath>
</defs>
</svg>
