<svg width="60" height="60" viewBox="0 0 60 60" fill="none" xmlns="http://www.w3.org/2000/svg">
<rect width="60" height="60" rx="30" fill="#150067"/>
<path d="M23.4585 45.1472L26.8833 43.9072C27.6004 43.6475 27.6004 44.2172 27.6004 45.0718V46.6385C27.6004 47.9036 27.1702 48.0545 26.6049 48.2639L23.4585 49.4034V45.1472Z" fill="white"/>
<path d="M23.4585 38.2098L32.1556 35.0679C32.8726 34.8082 32.8726 35.3779 32.8726 36.2325V37.7909C32.8726 39.0644 32.4424 39.2152 31.8773 39.4246L23.4585 42.466V38.2098Z" fill="white"/>
<path d="M22.7414 28.3145L18.3212 26.7142C17.7476 26.5048 17.7476 25.734 17.7476 25.4575C17.7476 25.4575 17.7476 26.3875 18.5996 26.0775L40.2791 18.2438C41.9915 17.6238 41.9915 17.1462 41.2745 16.8865C41.9915 17.1462 41.9915 17.1462 41.9915 19.224C41.9915 21.2097 41.9915 21.8716 41.1395 22.1816L24.1671 28.3145C23.4585 28.5742 23.4585 28.5742 22.7414 28.3145Z" fill="white"/>
<path d="M41.2829 23.8323C42 24.092 42 24.5695 40.2875 25.1896L23.4585 31.2722V35.52L41.1479 29.1274C42 28.8174 42 28.1555 42 26.1698C42 24.0836 42 24.0836 41.2829 23.8323Z" fill="white"/>
<path d="M19.6033 20.2382L27.1784 22.978L33.0581 20.8499L18.8947 15.7307C17.8993 15.3704 17.7559 15.3202 17.7559 16.0239V17.8672C17.7475 19.568 19.0381 20.0371 19.6033 20.2382Z" fill="#ED1650"/>
<path d="M41.283 23.8324L38.938 22.9778L33.0583 25.106L36.7785 26.4549L40.2877 25.1898C42.0001 24.5614 42.0001 24.0838 41.283 23.8324Z" fill="#ED1650"/>
<path d="M41.2829 16.8867C41.2829 16.8867 25.5927 11.2146 24.5973 10.8543C23.6019 10.494 23.4585 10.4438 23.4585 11.1475V12.9908C23.4585 14.6916 24.7407 15.1524 25.3143 15.3618L36.7868 19.5091L40.296 18.244C42 17.624 42 17.1464 41.2829 16.8867Z" fill="#ED1650"/>
<path d="M18.6076 26.0781L23.4581 24.327L18.8944 22.6764C17.899 22.3162 17.7556 22.2659 17.7556 22.9697V25.4581C17.7472 25.4581 17.7472 26.3881 18.6076 26.0781Z" fill="#ED1650"/>
</svg>
