<svg width="60" height="60" viewBox="0 0 60 60" fill="none" xmlns="http://www.w3.org/2000/svg">
<rect width="60" height="60" rx="30" fill="#FF0A8C"/>
<path d="M12 30.5122C12.02 27.5198 13.2819 25.5915 16.0786 24.5047C17.4707 23.9638 18.9104 23.5281 20.355 23.1424C21.7696 22.7643 22.651 21.988 23.0391 20.533C23.4547 18.9629 23.9429 17.3978 24.5638 15.8978C26.1762 12.0012 31.3716 10.7491 34.6465 13.4161C35.7957 14.3527 36.3891 15.6473 36.8473 17.0071C37.2829 18.2993 37.6885 19.6015 38.0591 20.9112C38.367 22.003 39.0606 22.6441 40.1246 22.9771C41.7871 23.4955 43.4822 23.9513 45.0872 24.6124C49.2008 26.3102 50.3274 31.9798 47.2303 35.1001C46.2062 36.1317 44.8818 36.6175 43.5472 37.0633C42.4506 37.429 41.3415 37.757 40.2274 38.065C39.0656 38.3881 38.3395 39.0917 37.994 40.2562C37.5257 41.8337 37.0575 43.4165 36.4767 44.954C35.345 47.9466 32.9439 49.2813 29.5438 48.9508C26.5518 48.6602 24.9945 46.7896 24.1132 44.1527C23.675 42.843 23.2644 41.5207 22.8888 40.1911C22.5733 39.0816 21.8723 38.4281 20.7832 38.095C19.1532 37.5942 17.5183 37.1059 15.9259 36.5023C13.7501 35.6785 12.4206 34.0983 12.0801 31.7594C12.02 31.3487 12.025 30.928 12.0025 30.5099L12 30.5122Z" fill="white"/>
</svg>
