<svg width="60" height="60" viewBox="0 0 60 60" fill="none" xmlns="http://www.w3.org/2000/svg">
<rect width="60" height="60" rx="30" fill="#231F20"/>
<path d="M35.7532 20.8782H24.5854V39.1185H35.7532V20.8782Z" fill="#FF5F00"/>
<path d="M25.7355 30C25.7342 28.2436 26.1323 26.5099 26.8999 24.9301C27.6674 23.3504 28.7843 21.9659 30.1659 20.8814C28.4547 19.5366 26.3997 18.7003 24.2356 18.4682C22.0716 18.2361 19.886 18.6175 17.9284 19.5687C15.9709 20.52 14.3205 22.0029 13.1659 23.8477C12.0112 25.6926 11.3989 27.8252 11.3989 30.0016C11.3989 32.178 12.0112 34.3105 13.1659 36.1554C14.3205 38.0003 15.9709 39.4831 17.9284 40.4344C19.886 41.3857 22.0716 41.7671 24.2356 41.535C26.3997 41.3028 28.4547 40.4666 30.1659 39.1217C28.7839 38.037 27.6667 36.652 26.8992 35.0716C26.1316 33.4912 25.7337 31.7569 25.7355 30Z" fill="#EB001B"/>
<path d="M47.8266 37.1885V36.8147H47.9877V36.7374H47.6042V36.8147H47.7557V37.1885H47.8266ZM48.5709 37.1885V36.7374H48.4549L48.3196 37.0596L48.1842 36.7374H48.0682V37.1885H48.152V36.8469L48.2777 37.1401H48.3647L48.4903 36.8469V37.1885H48.5709Z" fill="#F79E1B"/>
<path d="M48.9342 30C48.9342 32.1766 48.3217 34.3093 47.1669 36.1542C46.012 37.9992 44.3614 39.482 42.4036 40.4331C40.4458 41.3843 38.26 41.7654 36.0958 41.5329C33.9317 41.3005 31.8766 40.4638 30.1655 39.1185C31.5466 38.0332 32.6632 36.6483 33.4309 35.0684C34.1987 33.4886 34.5976 31.755 34.5976 29.9984C34.5976 28.2419 34.1987 26.5083 33.4309 24.9284C32.6632 23.3485 31.5466 21.9637 30.1655 20.8783C31.8766 19.533 33.9317 18.6963 36.0958 18.4639C38.26 18.2314 40.4458 18.6125 42.4036 19.5637C44.3614 20.5148 46.012 21.9976 47.1669 23.8426C48.3217 25.6876 48.9342 27.8202 48.9342 29.9968V30Z" fill="#F79E1B"/>
</svg>
