<svg width="60" height="60" viewBox="0 0 60 60" fill="none" xmlns="http://www.w3.org/2000/svg">
<rect width="60" height="60" rx="30" fill="#00BCFF"/>
<path d="M30.4999 17.4741C20.472 17.4741 12.3381 22.6893 12.3381 29.1067C12.3381 35.5242 20.472 41.2474 30.4999 41.2474C40.5278 41.2474 48.6617 35.5411 48.6617 29.1067C48.6617 22.6724 40.5278 17.4741 30.4999 17.4741Z" fill="#00BCFF"/>
<path d="M24.5813 25.517C24.5644 25.534 24.3953 25.7202 24.5137 25.8726C24.8012 26.2282 25.6636 26.4314 26.5429 26.2451C27.0672 26.1266 27.7267 25.6017 28.3862 25.0768C29.0964 24.518 29.7897 23.9592 30.4831 23.7391C31.2271 23.5021 31.7006 23.6037 32.0219 23.7053C32.3601 23.8069 32.766 24.0439 33.4255 24.518C34.643 25.4324 39.5301 29.7163 40.3926 30.4444C41.069 30.1396 44.3158 28.8189 48.425 27.9215C48.0699 25.7202 46.7509 23.6375 44.7216 21.9951C41.8976 23.1803 38.228 23.8915 34.846 22.2491C34.829 22.2491 33.0027 21.3855 31.2102 21.4194C28.5384 21.4871 27.3716 22.6385 26.154 23.8746L24.5813 25.517Z" fill="white"/>
<path d="M40.1728 30.9016C40.1221 30.8508 34.4233 25.8557 33.1212 24.8905C32.3771 24.3318 31.9544 24.1794 31.5147 24.1286C31.2949 24.0947 30.9736 24.1455 30.7537 24.1963C30.145 24.3656 29.3671 24.8905 28.6737 25.4324C27.9466 26.0081 27.2702 26.5499 26.6445 26.6854C25.8328 26.8716 24.852 26.6515 24.3954 26.3467C24.2094 26.2282 24.091 26.0758 24.0234 25.9403C23.8543 25.5509 24.1587 25.2461 24.2094 25.1953L25.7821 23.4851C25.9681 23.2989 26.1541 23.1126 26.3401 22.9433C25.8328 23.011 25.3593 23.1465 24.9027 23.265C24.3278 23.4174 23.7866 23.5698 23.2286 23.5698C22.9918 23.5698 21.7574 23.3666 21.5206 23.2989C20.1002 22.9094 18.4768 22.5369 16.6166 21.6564C14.3844 23.3158 12.9301 25.3646 12.4905 27.6675C12.8118 27.7521 13.6573 27.9384 13.8771 27.9892C18.9333 29.1237 20.506 30.2751 20.7935 30.5121C21.0979 30.1735 21.5545 29.9534 22.0449 29.9534C22.6029 29.9534 23.1102 30.2412 23.4146 30.6645C23.7021 30.4275 24.1079 30.2412 24.6152 30.2412C24.852 30.2412 25.0887 30.292 25.3424 30.3597C25.9174 30.5629 26.2048 30.9354 26.357 31.2741C26.543 31.1894 26.7798 31.1217 27.0673 31.1217C27.3378 31.1217 27.6253 31.1894 27.9128 31.308C28.8429 31.7143 28.995 32.6287 28.9105 33.3229C28.9781 33.3229 29.0458 33.306 29.1134 33.306C30.2126 33.306 31.1258 34.2034 31.1258 35.321C31.1258 35.6596 31.0412 35.9813 30.889 36.2692C31.1934 36.4385 31.9544 36.828 32.6308 36.7433C33.1719 36.6756 33.3748 36.4893 33.4425 36.3877C33.4932 36.32 33.544 36.2353 33.4932 36.1676L32.0727 34.5759C32.0727 34.5759 31.836 34.3558 31.9205 34.2711C32.0051 34.1865 32.1404 34.305 32.2418 34.3897C32.969 34.9992 33.8483 35.9136 33.8483 35.9136C33.8652 35.9305 33.916 36.0321 34.2542 36.0999C34.5417 36.1507 35.0321 36.1168 35.3872 35.8289C35.4717 35.7612 35.5563 35.6596 35.6408 35.575L35.6239 35.5919C35.996 35.1178 35.5901 34.6437 35.5901 34.6437L33.916 32.7642C33.916 32.7642 33.6792 32.544 33.7638 32.4594C33.8314 32.3747 33.9836 32.4932 34.102 32.5779C34.6262 33.0181 35.3703 33.7632 36.0974 34.4743C36.2327 34.5759 36.8584 34.9654 37.7039 34.4235C38.2112 34.0849 38.3127 33.6785 38.2958 33.3737C38.262 32.9673 37.9407 32.6795 37.9407 32.6795L35.6578 30.3936C35.6578 30.3936 35.421 30.1904 35.5056 30.0888C35.5732 30.0042 35.7254 30.1227 35.8269 30.2073C36.554 30.8169 38.5156 32.6118 38.5156 32.6118C38.5494 32.6287 39.2259 33.1197 40.0545 32.5779C40.3588 32.3916 40.5449 32.1038 40.5618 31.7651C40.5787 31.2402 40.1728 30.9016 40.1728 30.9016Z" fill="white"/>
<path d="M29.1301 33.7971C28.775 33.7971 28.386 34.0003 28.3353 33.9664C28.3015 33.9495 28.3522 33.814 28.386 33.7294C28.4199 33.6447 28.8764 32.2562 27.7604 31.7652C26.8979 31.3927 26.3568 31.816 26.1877 32.0022C26.137 32.053 26.12 32.053 26.12 31.9853C26.1031 31.7313 25.9848 31.054 25.2407 30.817C24.1753 30.4952 23.482 31.2403 23.3129 31.5112C23.2284 30.9016 22.721 30.4275 22.0954 30.4275C21.402 30.4275 20.8609 30.9863 20.844 31.6636C20.844 32.3578 21.402 32.8997 22.0785 32.8997C22.4167 32.8997 22.721 32.7642 22.9409 32.561C22.9409 32.561 22.9578 32.578 22.9409 32.5949C22.8902 32.8997 22.7887 34.0172 23.9555 34.4744C24.429 34.6607 24.8179 34.5252 25.1562 34.2881C25.2576 34.2204 25.2745 34.2543 25.2576 34.3389C25.2069 34.6268 25.2745 35.2364 26.137 35.5919C26.7965 35.8629 27.1854 35.5919 27.4391 35.3549C27.5574 35.2533 27.5743 35.2702 27.5913 35.4226C27.6251 36.2523 28.3184 36.9127 29.147 36.9127C30.0094 36.9127 30.7028 36.2184 30.7028 35.3549C30.6859 34.5083 29.9925 33.814 29.1301 33.7971Z" fill="white"/>
<path d="M30.5 17C20.2861 17 12 22.4353 12 29.1237C12 29.293 12 29.7671 12 29.8349C12 36.9127 19.2377 42.6528 30.5 42.6528C41.7623 42.6528 49 36.9127 49 29.8349V29.1237C49 22.4353 40.7139 17 30.5 17ZM48.1545 27.7691C44.1298 28.6665 41.1367 29.9703 40.3757 30.292C38.617 28.7512 34.5585 25.2292 33.4593 24.3995C32.8336 23.9254 32.4109 23.6714 32.0219 23.5698C31.8528 23.519 31.6161 23.4682 31.3117 23.4682C31.0242 23.4682 30.7367 23.519 30.4154 23.6206C29.7052 23.8407 28.995 24.4164 28.3186 24.9583V24.9752C27.676 25.4832 27.0165 26.0081 26.5261 26.1266C26.3062 26.1774 26.0864 26.1944 25.8665 26.1944C25.3085 26.1944 24.8012 26.025 24.6152 25.788C24.5814 25.7541 24.5983 25.6864 24.6828 25.5848L24.6997 25.5679L26.2386 23.9085C27.4561 22.6893 28.5891 21.5549 31.2271 21.4871C31.2779 21.4871 31.3117 21.4871 31.3624 21.4871C33.0027 21.4871 34.6431 22.2152 34.8122 22.2999C36.351 23.0449 37.9237 23.4344 39.5302 23.4344C41.1874 23.4344 42.8953 23.028 44.6878 22.1983C46.5311 23.7899 47.7825 25.7033 48.1545 27.7691ZM30.5 17.7112C35.9282 17.7112 40.7815 19.269 44.0452 21.7242C42.4726 22.4015 40.9676 22.7571 39.5133 22.7571C38.0251 22.7571 36.537 22.4015 35.0996 21.6903C35.032 21.6564 33.2226 20.7929 31.3286 20.7929C31.2779 20.7929 31.2271 20.7929 31.1764 20.7929C28.9612 20.8437 27.7267 21.6226 26.8812 22.3168C26.0695 22.3337 25.3592 22.5369 24.7335 22.7063C24.1755 22.8587 23.702 22.9941 23.2285 22.9941C23.0425 22.9941 22.6874 22.9772 22.6536 22.9772C22.1124 22.9603 19.4068 22.2999 17.2422 21.4871C20.5229 19.1674 25.2409 17.7112 30.5 17.7112ZM16.6335 21.9612C18.8825 22.8925 21.622 23.6037 22.5014 23.6545C22.7381 23.6714 22.9918 23.7053 23.2623 23.7053C23.8373 23.7053 24.4122 23.536 24.9703 23.3836C25.2916 23.2989 25.6636 23.1973 26.0356 23.1126C25.9342 23.2142 25.8327 23.3158 25.7313 23.4174L24.1586 25.1107C24.0402 25.2292 23.7697 25.5679 23.9388 25.9742C24.0064 26.1436 24.1586 26.296 24.3446 26.4314C24.7166 26.6854 25.3931 26.8547 26.0018 26.8547C26.2386 26.8547 26.4584 26.8378 26.6613 26.787C27.3208 26.6346 28.0142 26.0928 28.7413 25.5001C29.3163 25.043 30.1449 24.4503 30.7875 24.281C30.9735 24.2302 31.1764 24.1963 31.3624 24.1963C31.4132 24.1963 31.4639 24.1963 31.5146 24.2133C31.9374 24.2641 32.3432 24.4164 33.0535 24.9583C34.3387 25.9234 40.0375 30.9185 40.0882 30.9693C40.0882 30.9693 40.4602 31.2911 40.4264 31.816C40.4095 32.1038 40.2573 32.3578 39.9698 32.5441C39.7331 32.6965 39.4794 32.7811 39.2258 32.7811C38.8368 32.7811 38.5832 32.5949 38.5663 32.5949C38.5494 32.5779 36.5878 30.7831 35.8775 30.1735C35.7591 30.0719 35.6577 29.9873 35.5393 29.9873C35.4717 29.9873 35.4209 30.0211 35.3871 30.055C35.2687 30.1904 35.404 30.3936 35.5562 30.5122L37.8391 32.815C37.8391 32.815 38.1266 33.0859 38.1604 33.4415C38.1773 33.814 37.9913 34.1357 37.6193 34.3897C37.3487 34.576 37.0782 34.6606 36.8076 34.6606C36.4525 34.6606 36.2157 34.5082 36.165 34.4574L35.8437 34.1357C35.2518 33.5431 34.6261 32.9335 34.1696 32.561C34.0512 32.4763 33.9497 32.3917 33.8314 32.3917C33.7806 32.3917 33.7299 32.4086 33.6792 32.4594C33.6284 32.5102 33.5946 32.6118 33.713 32.7981C33.7637 32.8658 33.8314 32.9335 33.8314 32.9335L35.4886 34.813C35.5055 34.83 35.8268 35.2194 35.5224 35.6089L35.4548 35.6766C35.404 35.7274 35.3533 35.7782 35.3026 35.829C35.0151 36.066 34.6431 36.083 34.4909 36.083C34.4063 36.083 34.3387 36.083 34.271 36.066C34.1019 36.0322 34.0005 35.9983 33.9497 35.9306L33.9328 35.9136C33.8483 35.812 33.0027 34.9654 32.3094 34.3897C32.2249 34.3051 32.1065 34.2204 31.9881 34.2204C31.9374 34.2204 31.8867 34.2373 31.8359 34.2881C31.7006 34.4405 31.9036 34.6606 31.9881 34.7453L33.4086 36.32C33.4086 36.337 33.3917 36.3708 33.3579 36.4216C33.3071 36.4893 33.138 36.6587 32.6138 36.7264C32.5462 36.7264 32.4954 36.7433 32.4278 36.7433C31.9036 36.7433 31.3286 36.4893 31.0411 36.337C31.1764 36.0491 31.2441 35.7443 31.2441 35.4395C31.2441 34.2712 30.2971 33.323 29.1303 33.323C29.1133 33.323 29.0795 33.323 29.0626 33.323C29.0964 32.7811 29.0288 31.7821 27.9803 31.3249C27.676 31.1895 27.3885 31.1217 27.101 31.1217C26.8812 31.1217 26.6613 31.1556 26.4584 31.2403C26.2386 30.8169 25.8835 30.5122 25.4269 30.3598C25.1732 30.2751 24.9196 30.2243 24.6659 30.2243C24.2262 30.2243 23.8373 30.3598 23.4822 30.5968C23.144 30.1735 22.6367 29.9195 22.0955 29.9195C21.622 29.9195 21.1654 30.1058 20.8272 30.4444C20.3876 30.1058 18.6289 28.9882 13.9447 27.9215C13.7249 27.8707 13.2176 27.7183 12.8963 27.6336C13.3021 25.4832 14.638 23.5529 16.6335 21.9612ZM25.3254 34.2035L25.2747 34.1527H25.2239C25.1901 34.1527 25.1394 34.1696 25.0887 34.2035C24.8519 34.3728 24.6152 34.4574 24.3953 34.4574C24.2601 34.4574 24.1417 34.4236 24.0064 34.3897C22.9241 33.9664 23.0087 32.9335 23.0594 32.6287C23.0594 32.561 23.0594 32.5102 23.0087 32.4763L22.9241 32.4086L22.8565 32.4763C22.6367 32.6795 22.3661 32.7981 22.0786 32.7981C21.4529 32.7981 20.9456 32.2901 20.9456 31.6636C20.9456 31.0371 21.4529 30.5291 22.0786 30.5291C22.6367 30.5291 23.1271 30.9524 23.1947 31.5112L23.2285 31.816L23.3976 31.562C23.4145 31.5281 23.8711 30.8339 24.7166 30.8339C24.8688 30.8339 25.0379 30.8677 25.207 30.9185C25.8835 31.1217 25.9849 31.7313 26.0018 31.9853C26.0187 32.1377 26.1202 32.1377 26.1371 32.1377C26.1878 32.1377 26.2386 32.1038 26.2724 32.07C26.3908 31.9345 26.6782 31.7144 27.101 31.7144C27.3039 31.7144 27.5069 31.7652 27.7267 31.8498C28.792 32.307 28.3016 33.6616 28.3016 33.6785C28.2171 33.8987 28.2002 34.0003 28.2847 34.0511L28.3186 34.068H28.3524C28.4031 34.068 28.4538 34.0511 28.5553 34.0172C28.7075 33.9664 28.9104 33.8987 29.1303 33.8987C29.925 33.9156 30.5846 34.559 30.5846 35.3549C30.5846 36.1507 29.925 36.8111 29.1303 36.8111C28.3524 36.8111 27.7098 36.2015 27.676 35.4226C27.676 35.3549 27.659 35.1855 27.5238 35.1855C27.4561 35.1855 27.4054 35.2194 27.3547 35.2702C27.1856 35.4226 26.9657 35.5919 26.6444 35.5919C26.4922 35.5919 26.34 35.5581 26.1709 35.4903C25.3423 35.1517 25.3254 34.5929 25.3592 34.3558C25.3592 34.305 25.3761 34.2543 25.3254 34.2035ZM30.5 40.5024C20.675 40.5024 12.7102 35.4057 12.7102 29.1068C12.7102 28.8528 12.7271 28.5988 12.761 28.3448C12.8455 28.3617 13.6234 28.548 13.7756 28.5819C18.5612 29.6486 20.1508 30.7492 20.4214 30.9693C20.3368 31.1895 20.2861 31.4265 20.2861 31.6636C20.2861 32.6626 21.0978 33.4584 22.0786 33.4584C22.197 33.4584 22.2984 33.4415 22.4168 33.4246C22.569 34.1527 23.0425 34.7114 23.7697 34.9993C23.9895 35.0839 24.1924 35.1178 24.4122 35.1178C24.5475 35.1178 24.6828 35.1009 24.8181 35.067C24.9534 35.4057 25.2578 35.829 25.9342 36.1168C26.1709 36.2184 26.4077 36.2692 26.6444 36.2692C26.8304 36.2692 27.0165 36.2354 27.1856 36.1676C27.5069 36.9635 28.2847 37.4884 29.1472 37.4884C29.7221 37.4884 30.2633 37.2513 30.6691 36.8449C31.0073 37.0312 31.7345 37.3868 32.4616 37.3868C32.5631 37.3868 32.6476 37.3868 32.7322 37.3698C33.4593 37.2852 33.7975 36.9973 33.9497 36.7772C33.9835 36.7433 34.0005 36.6925 34.0174 36.6587C34.1865 36.7095 34.3725 36.7433 34.5923 36.7433C34.9813 36.7433 35.3702 36.6079 35.7591 36.337C36.1312 36.066 36.4017 35.6766 36.4356 35.3379V35.321C36.5708 35.3549 36.6892 35.3549 36.8245 35.3549C37.2303 35.3549 37.6362 35.2363 38.0082 34.9824C38.7523 34.4913 38.8707 33.8648 38.8707 33.4584C39.0059 33.4923 39.1243 33.4923 39.2596 33.4923C39.6485 33.4923 40.0206 33.3738 40.3757 33.1536C40.8323 32.8658 41.1028 32.4086 41.1536 31.8837C41.1874 31.5281 41.0859 31.1725 40.8999 30.8677C42.1344 30.3428 44.9584 29.31 48.2729 28.548C48.2898 28.7342 48.2898 28.9205 48.2898 29.1237C48.2898 35.4057 40.325 40.5024 30.5 40.5024Z" fill="#0A0080"/>
</svg>
