<svg width="60" height="60" viewBox="0 0 60 60" fill="none" xmlns="http://www.w3.org/2000/svg">
<rect width="60" height="60" rx="30" fill="url(#paint0_linear_508_1774)"/>
<path d="M30.5 11.0002C24.8322 10.976 19.3861 13.226 15.3558 17.2569C11.3255 21.2878 9.03988 26.7707 9.00002 32.5035C8.9961 35.3307 9.55034 38.1303 10.6302 40.738C11.7101 43.3457 13.2939 45.7091 15.2887 47.6895C16.1338 48.5294 17.2712 49 18.4559 49C19.6407 49 20.778 48.5294 21.6231 47.6895C22.0389 47.2756 22.3692 46.7822 22.5946 46.2379C22.82 45.6936 22.9361 45.1094 22.9361 44.5193C22.9361 43.9292 22.82 43.345 22.5946 42.8007C22.3692 42.2565 22.0389 41.763 21.6231 41.3491C20.4602 40.1923 19.5365 38.813 18.9061 37.2914C18.2756 35.7699 17.9509 34.1366 17.9509 32.4869C17.9509 30.8371 18.2756 29.2038 18.9061 27.6823C19.5365 26.1608 20.4602 24.7814 21.6231 23.6246C23.9868 21.2726 27.1697 19.9544 30.4854 19.9544C33.8012 19.9544 36.9841 21.2726 39.3478 23.6246C40.5107 24.7814 41.4343 26.1608 42.0648 27.6823C42.6953 29.2038 43.02 30.8371 43.02 32.4869C43.02 34.1366 42.6953 35.7699 42.0648 37.2914C41.4343 38.813 40.5107 40.1923 39.3478 41.3491C38.932 41.763 38.6017 42.2565 38.3763 42.8007C38.1509 43.345 38.0348 43.9292 38.0348 44.5193C38.0348 45.1094 38.1509 45.6936 38.3763 46.2379C38.6017 46.7822 38.932 47.2756 39.3478 47.6895C40.1929 48.5294 41.3302 49 42.515 49C43.6997 49 44.8371 48.5294 45.6821 47.6895C47.6822 45.7116 49.2714 43.3493 50.3564 40.7415C51.4413 38.1337 52.0001 35.3328 52 32.5035C51.9601 26.7707 49.6745 21.2878 45.6442 17.2569C41.6139 13.226 36.1678 10.976 30.5 11.0002Z" fill="white"/>
<defs>
<linearGradient id="paint0_linear_508_1774" x1="0" y1="30" x2="60" y2="30" gradientUnits="userSpaceOnUse">
<stop stop-color="#00A5F0"/>
<stop offset="1" stop-color="#00D7D7"/>
</linearGradient>
</defs>
</svg>
