<svg width="60" height="60" viewBox="0 0 60 60" fill="none" xmlns="http://www.w3.org/2000/svg">
<rect width="60" height="60" rx="30" fill="#820AD1"/>
<path d="M17.4026 20.1686C18.6993 18.7997 20.4195 18 22.4403 18C26.3772 18 28.9873 20.8883 29.4867 25.2152C29.6486 26.6204 29.6471 28.6014 29.6455 30.896C29.6452 31.1313 29.6452 31.3699 29.6452 31.6116V40.2074H24.2313V33.8496C24.2313 33.8496 24.2203 28.4083 24.1872 27.3914C24.0419 22.9622 21.4324 20.1791 17.4021 20.1761C16.1861 21.4671 15.5345 23.0455 15.4384 25.4589C15.4252 25.7955 15.4285 26.9887 15.4329 28.5612C15.4352 29.376 15.4377 30.2926 15.4384 31.2447C15.4424 35.3887 15.4384 40.2083 15.4384 40.2083H10.0245V30.4238C10.0245 30.0885 10.0184 29.7504 10.0123 29.411C10 28.7282 9.98767 28.0401 10.0245 27.3587C10.0857 26.2229 10.2812 25.1064 10.8087 24.0691C12.016 21.6928 14.4898 20.1628 17.127 20.1628C17.2192 20.1628 17.3114 20.1651 17.4026 20.1686Z" fill="white"/>
<path d="M50.9756 31.7056C51.0124 31.0244 51 30.3363 50.9878 29.6537C50.9816 29.3143 50.9756 28.9763 50.9756 28.6411V18.8583H45.5614C45.5614 18.8583 45.5574 23.6771 45.5614 27.8203C45.562 28.7722 45.5646 29.6886 45.5668 30.5032C45.5712 32.0755 45.5746 33.2684 45.5614 33.605C45.4653 36.0181 44.8137 37.5961 43.5976 38.8869C39.5671 38.884 36.9576 36.1012 36.8122 31.673C36.7791 30.6562 36.7651 28.133 36.7651 25.2108V18.8542L31.3549 18.8591V27.4534C31.3549 27.695 31.3546 27.9335 31.3546 28.1689C31.3529 30.463 31.3515 32.4436 31.5134 33.8486C32.0117 38.1747 34.6221 41.0625 38.5591 41.0625C40.5802 41.0625 42.3004 40.263 43.5973 38.8942C43.6884 38.8978 43.7805 38.8999 43.8727 38.8999C46.5101 38.8999 48.9841 37.3702 50.1915 34.9944C50.7189 33.9572 50.9144 32.8409 50.9756 31.7053L50.9756 31.7056Z" fill="white"/>
</svg>
