<svg width="60" height="60" viewBox="0 0 60 60" fill="none" xmlns="http://www.w3.org/2000/svg">
<rect width="60" height="60" rx="30" fill="#1BB99A"/>
<g clip-path="url(#clip0_508_1604)">
<path d="M29.9701 47.9697C20.1611 47.9697 12.1809 40.1655 12.1809 30.5718C12.1809 20.9775 20.1611 13.1722 29.9701 13.1722C39.7791 13.1722 47.7593 20.9775 47.7593 30.5715C47.7593 40.1655 39.7791 47.9697 29.9701 47.9697Z" fill="black"/>
<path d="M44.7616 28.2132C44.7616 36.204 38.1386 42.6804 29.9701 42.6804C21.8003 42.6804 15.1787 36.2043 15.1787 28.2132C15.1787 20.2238 21.8003 13.746 29.9701 13.746C38.14 13.746 44.7616 20.2238 44.7616 28.2132Z" fill="#DDE05B"/>
<path d="M29.97 43.0512C21.5072 43.0512 14.6211 36.3171 14.6211 28.0401C14.6211 19.7631 21.5075 13.0277 29.97 13.0277C38.4325 13.0277 45.3189 19.7617 45.3189 28.0401C45.3189 36.3171 38.4325 43.0512 29.97 43.0512ZM29.97 14.1153C22.1205 14.1153 15.7346 20.3615 15.7346 28.0401C15.7346 35.7173 22.1205 41.9621 29.97 41.9621C37.8195 41.9621 44.2054 35.7173 44.2054 28.0398C44.2054 20.3624 37.8192 14.1156 29.97 14.1156V14.1153Z" fill="black"/>
<path d="M39.4974 37.3548C38.9886 39.677 37.7872 41.7995 36.0452 43.454C34.3032 45.1085 32.0987 46.2206 29.7105 46.6498C27.3222 47.0789 24.8576 46.8058 22.628 45.865C20.3985 44.9242 18.5042 43.358 17.1847 41.3643C15.4156 38.6905 14.8048 35.4389 15.4866 32.3246C16.1779 29.2194 18.0995 26.509 20.8304 24.787C23.5612 23.0651 26.8785 22.4721 30.0555 23.1381C33.2325 23.804 36.0101 25.6746 37.7796 28.3398C39.5492 31.0051 40.1664 34.2478 39.496 37.3573L39.4974 37.3548Z" fill="#9ED5D6"/>
<path d="M27.5188 47.3955C26.6061 47.395 25.696 47.3 24.8038 47.1122C23.1542 46.7713 21.5902 46.1139 20.2022 45.1779C18.8141 44.242 17.6296 43.0461 16.7171 41.6595C15.7973 40.2772 15.167 38.73 14.8628 37.1078C14.5585 35.4855 14.5864 33.8203 14.9447 32.2086C16.426 25.442 23.2621 21.1152 30.182 22.5657C37.1002 24.0162 41.524 30.7024 40.041 37.4693C39.6924 39.0828 39.0199 40.6127 38.0625 41.9703C37.1051 43.3279 35.8819 44.4861 34.4636 45.378C32.3968 46.6934 29.9843 47.3942 27.5185 47.3955H27.5188ZM27.4907 23.3739C22.083 23.3739 17.2093 27.0628 16.0316 32.4377C15.7051 33.9093 15.6803 35.4297 15.9585 36.9108C16.2368 38.392 16.8125 39.8044 17.6525 41.0665C18.4854 42.3332 19.5668 43.4257 20.8342 44.281C22.1016 45.1362 23.5298 45.7371 25.0362 46.0489C26.541 46.3686 28.0957 46.3932 29.6102 46.1213C31.1248 45.8494 32.5692 45.2864 33.8598 44.4649C35.1552 43.6502 36.2725 42.5923 37.147 41.3523C38.0214 40.1124 38.6357 38.7151 38.9542 37.2413C40.3076 31.0607 36.2686 24.9553 29.9481 23.6301C29.1406 23.4603 28.3167 23.3744 27.4907 23.3739Z" fill="black"/>
<path d="M45.8348 35.3452C45.8348 37.3214 45.0322 39.2167 43.6035 40.6141C42.1748 42.0115 40.237 42.7965 38.2165 42.7965C36.196 42.7965 34.2582 42.0115 32.8295 40.6141C31.4008 39.2167 30.5981 37.3214 30.5981 35.3452C30.5981 33.3689 31.4008 31.4737 32.8295 30.0763C34.2582 28.6789 36.196 27.8938 38.2165 27.8938C40.237 27.8938 42.1748 28.6789 43.6035 30.0763C45.0322 31.4737 45.8348 33.3689 45.8348 35.3452Z" fill="#FFE72D"/>
<path d="M38.2169 43.3402C36.0498 43.3378 33.9722 42.4947 32.4398 40.9959C30.9074 39.4971 30.0453 37.4651 30.0427 35.3455C30.0452 33.2259 30.9072 31.1938 32.4396 29.6949C33.9719 28.1961 36.0495 27.353 38.2167 27.3504C40.3837 27.353 42.4613 28.1962 43.9936 29.6949C45.526 31.1936 46.3881 33.2256 46.3909 35.3452C46.388 37.4647 45.526 39.4966 43.9937 40.9954C42.4614 42.4941 40.384 43.3374 38.2169 43.3402ZM38.2169 28.4395C36.3448 28.4416 34.55 29.1698 33.2261 30.4644C31.9022 31.7591 31.1573 33.5144 31.1547 35.3455C31.1571 37.1766 31.9019 38.9321 33.2258 40.227C34.5496 41.5218 36.3444 42.2503 38.2167 42.2526C40.089 42.2506 41.884 41.5223 43.208 40.2274C44.5319 38.9325 45.2766 37.1768 45.2786 35.3455C45.2763 33.5144 44.5316 31.7589 43.2076 30.4642C41.8837 29.1695 40.0891 28.4414 38.2169 28.4395Z" fill="black"/>
</g>
<defs>
<clipPath id="clip0_508_1604">
<rect width="36" height="35" fill="white" transform="translate(12 13)"/>
</clipPath>
</defs>
</svg>
