<svg width="60" height="60" viewBox="0 0 60 60" fill="none" xmlns="http://www.w3.org/2000/svg">
<rect width="60" height="60" rx="30" fill="#3366FF"/>
<path d="M34.5009 12H25.5005C18.0441 12.0009 12 18.0453 12 25.5014V34.5014C12.0009 41.9561 18.0441 47.9991 25.4991 48H34.4995C41.9556 48 48 41.9559 48 34.5C48 34.4996 48 34.499 48 34.4986V25.4986C47.9984 18.0441 41.9556 12.0016 34.5009 12ZM40.5711 33.8571C38.4412 39.6956 31.9814 42.702 26.1427 40.5721C23.0232 39.4343 20.5655 36.9766 19.4274 33.8571C19.2539 33.3897 19.492 32.87 19.9595 32.6964C19.985 32.6869 20.011 32.6786 20.0375 32.6714L23.7519 31.6714C24.1836 31.5551 24.6351 31.7744 24.8105 32.1857C26.018 35.0486 29.3175 36.3906 32.1805 35.1831C33.5323 34.613 34.6079 33.5374 35.1781 32.1857C35.3531 31.774 35.8049 31.5544 36.2367 31.6714L39.9511 32.6714C40.4337 32.797 40.7231 33.2899 40.5977 33.7724C40.5903 33.8011 40.5814 33.8294 40.5711 33.8571Z" fill="white"/>
</svg>
