<svg width="60" height="60" viewBox="0 0 60 60" fill="none" xmlns="http://www.w3.org/2000/svg">
<rect width="60" height="60" rx="30" fill="#003087"/>
<path d="M27.761 21.3992C27.5717 21.3993 27.3887 21.4656 27.2448 21.586C27.101 21.7064 27.0057 21.8732 26.9761 22.0562L25.6719 30.1564C25.7327 29.7781 26.0656 29.4993 26.4568 29.4993H30.2785C34.1247 29.4993 37.3884 26.7516 37.9848 23.0282C38.0292 22.7502 38.0543 22.4696 38.06 22.1883C37.0826 21.6864 35.9344 21.3992 34.6762 21.3992H27.761Z" fill="#79A8D6"/>
<path d="M38.0599 22.1885C38.0542 22.4698 38.029 22.7504 37.9846 23.0284C37.3883 26.7519 34.1242 29.4995 30.2783 29.4995H26.4566C26.0657 29.4995 25.7325 29.778 25.6717 30.1566L24.4725 37.6L23.7214 42.2695C23.7067 42.3597 23.7122 42.452 23.7375 42.5399C23.7628 42.6279 23.8073 42.7094 23.8679 42.7788C23.9284 42.8483 24.0037 42.9041 24.0884 42.9423C24.1731 42.9805 24.2653 43.0003 24.3586 43.0003H28.5067C28.696 43.0001 28.879 42.9339 29.0229 42.8134C29.1667 42.693 29.262 42.5263 29.2916 42.3432L30.3842 35.5569C30.4138 35.3737 30.5092 35.2069 30.6532 35.0865C30.7972 34.966 30.9804 34.8998 31.1698 34.8998H33.612C37.4583 34.8998 40.722 32.1522 41.3184 28.4287C41.7418 25.786 40.3827 23.3811 38.0599 22.1885Z" fill="#C2D5E7"/>
<path d="M23.048 16C22.6571 16 22.3239 16.2785 22.2631 16.6565L19.008 36.8695C18.9463 37.2532 19.2491 37.6003 19.6458 37.6003H24.4729L25.6715 30.1569L26.9757 22.0568C27.0053 21.8737 27.1006 21.707 27.2444 21.5865C27.3883 21.4661 27.5713 21.3998 27.7606 21.3997H34.6759C35.9343 21.3997 37.0822 21.6872 38.0597 22.1888C38.1266 18.7988 35.2701 16 31.3427 16H23.048Z" fill="white"/>
</svg>
