<svg width="60" height="60" viewBox="0 0 60 60" fill="none" xmlns="http://www.w3.org/2000/svg">
<rect width="60" height="60" rx="30" fill="#01663A"/>
<path d="M52.4982 27.8109C52.4982 27.8109 52.0387 27.7701 52.0161 27.8409C52.0054 27.8726 52.0054 27.9034 52.0272 27.9257C52.4768 28.382 52.6019 28.7196 52.6882 29.2213C52.7737 29.7108 52.3949 30.6256 52.1364 31.0873C52.1234 31.1119 52.1234 31.1404 52.1372 31.1628C52.1511 31.1852 52.176 31.1983 52.2037 31.1967C53.1564 31.1497 53.6599 30.3497 53.7363 29.5774C53.8119 28.8044 53.4584 27.9211 52.4982 27.8101V27.8109ZM51.6397 28.9131C48.2397 32.3752 44.7265 34.4708 42.225 35.6523C39.7235 36.8331 34.2886 38.4778 31.2188 36.3244C28.1489 34.1702 27.7583 31.0425 27.7354 31.1189C26.8123 34.2419 29.3299 37.4643 29.3299 37.4643C32.1213 40.8509 37.4547 40.9025 43.3388 37.2739C49.046 33.754 51.5483 29.377 51.7529 29.0525C51.9571 28.7288 51.8894 28.6595 51.6389 28.9138L51.6397 28.9131Z" fill="#FDC82F"/>
<path d="M45.6225 25.2059C44.9464 25.2059 44.1362 25.367 43.3909 25.6783L43.5076 26.7473C44.076 26.5107 44.6908 26.325 45.2441 26.325C45.9451 26.325 46.2297 26.6857 46.2 27.1573C46.1944 27.2445 46.1754 27.357 46.1442 27.4564L45.5279 27.4687C43.7556 27.4934 42.2412 28.0899 42.1352 29.7555C42.0749 30.6997 42.6364 31.3463 43.6579 31.3463C44.4429 31.3463 45.2026 30.7783 45.5513 30.3559C45.5513 30.359 45.5513 30.3636 45.5513 30.3698C45.6003 30.7312 46.0824 31.2299 46.9025 31.1852C46.8535 30.6002 46.9156 29.8295 47.1931 28.9478L47.4111 28.2271C47.5358 27.8171 47.6522 27.3454 47.6732 27.0217C47.7682 25.5304 46.6088 25.2074 45.6237 25.2074L45.6225 25.2059ZM45.5505 30.3544C45.5505 30.3544 45.5528 30.352 45.5536 30.3513C45.5528 30.3798 45.5513 30.3628 45.5505 30.3544ZM45.784 28.8476C45.5378 29.6306 44.7153 30.1648 44.1743 30.1648C43.7685 30.1648 43.5152 29.8912 43.5412 29.4934C43.5778 28.9092 44.2446 28.4869 45.524 28.4869H45.881C45.8489 28.611 45.8291 28.7227 45.784 28.8476ZM42.2374 25.313C41.2235 25.3978 40.7284 26.5138 40.5727 26.9524L39.3926 31.1783H40.8527L42.4907 25.313H42.2374ZM42.007 24.4822C42.5425 24.3188 43.0079 23.8956 42.9766 23.5003C42.9545 23.2097 42.5937 23.0632 42.0947 23.2151C41.5836 23.3715 41.106 23.79 41.1365 24.1854C41.1617 24.5007 41.5325 24.6271 42.007 24.4822ZM17.3893 25.4741C17.1566 25.276 16.8439 25.1766 16.5005 25.1766C15.7148 25.1766 15.2746 25.7346 14.8474 26.466H14.8352L15.0068 25.313H13.8655L12.2276 31.1783H13.7L14.2752 29.095C14.8634 26.987 15.4912 26.5786 16.0306 26.5786C16.1901 26.5786 16.4441 26.6402 16.6333 26.752L17.3901 25.4749L17.3893 25.4741ZM21.5654 28.6233C21.7706 28.1023 21.914 27.5813 21.943 27.135C22.0155 25.9943 21.3686 25.1766 19.9694 25.1766C18.1164 25.1766 16.6402 26.7766 16.5105 28.809C16.4212 30.2102 17.1742 31.3016 18.6954 31.3016C19.5918 31.3016 20.3829 31.0164 21.081 30.6442L20.7994 29.6777C20.1914 29.9628 19.7398 30.1239 19.1264 30.1239C18.4757 30.1239 17.815 29.7147 17.9676 28.6734L21.5661 28.6241L21.5654 28.6233ZM19.739 26.2926C20.3768 26.2926 20.5828 26.7142 20.5576 27.1104C20.5492 27.2468 20.5012 27.4202 20.4302 27.5689L18.2438 27.5936C18.4475 26.8992 19.0387 26.2918 19.7382 26.2918L19.739 26.2926ZM9.90612 25.1766C9.2554 25.1766 8.54972 25.276 7.9005 25.4494L5.4585 34.1148C5.4585 34.1148 6.79813 34.0053 7.38327 32.5463L7.78455 31.1151C8.10801 31.2391 8.4475 31.3008 8.91362 31.3008C10.5454 31.3008 12.4427 30.0361 12.5839 27.8171C12.68 26.3042 11.8935 25.1758 9.90537 25.1758L9.90612 25.1766ZM11.0589 27.8919C10.9795 29.132 10.0206 30.1239 8.94032 30.1239C8.62143 30.1239 8.36739 30.0623 8.12784 29.9751L9.10358 26.4167C9.27752 26.3797 9.4629 26.355 9.72077 26.355C10.5554 26.355 11.1229 26.8884 11.0589 27.8926V27.8919ZM38.3901 25.1766C37.5258 25.1766 36.9597 25.7469 36.386 26.466C36.4547 25.5859 35.9641 25.1766 35.2074 25.1766C34.6184 25.1766 34.1546 25.4741 33.6595 25.9095L33.1437 26.466H33.1315L33.1529 26.3126C33.1804 25.3993 32.4144 25.3184 32.2176 25.313H32.1726L30.5621 31.1783H32.0025L32.6128 28.9462C33.1483 26.95 34.0684 26.4668 34.5246 26.4668C34.8603 26.4668 34.9663 26.6903 34.9495 26.9508C34.9365 27.1489 34.8534 27.5088 34.7763 27.7809L33.8159 31.1783H35.2684L35.8764 28.9832C36.4379 26.95 37.2138 26.4668 37.6349 26.4668C37.9827 26.4668 38.1582 26.7049 38.1415 26.9655C38.1269 27.2013 38.0476 27.4988 37.9698 27.7709L37.6387 28.974C37.4411 29.6815 37.3129 31.1382 38.4146 31.1783L39.3857 27.6198C39.4803 27.2607 39.5932 26.8136 39.6184 26.4167C39.6565 25.6359 39.2057 25.1766 38.3894 25.1766H38.3901ZM29.4544 25.1766C28.5893 25.1766 28.024 25.7469 27.4495 26.466C27.5182 25.5859 27.0277 25.1766 26.2716 25.1766C25.6827 25.1766 25.2181 25.4741 24.7237 25.9095L24.208 26.466H24.1958L24.2164 26.3126C24.2439 25.3993 23.4779 25.3184 23.2819 25.313H23.2361L21.6264 31.1783H23.0667L23.6771 28.9462C24.2126 26.95 25.1319 26.4668 25.5881 26.4668C25.9245 26.4668 26.0298 26.6903 26.0138 26.9508C26.0008 27.1489 25.9184 27.5088 25.8406 27.7809L24.8801 31.1783H26.3327L26.9407 28.9832C27.5022 26.95 28.2788 26.4668 28.6992 26.4668C29.047 26.4668 29.2232 26.7049 29.2065 26.9655C29.192 27.2013 29.1127 27.4988 29.0348 27.7709L28.703 28.974C28.5046 29.6422 28.3772 31.1382 29.4788 31.1783L30.45 27.6198C30.5453 27.2607 30.6575 26.8136 30.6827 26.4167C30.7208 25.6359 30.2699 25.1766 29.4536 25.1766H29.4544ZM25.5004 23.1342L25.653 22.8598H26.3128L26.3151 23.1342H26.9758L26.8316 21.0563H26.1572L24.8519 23.1342H25.5011H25.5004ZM26.3128 21.6821L26.3189 22.4266H25.9001L26.3128 21.6821ZM23.465 22.4097H23.6671C23.9761 22.4097 23.9959 22.4991 23.9204 22.7704C23.8686 22.9553 23.8487 23.0879 23.8525 23.1342H24.5238L24.5414 23.071C24.4628 23.071 24.4972 22.9785 24.5727 22.7079C24.6894 22.2894 24.575 22.237 24.3835 22.1561C24.6383 22.0898 24.7985 21.8879 24.8656 21.6482C24.9785 21.2443 24.8092 21.057 24.1348 21.057H23.1789L22.5991 23.1349H23.262L23.4642 22.4104L23.465 22.4097ZM23.7076 21.5403H24.0165C24.1714 21.5403 24.2637 21.6096 24.2233 21.7569C24.1829 21.901 24.0593 21.9534 23.854 21.9534H23.5932L23.7083 21.5403H23.7076ZM28.0736 23.1889C28.6297 23.1889 29.0859 22.9546 29.2202 22.4729C29.4315 21.7168 28.2139 21.9102 28.3009 21.5981C28.3223 21.5233 28.3986 21.4802 28.545 21.4802C28.6099 21.4802 28.6656 21.4917 28.7053 21.5179C28.7457 21.5434 28.7709 21.5873 28.7617 21.659H29.3911C29.4445 21.296 29.2705 21.0015 28.7091 21.0015C28.2033 21.0015 27.7707 21.2243 27.6471 21.6651C27.4259 22.459 28.6496 22.2424 28.5618 22.5569C28.5344 22.6548 28.4093 22.7095 28.2437 22.7095C28.1789 22.7095 28.114 22.6918 28.0698 22.6578C28.0233 22.6224 27.9988 22.5684 28.0057 22.4937H27.371C27.2802 22.869 27.5388 23.1896 28.0728 23.1896L28.0736 23.1889ZM9.40034 22.4875H9.73526C10.3173 22.4875 10.6545 22.2047 10.7797 21.7576C10.8987 21.3306 10.6942 21.0563 10.1129 21.0563H9.13791L8.55735 23.1349H9.22107L9.40111 22.4883L9.40034 22.4875ZM9.66508 21.5403H9.85348C9.99387 21.5403 10.2006 21.5665 10.1465 21.7599C10.0961 21.9387 9.9664 22.0019 9.81232 22.0019H9.53692L9.66583 21.5403H9.66508ZM13.5459 23.1342H14.2088L14.6368 21.6012H15.2326L15.3852 21.0555H13.5306L13.3788 21.6012H13.9746L13.5474 23.1342H13.5459ZM22.2711 22.5068C22.3336 22.2817 22.2695 22.0883 22.0666 22.0305C22.2192 21.9472 22.3977 21.7908 22.4572 21.5773C22.5724 21.1649 22.2405 21.0555 21.7851 21.0555H20.8185L20.2387 23.1334H21.2251C21.75 23.1334 22.1414 22.9715 22.2711 22.5068ZM21.3464 21.5395H21.5799C21.7203 21.5395 21.8484 21.5426 21.8034 21.7037C21.7698 21.8255 21.6569 21.8863 21.5249 21.8863H21.2495L21.3464 21.5395ZM21.1442 22.264H21.3548C21.5661 22.264 21.7172 22.2756 21.6661 22.4575C21.6226 22.6131 21.4891 22.6478 21.3266 22.6478H21.0375L21.1442 22.2648V22.264ZM12.6693 22.6478H11.644L11.7356 22.3218H12.5701L12.7059 21.837H11.8721L11.9545 21.5395H12.9409L13.0767 21.0547H11.4273L10.8475 23.1326H12.5366L12.6716 22.6478H12.6693ZM15.9322 23.1326L16.1344 22.4081H16.3365C16.6455 22.4081 16.6661 22.4975 16.5898 22.7688C16.5379 22.9538 16.5181 23.0864 16.5219 23.1326H17.194L17.2123 23.0694C17.1337 23.0694 17.1673 22.9769 17.2436 22.7064C17.3611 22.2879 17.2459 22.2355 17.0544 22.1546C17.3092 22.0883 17.4694 21.8863 17.5366 21.6466C17.6495 21.2428 17.4801 21.0555 16.8057 21.0555H15.8506L15.27 23.1334H15.933L15.9322 23.1326ZM16.377 21.5395H16.6859C16.8408 21.5395 16.9339 21.6089 16.8927 21.7561C16.8523 21.9002 16.7286 21.9526 16.5235 21.9526H16.2618L16.377 21.5395ZM18.6427 23.1881C19.2416 23.1881 19.8168 22.7896 20.0144 22.0821C20.1678 21.5341 19.9763 21 19.2538 21C18.6245 21 18.0759 21.4239 17.8936 22.0767C17.696 22.7835 18.0073 23.1881 18.642 23.1881H18.6427ZM18.5558 22.0821C18.629 21.8201 18.806 21.5118 19.1066 21.5079C19.4011 21.5033 19.43 21.7992 19.3515 22.0821C19.2554 22.4258 19.0723 22.6794 18.7854 22.6794C18.468 22.6794 18.4818 22.348 18.5558 22.0821Z" fill="white"/>
</svg>
