<svg width="60" height="60" viewBox="0 0 60 60" fill="none" xmlns="http://www.w3.org/2000/svg">
<rect width="60" height="60" rx="30" fill="#010044"/>
<path d="M9.39011 29.8817C9.40954 29.389 9.45377 28.8985 9.54012 28.4121C9.70984 27.4465 10.0175 26.5101 10.4538 25.6316C11.0288 24.4713 11.8226 23.4323 12.7917 22.5715C13.7447 21.7181 14.8611 21.066 16.0736 20.6543C16.8057 20.4039 17.5569 20.2363 18.3322 20.1747C18.5452 20.1579 18.7586 20.1427 18.972 20.1406C19.2915 20.1373 19.6116 20.1359 19.9304 20.1523C20.6495 20.1891 21.3514 20.3226 22.0399 20.5222C22.9354 20.782 23.789 21.1681 24.5748 21.669C25.1916 22.0611 25.7636 22.5193 26.2807 23.0352C26.2933 23.0478 26.302 23.0642 26.3244 23.0959L22.69 26.7532C22.562 26.6426 22.4443 26.5366 22.3221 26.4358C21.5491 25.798 20.6545 25.4267 19.636 25.3588C18.3706 25.2745 17.2452 25.6307 16.2829 26.4207C15.3103 27.2188 14.7568 28.2417 14.5733 29.4507C14.5536 29.5813 14.5478 29.7137 14.5316 29.8672C14.5223 29.8992 14.5209 29.9092 14.5232 29.92C14.482 30.4164 14.5473 30.9042 14.6667 31.3856C14.8616 32.1744 15.2377 32.8786 15.8033 33.4809C16.5616 34.2884 17.4996 34.8035 18.6308 34.9524C20.0549 35.1398 21.3123 34.7622 22.389 33.8564C22.6816 33.6104 22.9402 33.3271 23.2102 33.0569C23.4801 32.7871 23.7438 32.5117 24.0113 32.24C24.5381 31.7051 25.0651 31.1704 25.5931 30.6367C25.9568 30.2691 26.3232 29.9041 26.6867 29.5363C27.1971 29.0201 27.7054 28.5017 28.2153 27.9848C28.4576 27.7395 28.7016 27.4958 28.9439 27.2508C29.4718 26.7171 29.9989 26.1821 30.527 25.6486C30.7913 25.3816 31.0588 25.1179 31.3225 24.8505C31.8238 24.3426 32.3248 23.8343 32.824 23.3244C33.7622 22.3664 34.8055 21.5423 36.0596 20.9836C36.8455 20.633 37.6627 20.3803 38.5197 20.2475C38.911 20.1883 39.3053 20.1509 39.7008 20.1355C41.1808 20.0717 42.5889 20.345 43.9362 20.9259C44.8511 21.3209 45.6982 21.8566 46.4464 22.5136C47.4766 23.4135 48.3088 24.4558 48.9177 25.6575C49.382 26.5735 49.7047 27.5334 49.8622 28.5405C49.9205 28.9143 49.9549 29.292 49.9813 29.6693C50.004 29.9933 50.0003 30.3188 49.9991 30.6663C49.9827 30.6995 49.9806 30.7107 49.9837 30.7226C49.9762 31.4304 49.8533 32.1231 49.6741 32.8071C49.2512 34.4198 48.4744 35.8602 47.316 37.099C46.0523 38.451 44.5016 39.3859 42.6758 39.8903C42.0645 40.0592 41.441 40.1778 40.8033 40.2032C40.3826 40.22 39.9594 40.2457 39.5401 40.2231C38.6485 40.1758 37.7679 40.0053 36.9234 39.7164C35.8134 39.3372 34.8006 38.7908 33.9235 38.0407C33.3609 37.5597 32.8455 37.0278 32.3155 36.5128C31.9977 36.2035 31.6913 35.8836 31.3812 35.5671C30.9333 35.1102 30.4896 34.6495 30.0382 34.1958C29.9172 34.0739 29.7751 33.9712 29.6251 33.8448C29.6022 33.8658 29.5477 33.9124 29.4978 33.9631C29.1491 34.319 28.8013 34.6756 28.4533 35.0322C28.0195 35.4768 27.5989 35.9342 27.148 36.3625C26.7667 36.7247 26.4674 37.1534 26.085 37.5116C24.8028 38.7136 23.2975 39.5446 21.554 39.968C21.0357 40.0938 20.5091 40.186 19.9725 40.2039C19.5641 40.2175 19.1539 40.2455 18.7469 40.224C17.5973 40.1663 16.4673 39.9046 15.4099 39.451C14.5276 39.0737 13.7069 38.5667 12.9751 37.9469C12.1142 37.2211 11.3826 36.3553 10.8113 35.386C10.1804 34.3171 9.7573 33.1775 9.54481 31.9656C9.42803 31.2988 9.38122 30.6283 9.38871 29.9274C9.39069 29.9123 9.39116 29.897 9.39011 29.8817ZM44.8817 30.4547C44.8873 30.4451 44.8889 30.4348 44.896 30.3916C44.9078 30.0728 44.8872 29.7535 44.8344 29.4387C44.6495 28.294 44.156 27.2986 43.2367 26.5266C42.1534 25.6171 40.8939 25.2115 39.4511 25.3898C38.7125 25.4808 38.0479 25.7565 37.4392 26.1646C37.0067 26.455 36.6583 26.8281 36.2986 27.1904C35.7091 27.7841 35.1259 28.3839 34.538 28.9795C34.1617 29.3606 33.7816 29.7379 33.4046 30.1184C33.3721 30.151 33.3492 30.1926 33.3232 30.2283C33.4386 30.3487 33.542 30.4621 33.6513 30.5699C34.1118 31.0246 34.5733 31.4783 35.036 31.9306C35.4196 32.3056 35.8057 32.6783 36.1905 33.052L36.2567 33.1166C36.5122 33.3663 36.7521 33.6335 37.0264 33.863C38.106 34.7661 39.3636 35.1356 40.7879 34.9529C41.5054 34.8609 42.1609 34.6023 42.7528 34.2051C43.6027 33.6342 44.203 32.8748 44.5632 31.9457C44.7476 31.4699 44.8695 30.9788 44.8817 30.4547Z" fill="#FF5200"/>
<path d="M9.38527 29.8852C9.39065 29.8882 9.39111 29.895 9.3876 29.9106C9.37497 29.9101 9.37403 29.8999 9.38527 29.8852ZM14.5294 29.9146C14.5207 29.9092 14.5221 29.8992 14.5327 29.8833C14.5427 29.8882 14.542 29.8989 14.5294 29.9146ZM49.991 30.7172C49.9805 30.7106 49.9826 30.6994 49.9964 30.6831C50.0015 30.6887 50.0001 30.7001 49.991 30.7172ZM44.8759 30.4607C44.8656 30.4556 44.8665 30.4448 44.8794 30.4292C44.8888 30.4348 44.8871 30.445 44.8759 30.4607Z" fill="#FF5200"/>
</svg>
