<svg width="60" height="60" viewBox="0 0 60 60" fill="none" xmlns="http://www.w3.org/2000/svg">
<rect width="60" height="60" rx="30" fill="#1446CD"/>
<path d="M29.0531 48.0006C27.5967 48.0006 26.1354 47.8965 24.6958 47.6901C21.1841 47.2404 18.1993 45.9448 16.0735 43.9427C16.0651 43.9343 16.0567 43.9259 16.0483 43.9175C14.0467 41.7929 12.7514 38.8074 12.3001 35.2831C12.0753 33.5378 11.9763 31.7606 12.0048 30.0001C11.9796 28.2363 12.0937 26.4557 12.342 24.7087C12.7917 21.1962 14.087 18.2107 16.0886 16.0827C16.097 16.0744 16.1054 16.066 16.1138 16.0576C18.2379 14.0571 21.2227 12.7599 24.7445 12.3101C26.4894 12.0853 28.2645 11.9862 30.0229 12.0148C31.7879 11.9594 33.5698 12.0601 35.3181 12.3118C38.8331 12.7616 41.8179 14.0571 43.942 16.0592C43.9504 16.0676 43.9588 16.0744 43.9655 16.0827C45.9638 18.204 47.2591 21.1862 47.7138 24.7087H47.7155C47.9671 26.4574 48.0527 28.2397 47.9688 30.0052C48.0208 31.7673 47.9218 33.5462 47.6718 35.2915C47.4554 36.9865 47.0393 38.5707 46.4386 39.9939C45.7994 41.5042 44.9538 42.8233 43.9236 43.9175C43.9152 43.9259 43.9085 43.9343 43.9001 43.941C43.281 44.525 42.5813 45.0553 41.823 45.5152C39.974 46.6379 37.7693 47.3696 35.2711 47.6901C33.5261 47.915 31.7493 48.0123 29.991 47.9855C29.6789 47.9955 29.3668 48.0006 29.0531 48.0006ZM16.8738 43.1153C18.8218 44.9429 21.5784 46.1294 24.8502 46.5489C26.5464 46.7923 28.2645 46.8896 29.9675 46.8359C29.9759 46.8359 29.986 46.8359 29.9943 46.8359C31.704 46.8628 33.4288 46.7671 35.1234 46.5489C37.4623 46.2502 39.5143 45.5705 41.2257 44.5334C41.9102 44.1172 42.5411 43.6406 43.0981 43.117C44.0293 42.1252 44.796 40.9253 45.3783 39.5474C45.9386 38.2217 46.3262 36.7381 46.5309 35.1388C46.7725 33.4438 46.8698 31.7236 46.8178 30.0186C46.8178 30.0035 46.8178 29.9884 46.8178 29.9733C46.8984 28.2732 46.8178 26.5564 46.5745 24.8732L47.1651 24.7876L46.5712 24.8648C46.15 21.5889 44.9622 18.83 43.1367 16.8866C41.1921 15.059 38.4354 13.8725 35.1603 13.4547C33.4657 13.2113 31.746 13.1157 30.043 13.1677C30.0346 13.1677 30.0245 13.1677 30.0162 13.1677C28.3098 13.1408 26.5833 13.2365 24.8904 13.4547C21.6187 13.8725 18.8603 15.0607 16.9141 16.8866C15.0869 18.835 13.9007 21.594 13.4813 24.8648C13.2397 26.5632 13.1289 28.2867 13.1541 29.9934V30.0119C13.1256 31.7203 13.2229 33.4455 13.441 35.1388C13.8605 38.4147 15.0467 41.172 16.8721 43.117L16.8738 43.1153Z" fill="white"/>
<path d="M18.988 24.9117H22.1306C22.5836 24.9066 23.0333 24.9905 23.4544 25.16C24.2312 25.5007 24.8503 26.12 25.1909 26.897C25.5215 27.7193 25.5215 28.639 25.1909 29.4613C25.0299 29.8506 24.7899 30.203 24.4862 30.4951C24.1876 30.7887 23.8386 31.027 23.4544 31.1982C23.0349 31.3711 22.5836 31.455 22.1306 31.4466H20.7246V34.0529H19.03V24.9133H18.988V24.9117ZM20.686 26.4825V29.8338H22.0064C22.2464 29.8372 22.4863 29.7936 22.7111 29.708C22.9141 29.6241 23.097 29.4982 23.2463 29.3371C23.3957 29.1844 23.5081 29.0014 23.5785 28.8001C23.7446 28.3738 23.7446 27.9022 23.5785 27.476C23.493 27.283 23.3806 27.1017 23.2463 26.9389C23.0953 26.7795 22.9141 26.6536 22.7111 26.568C22.4863 26.4825 22.2464 26.4405 22.0064 26.4422H20.686V26.4825ZM29.367 34.0512C28.914 34.0495 28.466 33.9656 28.0432 33.8028C27.6221 33.6333 27.2312 33.395 26.8872 33.0996C26.5432 32.7673 26.2631 32.3746 26.06 31.94C25.6322 30.9398 25.6171 29.8103 26.0181 28.7967C26.2211 28.3637 26.5013 27.971 26.8453 27.6371C27.1808 27.3283 27.5734 27.09 28.0013 26.9339C28.4375 26.7694 28.9006 26.6855 29.367 26.6855C29.82 26.6771 30.2714 26.761 30.6908 26.9339C31.0784 27.095 31.4307 27.335 31.7227 27.6371V26.6855H33.4206V34.0478H31.7227V33.0174C31.4425 33.3547 31.0901 33.6232 30.6908 33.8028C30.2697 33.9723 29.82 34.0562 29.367 34.0512ZM29.6573 32.5206C29.9543 32.5341 30.2512 32.477 30.5247 32.3562C30.7814 32.2437 31.0197 32.091 31.2277 31.9014C31.4156 31.7084 31.57 31.4835 31.6841 31.2385C32.028 30.4464 31.8468 29.525 31.2277 28.9242C31.0281 28.7245 30.7881 28.5701 30.5247 28.4678C30.2596 28.3218 29.9593 28.2513 29.6573 28.2614C29.3586 28.2563 29.0633 28.3117 28.7882 28.4258C28.5248 28.5282 28.2865 28.6843 28.0852 28.8823C27.8838 29.0635 27.7278 29.2901 27.6305 29.5435C27.4073 30.0721 27.4073 30.6679 27.6305 31.1965C27.758 31.4466 27.909 31.6832 28.0852 31.9014C28.2932 32.0893 28.5298 32.2437 28.7882 32.3562C29.0667 32.4569 29.3603 32.5139 29.6573 32.5206ZM35.7746 26.7308L37.8417 31.7352L39.7426 26.7308H41.5211L37.1806 37.3992H35.4424L36.9709 33.7189L33.9944 26.7308H35.7729H35.7746Z" fill="white"/>
</svg>
