<svg width="60" height="60" viewBox="0 0 60 60" fill="none" xmlns="http://www.w3.org/2000/svg">
<rect width="60" height="60" rx="30" fill="#EA1D25"/>
<path d="M37.7059 29.1084C37.6243 27.8434 37.2979 26.5783 36.6451 25.4819L31.0958 15.4458C30.6878 14.6867 30.3614 13.8434 30.1982 13L29.9533 13.4217C28.566 15.8675 28.566 18.988 29.9533 21.4337L34.4417 29.4458C35.829 31.8916 35.829 35.012 34.4417 37.4578L34.1969 37.8795C34.0337 37.0361 33.7072 36.1928 33.2992 35.4337L29.2189 28.0964L26.6075 23.3735C26.1995 22.6145 25.873 21.7711 25.7098 20.9277L25.465 21.3494C24.0777 23.7952 24.0777 26.8313 25.465 29.3614L29.9533 37.3735C31.3407 39.8193 31.3407 42.9398 29.9533 45.3855L29.7085 45.8072C29.5453 44.9639 29.2189 44.1205 28.8109 43.3614L23.18 33.3253C22.4456 31.9759 22.1192 30.4578 22.1192 28.9398C16.1619 30.5422 12 34 12 37.9639C12 43.5301 19.9974 48 29.8717 48C39.7461 48 47.7435 43.5301 47.7435 37.9639C47.8251 34.1687 43.7448 30.7108 37.7059 29.1084Z" fill="white"/>
</svg>
