<svg width="60" height="60" viewBox="0 0 60 60" fill="none" xmlns="http://www.w3.org/2000/svg">
<rect width="60" height="60" rx="30" fill="#D70B54"/>
<path d="M16.2586 33.3996H12.4347C12.2861 33.3996 12.1651 33.5216 12.1651 33.6714V47.0427C12.1651 47.1925 12.2861 47.3145 12.4347 47.3145H13.7827C13.9312 47.3145 14.0523 47.1925 14.0523 47.0427V41.7829H16.2586C17.3095 41.7829 18.1678 40.923 18.1678 39.8577V35.3192C18.1678 34.2595 17.315 33.3996 16.2586 33.3996ZM16.2366 38.6704C16.2366 39.1975 15.8129 39.6191 15.2957 39.6191H14.2669V35.3858H15.2957C15.8184 35.3858 16.2366 35.813 16.2366 36.3346V38.6704ZM23.2187 33.627C23.1967 33.4939 23.0867 33.3996 22.9546 33.3996H20.7978C20.6658 33.3996 20.5557 33.4939 20.5337 33.627L18.3934 46.9983C18.3659 47.1647 18.4924 47.309 18.6575 47.309H19.9945C20.1266 47.309 20.2421 47.2091 20.2586 47.076L20.5667 44.8456H23.1857L23.4938 47.076C23.5103 47.2091 23.6259 47.309 23.7579 47.309H25.0949C25.26 47.309 25.3865 47.1592 25.359 46.9983L23.2187 33.627ZM21.8762 42.7317H20.9079L21.8707 36.0572L22.8336 42.7317H21.8762ZM38.2999 33.627C38.2779 33.4939 38.1679 33.3996 38.0358 33.3996H35.879C35.7469 33.3996 35.6369 33.4939 35.6149 33.627L33.4746 46.9983C33.4471 47.1647 33.5736 47.309 33.7387 47.309H35.0757C35.2077 47.309 35.3233 47.2091 35.3398 47.076L35.6479 44.8456H38.2669L38.575 47.076C38.5915 47.2091 38.7071 47.309 38.8391 47.309H40.1761C40.3412 47.309 40.4677 47.1592 40.4402 46.9983L38.2999 33.627ZM36.9574 42.7317H35.9945L36.9574 36.0572L37.9203 42.7317H36.9574ZM32.6053 38.5372V35.2194C32.6053 34.2151 31.7965 33.3996 30.8006 33.3996H26.63C26.4815 33.3996 26.3604 33.5216 26.3604 33.6714V47.0427C26.3604 47.1925 26.4815 47.3145 26.63 47.3145H27.978C28.1266 47.3145 28.2476 47.1925 28.2476 47.0427V41.7829H29.6506C30.0963 41.7829 30.4595 42.1491 30.4595 42.5985V47.0427C30.4595 47.1925 30.5805 47.3145 30.7291 47.3145H32.3357C32.4842 47.3145 32.6053 47.1925 32.6053 47.0427V41.7829C32.6053 40.9951 31.9725 40.357 31.1912 40.357H30.8006C31.7965 40.357 32.6053 39.5415 32.6053 38.5372ZM30.465 38.5927C30.465 39.1586 30.0083 39.6191 29.4471 39.6191H28.3742V35.1362H29.4471C30.0083 35.1362 30.465 35.5967 30.465 36.1626V38.5927ZM47.7084 38.5372V35.2194C47.7084 34.2151 46.8996 33.3996 45.9038 33.3996H41.7332C41.5846 33.3996 41.4636 33.5216 41.4636 33.6714V47.0427C41.4636 47.1925 41.5846 47.3145 41.7332 47.3145H43.0812C43.2298 47.3145 43.3508 47.1925 43.3508 47.0427V41.7829H44.7538C45.1995 41.7829 45.5626 42.1491 45.5626 42.5985V47.0427C45.5626 47.1925 45.6837 47.3145 45.8322 47.3145H47.4388C47.5874 47.3145 47.7084 47.1925 47.7084 47.0427V41.7829C47.7084 40.9951 47.0757 40.357 46.2944 40.357H45.9038C46.8996 40.357 47.7084 39.5415 47.7084 38.5372ZM45.5626 38.5927C45.5626 39.1586 45.106 39.6191 44.5448 39.6191H43.4719V35.1362H44.5448C45.106 35.1362 45.5626 35.5967 45.5626 36.1626V38.5927ZM12 26.8804V29.2273C12 30.6254 13.1224 31.7573 14.5089 31.7573H15.8459C17.293 31.7573 18.4704 30.57 18.4704 29.1108V27.757C18.4704 26.2923 17.8377 24.8997 16.7373 23.9454L15.4278 22.8024C15.1048 22.5209 14.8457 22.1724 14.6681 21.7809C14.4906 21.3893 14.3988 20.9638 14.3989 20.5332V20.1504C14.3989 19.651 14.8006 19.2405 15.3012 19.2405C15.7964 19.2405 16.2036 19.6455 16.2036 20.1504V21.6373C16.2036 21.7871 16.3246 21.9092 16.4732 21.9092H18.2063C18.3549 21.9092 18.4759 21.7871 18.4759 21.6373V20.1115C18.4759 18.5969 17.26 17.3652 15.7524 17.3652H14.7235C13.2215 17.3652 12 18.5913 12 20.1115V20.9882C12 22.3586 12.6107 23.6624 13.6671 24.5279L15.1362 25.7375C15.8074 26.2923 16.2036 27.1245 16.2036 28.0011V28.7834C16.2036 29.3105 15.7799 29.7433 15.2517 29.7433H15.1252C14.5915 29.7433 14.1623 29.3105 14.1623 28.7723V26.8859C14.1623 26.7361 14.0413 26.6196 13.8982 26.6196H12.2696C12.1155 26.6141 12 26.7361 12 26.8804ZM19.6039 17.637V31.4854C19.6039 31.6352 19.7249 31.7573 19.8735 31.7573H24.8638C25.0124 31.7573 25.1334 31.6352 25.1334 31.4854V29.6711C25.1334 29.5213 25.0124 29.3993 24.8638 29.3993H21.5956V25.3824H24.1541C24.3026 25.3824 24.4237 25.2603 24.4237 25.1105V23.3184C24.4237 23.1686 24.3026 23.0466 24.1541 23.0466H21.5956V19.5456H24.8638C25.0124 19.5456 25.1334 19.4236 25.1334 19.2738V17.6315C25.1334 17.4817 25.0124 17.3596 24.8638 17.3596H19.8735C19.7249 17.3707 19.6039 17.4928 19.6039 17.637ZM34.8666 17.3707H32.3081C32.1651 17.3707 32.0385 17.4761 32.0165 17.6204L30.6685 26.1869L29.326 17.6204C29.304 17.4761 29.1775 17.3707 29.0344 17.3707H26.476C26.3109 17.3707 26.1788 17.5039 26.1788 17.6703V31.5243C26.1788 31.6519 26.2834 31.7628 26.4154 31.7628H27.8735C28 31.7628 28.1101 31.6574 28.1101 31.5243V20.7385L30.0413 31.3023C30.0633 31.4133 30.1568 31.4965 30.2724 31.4965H31.0647C31.1802 31.4965 31.2738 31.4133 31.2958 31.3023L33.2325 20.7385V31.5187C33.2325 31.6463 33.337 31.7573 33.4691 31.7573H34.9271C35.0537 31.7573 35.1637 31.6519 35.1637 31.5187V17.6648C35.1637 17.5039 35.0317 17.3707 34.8666 17.3707Z" fill="white"/>
<path d="M48.043 19.5122L42.4199 13.2705C42.0952 12.9098 41.5285 12.9098 41.1984 13.2705L35.5753 19.5122C35.2341 19.8895 35.2396 20.4721 35.5918 20.8438L36.7307 22.0422C37.1214 22.4473 37.7706 22.4417 38.1447 22.02L40.186 19.7508V30.9971C40.197 31.5575 40.8958 31.8071 41.2754 31.4021L42.7775 29.8264C43.1846 29.3992 43.4157 28.8277 43.4157 28.2285V19.7508L45.457 22.02C45.8311 22.4362 46.4804 22.4473 46.871 22.0422L48.01 20.8438C48.3731 20.4776 48.3841 19.8951 48.043 19.5122Z" fill="white"/>
</svg>
