<svg width="60" height="60" viewBox="0 0 60 60" fill="none" xmlns="http://www.w3.org/2000/svg">
<rect width="60" height="60" rx="30" fill="#ED4C2F"/>
<path fill-rule="evenodd" clip-rule="evenodd" d="M31.752 39.7028C29.656 40.111 26.9504 39.4021 25.4853 37.8233C24.8223 37.1144 25.8917 36.0296 26.5547 36.7492C27.5386 37.8125 29.3031 38.3173 30.7361 38.2851C32.5647 38.2422 34.1902 36.5774 33.1529 34.7086C31.7092 32.1201 28.1695 32.8505 26.3408 30.8098C24.8651 29.1665 25.5709 26.5889 27.2926 25.4504C29.0999 24.2582 32.2118 24.3012 33.6983 26.0089C34.3399 26.7392 33.2705 27.824 32.6289 27.0829C31.4312 25.6974 28.5973 25.8907 27.5172 27.3085C25.9772 29.3384 28.2764 30.4339 29.8912 30.9172C32.1049 31.5939 34.5538 32.8183 34.9602 35.3637C35.2917 37.4151 33.709 39.3162 31.752 39.7028ZM17.7536 20.4776H42.7133C44.3816 20.4776 45.729 21.8416 45.729 23.5064V41.0561C45.729 42.7316 44.3709 44.0849 42.7133 44.0849H17.0264C15.3581 44.0849 14.0107 42.7316 14 41.0561V19.3821C14 18.598 14.6523 18.0503 15.4223 17.9536L38.4357 15C39.2271 15 39.858 15.6444 39.858 16.4285V18.8773H16.3099C16.3099 19.9191 16.62 20.4776 17.7536 20.4776Z" fill="white"/>
</svg>
