<svg width="60" height="60" viewBox="0 0 60 60" fill="none" xmlns="http://www.w3.org/2000/svg">
<rect width="60" height="60" rx="30" fill="#003B43"/>
<path d="M13.8244 14.024C13.5363 14.0481 13.2483 14.1202 12.9842 14.2883C12.3601 14.6487 12 15.3215 12 15.9942C12 16.2825 12.072 16.5949 12.216 16.8832L21.89 33.7255L25.0347 28.2956L30.1477 19.454L27.0031 14.024H13.8244Z" fill="#6EBB49"/>
<path d="M48.0795 16.8111C48.1995 16.5468 48.2715 16.2585 48.2715 15.9461C48.2715 15.2253 47.8634 14.5766 47.2873 14.2403C47.0233 14.0961 46.7352 14 46.4231 14L27.0032 14.0481L30.1478 19.478L35.2609 28.2956L41.5261 28.2475L48.0795 16.8111Z" fill="#00AE9C"/>
<path d="M28.5152 45.138C28.6832 45.3782 28.8992 45.5704 29.1633 45.7386C29.7874 46.099 30.5316 46.075 31.1317 45.7386C31.3958 45.5945 31.6118 45.3782 31.7798 45.1139L41.5018 28.2956H35.2365L25.0345 28.2716L21.9138 33.7015L28.5152 45.138Z" fill="#B8D335"/>
</svg>
