<svg width="60" height="60" viewBox="0 0 60 60" fill="none" xmlns="http://www.w3.org/2000/svg">
<rect width="60" height="60" rx="30" fill="#EB7F02"/>
<path d="M31.2009 23.249C31.8103 23.249 32.3057 22.7536 32.3057 22.1442C32.3057 21.5348 31.8103 21.0415 31.2009 21.0415C30.5915 21.0415 30.0982 21.5348 30.0961 22.1442C30.0961 22.7536 30.5915 23.249 31.2009 23.249ZM35.6076 32.9889H35.6161C36.041 32.9889 36.4183 32.8811 36.7105 32.7422C37.0049 32.6013 37.2121 32.4396 37.3178 32.2945C37.3821 32.1992 37.4235 32.0852 37.4235 31.9629C37.4235 31.8717 37.4028 31.7784 37.3593 31.6851C37.2515 31.4716 37.0235 31.368 36.8224 31.3638C36.7853 31.3638 36.7478 31.3681 36.7126 31.3762C36.6028 31.4074 36.526 31.4446 36.4494 31.4695C36.3706 31.4965 36.2877 31.5151 36.1447 31.5151C35.9105 31.5151 35.7695 31.4239 35.6762 31.3306C35.6598 31.312 35.5166 31.1337 35.4627 30.9099C35.3757 30.5409 35.3694 30.0144 35.3653 29.6455C35.3717 29.5107 35.3717 22.0675 35.3717 21.8664C35.3717 21.5908 35.2307 21.369 35.0338 21.2384C34.8369 21.1037 34.5882 21.0435 34.3415 21.0435C34.0907 21.0435 33.8378 21.1057 33.6388 21.2384C33.4378 21.3669 33.2886 21.5825 33.2906 21.854V30.6653C33.2906 31.1565 33.4295 31.7327 33.7943 32.1929C34.1571 32.653 34.7499 32.9888 35.608 32.9888M39.8675 25.7321C40.3898 24.9859 40.937 24.8968 41.194 24.8947C41.6148 24.899 42.0418 25.1725 42.1641 25.8275C42.1848 25.9373 42.1932 26.0451 42.1932 26.1487C42.1932 26.6006 42.0191 26.9924 41.758 27.2908C41.1341 27.9831 40.2656 28.18 39.3473 28.2775C39.3473 28.1966 39.3473 28.1137 39.3473 28.0308C39.3473 27.2224 39.4571 26.3104 39.8675 25.7321ZM38.4892 31.9338C39.1732 32.5826 40.106 32.9785 41.2729 32.9785H41.2782C41.9125 32.9785 42.5011 32.8686 42.9426 32.6862C43.1623 32.5929 43.3468 32.4831 43.4836 32.3525C43.6183 32.2219 43.7096 32.0623 43.7096 31.8841C43.7096 31.8571 43.7096 31.8281 43.7011 31.7991C43.6576 31.4964 43.4088 31.2912 43.1269 31.2975C43.0564 31.2975 42.9859 31.3078 42.9155 31.3306C42.5693 31.4405 42.2356 31.5006 41.8273 31.5006C41.7112 31.5006 41.593 31.4963 41.4645 31.4861C40.6023 31.4177 40.0945 30.8995 39.7877 30.3689C39.6364 30.1056 39.5369 29.8403 39.4788 29.6372C39.4517 29.5481 39.4332 29.4693 39.4208 29.4092C40.6002 29.3595 41.62 29.2226 42.5838 28.7127C43.0772 28.4371 43.6865 27.9914 44.0016 27.3717C44.1985 26.9696 44.3022 26.5073 44.3022 26.0886C44.3022 25.956 44.2915 25.8275 44.2708 25.7073C44.0698 24.5714 43.0147 23.7091 41.3814 23.7133C40.2455 23.7133 38.7842 24.161 37.8929 25.5394C37.5509 26.0762 37.0908 27.1064 37.0908 28.4081C37.0908 28.719 37.1179 29.0444 37.1779 29.3822C37.3748 30.3855 37.808 31.283 38.4899 31.9338M18.2805 32.6572C18.4775 32.7919 18.7262 32.852 18.9728 32.852C19.2237 32.852 19.4765 32.7899 19.6776 32.6572C19.8766 32.5287 20.0258 32.311 20.0238 32.0416C20.0238 32.0416 20.0238 27.2224 20.0238 27.1996C20.036 26.8265 20.1357 26.327 20.3575 25.9353C20.5813 25.5414 20.9026 25.2637 21.4084 25.2616C21.6405 25.2637 21.8001 25.3362 21.9307 25.4523C22.1255 25.6285 22.2395 25.9228 22.2996 26.2213C22.3577 26.5198 22.3639 26.8162 22.3639 26.9841C22.3639 27.0234 22.3639 31.8986 22.3639 32.0292C22.3639 32.309 22.5152 32.5308 22.7225 32.6593C22.9318 32.7919 23.193 32.852 23.4541 32.852C23.7195 32.852 23.9868 32.7899 24.2004 32.6593C24.4097 32.5308 24.5714 32.3152 24.5693 32.0416V27.1955C24.5836 26.8245 24.6833 26.3249 24.903 25.9353C25.129 25.5414 25.4502 25.2637 25.9539 25.2616C26.1861 25.2637 26.3477 25.3362 26.4783 25.4523C26.6711 25.6285 26.7872 25.9249 26.8452 26.2234C26.9053 26.5219 26.9115 26.8162 26.9115 26.9841C26.9115 27.0234 26.9115 31.7182 26.9115 32.0292C26.9115 32.309 27.0649 32.5308 27.2721 32.6593C27.4795 32.7919 27.7427 32.852 28.0038 32.852C28.2691 32.852 28.5366 32.7899 28.748 32.6593C28.9594 32.5308 29.1211 32.3152 29.119 32.0416V27.2867C29.119 26.0824 28.8827 25.1849 28.4412 24.5776C27.9976 23.9703 27.3427 23.6739 26.5716 23.676C25.8275 23.676 25.2595 24.0345 24.8616 24.445C24.5879 24.7268 24.3911 25.0315 24.2605 25.272C24.076 24.789 23.8148 24.4118 23.4811 24.1465C23.0811 23.8293 22.5815 23.676 22.0219 23.676C21.0684 23.6781 20.4155 24.2584 20.0155 24.7932V24.7455C20.0155 24.4677 19.8766 24.248 19.6796 24.1174C19.4828 23.9827 19.2361 23.9226 18.9895 23.9226C18.7366 23.9226 18.4837 23.9848 18.2847 24.1174C18.0836 24.2459 17.9365 24.4615 17.9365 24.733C17.9365 24.733 17.9365 31.8281 17.9365 32.0291C17.9365 32.3048 18.0754 32.5266 18.2723 32.6572M31.8965 24.1174C31.6996 23.9827 31.4529 23.9226 31.2042 23.9226C30.9534 23.9226 30.7005 23.9848 30.5015 24.1174C30.3005 24.2459 30.1533 24.4615 30.1533 24.733C30.1533 24.733 30.1533 31.8281 30.1533 32.0291C30.1533 32.3048 30.2922 32.5266 30.4891 32.6572C30.686 32.7919 30.9347 32.852 31.1814 32.852C31.4322 32.852 31.6851 32.7898 31.8841 32.6572C32.0851 32.5287 32.2343 32.311 32.2323 32.0416C32.2323 32.0416 32.2323 24.9465 32.2323 24.7455C32.2323 24.4677 32.0934 24.248 31.8965 24.1174ZM53.4904 27.8795C53.4819 27.8298 53.449 27.7883 53.4013 27.7738C53.3535 27.7593 53.3018 27.7716 53.2666 27.809C53.2666 27.809 53.2374 27.8422 53.1754 27.9043C53.1153 27.9665 53.022 28.0598 52.8997 28.1759C52.6531 28.4122 52.282 28.75 51.7908 29.1542C51.4425 29.4423 51.0322 29.7636 50.5616 30.1077C50.551 29.9709 50.5304 29.8424 50.5015 29.7221C50.3772 29.2164 50.0807 28.8329 49.7201 28.5262C49.175 28.066 48.4765 27.7634 47.9044 27.4338C47.6163 27.268 47.3634 27.098 47.1748 26.9073C46.9861 26.7146 46.8659 26.5073 46.8286 26.2503C46.8201 26.2026 46.818 26.1529 46.818 26.1031C46.818 25.8378 46.9195 25.5601 47.1351 25.3507C47.2512 25.2388 47.5973 25.0128 48.0865 25.0128C48.6938 25.0128 49.2079 25.2782 49.496 25.2782C49.8214 25.2844 50.1033 25.0937 50.1882 24.7786C50.2047 24.7164 50.2132 24.6522 50.2132 24.59C50.2132 24.2314 49.9147 23.8977 49.5085 23.7961C49.5085 23.7961 49.1416 23.6718 48.3664 23.6718C47.2865 23.6739 46.4014 23.9392 45.7796 24.4055C45.1578 24.8719 44.8075 25.5435 44.8075 26.3145C44.8075 26.526 44.8345 26.7457 44.8863 26.9695C45.1205 27.9209 46.0573 28.437 46.9217 28.8993C47.357 29.1293 47.7819 29.347 48.099 29.5812C48.4203 29.8175 48.6234 30.0621 48.667 30.3481C48.6733 30.3978 48.6771 30.4455 48.6771 30.4932C48.6771 30.7544 48.5714 30.9969 48.3475 31.1855C48.1215 31.3741 47.765 31.5068 47.2614 31.5151H47.2136C46.6643 31.5172 46.1938 31.3576 45.885 31.2228C45.7502 31.1586 45.6113 31.1275 45.4808 31.1275C45.1533 31.1232 44.8796 31.3472 44.8361 31.6726C44.8308 31.7037 44.8298 31.7348 44.8298 31.7659C44.8298 32.0001 44.9541 32.1929 45.1241 32.3421C45.3811 32.566 45.7459 32.7173 46.0921 32.8188C42.2741 34.7278 36.972 36.4524 30.2666 36.4524C23.497 36.4524 18.1555 34.6947 14.3312 32.7629C15.1189 32.6136 15.7552 32.2965 16.2299 31.8654C16.9015 31.2581 17.2435 30.431 17.2414 29.5729C17.2414 29.3781 17.225 29.1791 17.1894 28.9801C17.0692 28.321 16.7106 27.7986 16.2484 27.3716C15.5561 26.7291 14.6296 26.2793 13.8564 25.8274C13.4709 25.6015 13.1227 25.3756 12.8657 25.1351C12.6065 24.8947 12.4407 24.6418 12.391 24.3579C12.3766 24.2812 12.3681 24.2003 12.3681 24.1195C12.3681 23.7547 12.5091 23.365 12.82 23.0665C13.1289 22.7681 13.6118 22.5525 14.3228 22.5504C14.7083 22.5504 15.1601 22.6147 15.6825 22.766C15.8338 22.8095 15.9727 22.8323 16.1012 22.8323C16.4598 22.8385 16.7272 22.6395 16.8349 22.3556C16.8742 22.254 16.8951 22.1524 16.8951 22.055C16.8951 21.8104 16.7666 21.6052 16.5862 21.4602C16.4059 21.3151 16.1737 21.2176 15.9291 21.1658C15.4421 21.0684 14.9135 21.0021 14.358 21C14.3527 21 14.3479 21 14.3437 21C12.8596 21 11.7817 21.4166 11.077 22.0385C10.3702 22.6582 10.0427 23.479 10.0427 24.2625C10.0427 24.4366 10.0592 24.6087 10.0905 24.7766C10.3081 25.9207 11.2554 26.6524 12.2213 27.2452C13.1913 27.8359 14.2028 28.3147 14.5863 28.8557C14.7956 29.1438 14.8951 29.4921 14.8951 29.8279C14.8951 30.1699 14.7894 30.4953 14.5966 30.7274C14.2318 31.1669 13.5437 31.4633 12.8037 31.4633C12.3353 31.4633 11.8502 31.3472 11.4067 31.0839C11.3817 31.0674 11.3155 31.0321 11.3093 31.028C10.2459 30.3378 9.38989 29.6869 8.74321 29.1542C8.25196 28.75 7.88302 28.4122 7.63633 28.1759C7.512 28.0598 7.41872 27.9665 7.3586 27.9043C7.29641 27.8422 7.26739 27.809 7.26739 27.809C7.23237 27.7717 7.18036 27.7593 7.13266 27.7738C7.08702 27.7883 7.05185 27.8297 7.04564 27.8795C7.0186 28.064 7 28.2961 7 28.5656C7 28.5863 7 28.607 7 28.6277V28.6464C7.01274 29.3449 7.24876 29.8838 7.88508 30.4725C8.03849 30.628 16.5741 39.3066 30.2667 39.3087C43.9614 39.3065 52.4949 30.628 52.6483 30.4725C53.2846 29.8838 53.5209 29.3449 53.5333 28.6464V28.5656C53.5333 28.2961 53.5147 28.064 53.4898 27.8795" fill="white"/>
</svg>
