<svg width="60" height="60" viewBox="0 0 60 60" fill="none" xmlns="http://www.w3.org/2000/svg">
<rect width="60" height="60" rx="30" fill="#2B3797"/>
<g clip-path="url(#clip0_510_2028)">
<path d="M28.7967 31.5631L28.3429 33.8293C28.1431 34.7481 27.5897 35.3613 26.4591 35.3613C25.1613 35.3613 24.8188 34.5565 25.1035 33.424C25.5065 31.8175 26.8171 31.3389 28.7967 31.5631ZM30.8402 28.323L29.4607 28.411L29.0243 30.6299C28.4968 30.6113 28.3308 30.5946 27.7107 30.5946C25.7691 30.5946 24.0746 31.4107 23.627 33.3251C23.2236 35.0511 24.2041 36.3907 26.3423 36.3907C28.5325 36.3907 29.4855 35.2481 29.828 33.6412L30.8402 28.323Z" fill="white"/>
<path d="M15.8731 31.6599C13.8501 31.4756 12.1098 31.6436 12.0815 32.3304C12.0377 33.3617 15.4158 32.4619 15.3507 34.3593C15.2557 37.1468 10.5584 36.5057 9.396 36.1508L9.60699 35.3235C11.611 35.6415 13.7252 35.6679 13.7717 34.5625C13.8214 33.3877 10.4292 34.4438 10.5087 32.5414C10.5681 31.1242 12.6881 30.3602 16.1582 30.8698L15.8731 31.6599Z" fill="white"/>
<path d="M21.328 33.5561C21.0359 34.7196 20.1132 35.4503 19.0145 35.4503C17.8656 35.4503 17.3486 34.7844 17.6566 33.5561C17.949 32.3925 18.8826 31.6114 19.981 31.6114C21.0786 31.6114 21.62 32.3925 21.328 33.5561ZM20.1578 30.6588C18.1461 30.6588 16.5287 31.8228 16.1312 33.5561C15.7325 35.2905 16.8157 36.4541 18.8267 36.4541C20.8378 36.4541 22.4555 35.2905 22.8534 33.5561C23.2521 31.8228 22.1692 30.6588 20.1578 30.6588Z" fill="white"/>
<path d="M43.4025 36.4246H41.6537C40.5933 35.4275 38.5644 33.1364 37.0708 30.712H38.3542C39.7726 32.6691 43.4025 36.4246 43.4025 36.4246Z" fill="white"/>
<path d="M45.2351 25.078L46.0395 23.4005L46.2691 25.1059L47.9097 24.5319L46.7632 26.0018L48.0067 26.9653L46.3471 27.0936L46.2555 28.8669L45.3328 27.5563L43.9765 28.8068L44.485 27.0448L42.8855 26.828L44.4423 25.9409L43.8035 24.4233L45.2351 25.078Z" fill="white"/>
<path d="M48.6455 33.5736C48.3488 34.7554 47.4117 35.4977 46.2959 35.4977C45.1292 35.4977 44.6033 34.8213 44.9167 33.5736C45.2134 32.3918 46.1613 31.5983 47.2767 31.5983C48.393 31.5983 48.9426 32.3918 48.6455 33.5736ZM47.4567 30.6298C45.4139 30.6298 43.7713 31.8124 43.3664 33.5736C42.9619 35.3352 44.0622 36.5174 46.105 36.5174C48.1482 36.5174 49.7912 35.3352 50.1953 33.5736C50.6002 31.8124 49.4999 30.6298 47.4567 30.6298Z" fill="white"/>
<path d="M35.7456 35.9376C39.0486 34.1031 41.9175 31.2838 43.9525 28.8466C42.4896 33.4255 38.9679 35.8899 35.7456 35.9376Z" fill="#ED1C24"/>
<path d="M34.4382 31.5086C35.0708 31.5086 35.4152 31.7382 35.4152 32.1768C35.4152 33.3412 33.1451 33.2644 32.144 33.0604C32.4962 32.1889 33.2913 31.5086 34.4382 31.5086ZM36.7758 32.1132C36.7758 31.2689 36.1028 30.6483 34.5759 30.6483C32.0994 30.6483 30.4902 32.256 30.4902 34.246C30.4902 35.5314 31.5572 36.5995 33.5062 36.5995C34.8489 36.5995 35.7456 35.9378 35.7456 35.9378C34.0368 36.1209 31.9381 35.9378 31.9381 34.1095C31.9381 34.037 31.942 33.9644 31.9478 33.8919C34.2795 34.376 36.7758 33.7903 36.7758 32.1132Z" fill="white"/>
</g>
<defs>
<clipPath id="clip0_510_2028">
<rect width="41.6744" height="14" fill="white" transform="translate(9 23)"/>
</clipPath>
</defs>
</svg>
