<svg width="60" height="60" viewBox="0 0 60 60" fill="none" xmlns="http://www.w3.org/2000/svg">
<rect width="60" height="60" rx="30" fill="#00A868"/>
<path d="M20.6681 21.3304C20.4572 21.1197 20.1712 21.0014 19.8731 21.0014C19.575 21.0014 19.289 21.1197 19.0781 21.3304L12.598 28.4747C12.2136 28.8891 12 29.4335 12 29.9987C12 30.5639 12.2136 31.1083 12.598 31.5226V31.5271L19.0796 38.6715C19.2372 38.8283 19.4377 38.9349 19.6558 38.9778C19.8739 39.0207 20.0999 38.9981 20.3052 38.9127C20.5104 38.8273 20.6858 38.6831 20.8091 38.4981C20.9324 38.3131 20.9982 38.0958 20.9981 37.8735V22.1239C20.9978 21.8256 20.8791 21.5397 20.6681 21.3289V21.3304ZM29.9982 46.9228C29.9986 47.0695 30.0289 47.2147 30.0873 47.3494C30.1456 47.4841 30.2308 47.6054 30.3376 47.7061C30.4445 47.8067 30.5707 47.8845 30.7086 47.9348C30.8465 47.985 30.9932 48.0066 31.1398 47.9982C40.5494 47.4043 48 39.5745 48 30.0002C47.9985 20.4259 40.5464 12.5931 31.1383 12.0021C30.9916 11.9929 30.8446 12.0139 30.7064 12.0638C30.5681 12.1137 30.4417 12.1915 30.3348 12.2924C30.2279 12.3932 30.1428 12.515 30.0849 12.65C30.027 12.7851 29.9975 12.9306 29.9982 13.0776V19.8304C30.0008 20.1328 30.1141 20.4237 30.3167 20.6482C30.5193 20.8726 30.7972 21.015 31.0978 21.0484C33.2769 21.3202 35.2814 22.3798 36.7333 24.0273C38.1872 25.6762 38.9894 27.7989 38.9894 29.9972C38.9894 32.1955 38.1872 34.3182 36.7333 35.967C35.2814 37.6146 33.2769 38.6742 31.0978 38.946C30.7964 38.9784 30.5176 39.1207 30.3145 39.3456C30.1115 39.5705 29.9983 39.8624 29.9967 40.1654V46.9228H29.9982Z" fill="white"/>
</svg>
