<svg width="60" height="60" viewBox="0 0 60 60" fill="none" xmlns="http://www.w3.org/2000/svg">
<rect width="60" height="60" rx="30" fill="black"/>
<path d="M45.441 12H14.559C13.1632 12 12 13.1688 12 14.5714V45.4286C12 46.8312 13.1632 48 14.559 48H45.441C46.8368 48 48 46.8312 48 45.4286V14.5714C48 13.1104 46.8368 12 45.441 12ZM34.5654 39.0584C31.4249 42.2143 26.4233 42.3312 23.1082 39.4675L23.0501 39.4091C22.8756 39.2338 22.8174 38.8831 23.0501 38.6494L34.2165 27.487C34.4491 27.3117 34.7399 27.3117 34.9725 27.487C37.8805 30.8766 37.7641 35.9026 34.5654 39.0584ZM36.8918 21.2338L25.7254 32.3961C25.4927 32.5714 25.2019 32.5714 24.9693 32.3961C22.0614 29.0649 22.1777 24.039 25.3183 20.8831C28.4588 17.7273 33.4604 17.6104 36.7754 20.474C36.7754 20.474 36.8336 20.474 36.8336 20.5325C37.1244 20.7078 37.1244 21.0584 36.8918 21.2338Z" fill="white"/>
</svg>
