<svg width="60" height="60" viewBox="0 0 60 60" fill="none" xmlns="http://www.w3.org/2000/svg">
<rect width="60" height="60" rx="30" fill="#56AC35"/>
<path fill-rule="evenodd" clip-rule="evenodd" d="M24.9558 48.9023C26.5192 46.9274 28.0321 44.7726 29.2693 42.9672C30.3603 41.3624 31.5405 39.4315 32.2446 37.9627C36.7832 28.4945 24.4627 27.9523 26.2513 29.9207C28.0411 31.8891 28.1964 35.034 28.0476 36.8484C27.6956 41.1217 27.2452 43.613 24.9558 48.9023Z" fill="white"/>
<path fill-rule="evenodd" clip-rule="evenodd" d="M33.8714 27.2957C35.6638 30.7459 34.1742 36.0404 29.2823 42.9551C30.6476 38.3117 29.2874 33.5633 26.8893 30.6424C24.002 27.1248 18.6105 24.1897 10.8145 21.7527C24.3929 21.9986 32.079 23.8467 33.8714 27.2957Z" fill="white"/>
<path fill-rule="evenodd" clip-rule="evenodd" d="M36.1492 48.3055C38.3286 45.6499 40.3552 42.9347 42.0855 40.503C43.8417 37.8098 45.2252 35.369 46.3498 33.5624C53.284 22.4053 35.8981 19.7277 38.291 22.4545C40.6826 25.1813 40.8988 29.4728 40.6529 31.9421C40.0705 37.7619 39.3975 41.1488 36.1492 48.3055Z" fill="white"/>
<path fill-rule="evenodd" clip-rule="evenodd" d="M48.7928 19.1196C51.1547 23.8731 48.9986 31.0674 42.1602 40.3945C44.1325 34.0841 42.3906 27.5679 39.1914 23.5224C35.336 18.6511 28.0524 14.5124 17.4778 11C35.9909 11.6587 46.4297 14.3648 48.7928 19.1196Z" fill="white"/>
</svg>
