<svg width="60" height="60" viewBox="0 0 60 60" fill="none" xmlns="http://www.w3.org/2000/svg">
<rect width="60" height="60" rx="30" fill="#D52B1E"/>
<path d="M30.0705 49.1404C40.6013 49.1404 49.1382 40.6024 49.1382 30.0702C49.1382 19.538 40.6013 11 30.0705 11C19.5398 11 11.0029 19.538 11.0029 30.0702C11.0029 40.6024 19.5398 49.1404 30.0705 49.1404Z" fill="#D52B1E"/>
<path fill-rule="evenodd" clip-rule="evenodd" d="M44.5615 31.4187H38.7811C39.0002 32.6739 40.197 33.1556 41.2335 33.1556C41.8903 33.1556 42.4741 33.0096 43.0435 32.7471L42.883 34.4693C42.2406 34.732 41.4671 34.8342 40.6935 34.8342C38.1245 34.8342 36.3145 33.3309 36.3145 30.7765C36.3145 28.5578 37.9346 26.8938 40.416 26.8938C43.2185 26.8938 44.6198 28.6746 44.5615 31.4187ZM34.1103 34.6883C33.9934 34.4109 33.8182 33.9585 33.6723 33.506L33.3366 32.382C33.1614 31.7838 32.9279 31.5355 32.3585 31.5355H31.3952V34.6883H29.1619V24.3832H31.3952V30.0612H31.6435L33.7598 27.0399H36.2412L33.7452 30.1925H33.8766C34.8691 30.1925 35.161 30.7473 35.4093 31.5647L35.8326 32.9806C35.9785 33.506 36.2851 34.2504 36.5185 34.6883H34.1103ZM26.9578 32.9806C27.5416 32.9806 28.0234 32.8199 28.3883 32.6449L28.184 34.4986C27.7169 34.732 27.0599 34.8488 26.4907 34.8488C24.0821 34.8488 22.4184 33.2871 22.4184 30.8495C22.4184 28.4411 24.0531 26.8938 26.4761 26.8938C27.3664 26.8938 28.0526 27.0689 28.753 27.39L28.1108 29.1124C27.7751 28.9081 27.3081 28.7476 26.8118 28.7476C25.5858 28.7476 24.7829 29.5503 24.7829 30.8495C24.7829 32.1339 25.6294 32.995 26.9578 32.9806ZM19.4551 26.0618H21.732V24.3832H19.4551V26.0618ZM19.4551 34.6883H21.732V27.0399H19.4551V34.6883ZM45.0436 30.5576V25.3612L47.3206 24.4416V27.1857H48.8531L48.5466 28.8935H47.2913V30.645C47.2913 32.3464 47.9362 33.5447 48.6199 34.5068C48.9594 33.083 49.14 31.5975 49.14 30.0698C49.1399 19.5378 40.6019 11 30.0699 11C21.5186 11 14.2819 16.6286 11.8624 24.3832H18.9586L18.6813 26.4267H15.7181V34.6883H13.295V26.4267H11.349C11.1209 27.6061 11 28.8237 11 30.0698C11.0002 40.6019 19.5379 49.1397 30.0701 49.1397C39.0094 49.1397 46.5108 42.9887 48.5758 34.6883H46.328C45.9339 34.0023 45.029 32.7615 45.0436 30.5576ZM40.489 28.4702C39.5257 28.4702 38.9127 29.0978 38.7228 29.9298H42.1531C42.0363 29.0103 41.3941 28.4702 40.489 28.4702Z" fill="white"/>
</svg>
