<svg width="60" height="60" viewBox="0 0 60 60" fill="none" xmlns="http://www.w3.org/2000/svg">
<rect width="60" height="60" rx="30" fill="#00CC2C"/>
<path d="M46.5992 33.7752C47.6146 33.7752 48.438 32.9522 48.438 31.9373V26.9349C48.438 22.9374 45.6117 19.9233 41.8633 19.9233C38.1149 19.9233 35.2886 22.9374 35.2886 26.9349V31.9373C35.2886 32.9522 36.112 33.7752 37.1273 33.7752C38.1427 33.7752 38.9662 32.9522 38.9662 31.9373V26.9349C38.9662 24.7868 40.0765 23.452 41.8633 23.452C43.65 23.452 44.7604 24.7868 44.7604 26.9349V31.9373C44.7604 32.9522 45.5839 33.7752 46.5992 33.7752Z" fill="white"/>
<path d="M26.8195 19.9233C22.9519 19.9233 19.8044 23.0682 19.8044 26.9349C19.8044 30.8005 22.9509 33.9464 26.8195 33.9464C30.6872 33.9464 33.8347 30.8015 33.8347 26.9349C33.8347 23.0692 30.6882 19.9233 26.8195 19.9233ZM26.8195 30.4177C24.8982 30.4177 23.3349 28.8552 23.3349 26.9349C23.3349 25.0145 24.8982 23.452 26.8195 23.452C28.7408 23.452 30.3042 25.0145 30.3042 26.9349C30.3042 28.8552 28.7408 30.4177 26.8195 30.4177Z" fill="white"/>
<path d="M25.9916 36.3494C26.6213 35.6842 27.7138 35.617 28.4098 36.2131C30.132 37.6878 31.8228 38.4857 34.3468 38.4857C36.87 38.4857 38.5607 37.6887 40.2837 36.2131C40.9789 35.6178 42.0723 35.6842 42.702 36.3494C43.4034 37.0908 43.3451 38.2437 42.5656 38.9017C40.186 40.9117 37.6826 42 34.3477 42C31.0128 42 28.5094 40.9108 26.1298 38.9017C25.3503 38.2428 25.292 37.0908 25.9935 36.3494H25.9916Z" fill="white"/>
<path d="M12 28.0341C12 31.2875 14.3079 33.5502 17.3979 33.7618C17.3979 33.7618 17.815 33.7735 17.8957 33.7717C18.8285 33.7493 19.5847 33.0178 19.5847 32.0871C19.5847 31.1566 18.8285 30.4026 17.8957 30.4026C16.6014 30.4026 15.6739 29.3681 15.6336 28.1148V23.4512H17.736C18.6482 23.4512 19.3874 22.7134 19.3874 21.8043C19.3874 20.8944 18.6482 20.1575 17.736 20.1575H15.6336V18.8118C15.6336 17.8113 14.82 17 13.8172 17C12.8135 16.9991 12 17.8104 12 18.8109V22.5413V28.0341Z" fill="white"/>
</svg>
