<svg width="60" height="60" viewBox="0 0 60 60" fill="none" xmlns="http://www.w3.org/2000/svg">
<rect width="60" height="60" rx="30" fill="#004A35"/>
<g clip-path="url(#clip0_509_1640)">
<path d="M20.7754 34.8481V40.0267L16.515 34.8481H15.3962V41.9164H16.5546V36.7378L20.815 41.9164H21.9959V34.8481H20.7754ZM23.3237 34.8481H24.8211V41.9164H23.3237V34.8481Z" fill="white"/>
<path d="M44.1285 34.8481H40.1846L38.8567 41.9164H43.1793L43.3883 40.7124H41.0265L41.3825 38.8226H43.2979L43.5296 37.6186H41.6198L41.9136 36.0578H43.8969L44.1285 34.8481ZM47.8578 34.8481H45.349L43.9986 41.9164H46.4452C48.8071 41.9164 50.8299 40.3556 50.8299 37.8193C50.8299 36.0522 49.7959 34.8481 47.8578 34.8481ZM46.6995 40.7124H46.1909L47.078 36.0522H47.6035C48.3833 36.0522 48.8466 36.9274 48.8466 37.8416C48.8297 39.7145 47.6035 40.7124 46.6995 40.7124ZM29.3754 40.7124C28.5956 40.7124 28.1323 39.8372 28.1323 38.923C28.1323 37.05 29.3754 36.0522 30.2625 36.0522H32.6865L32.9182 34.8481H30.5168C28.1549 34.8481 26.1321 36.4089 26.1321 38.9453C26.1321 40.6901 27.1661 41.9164 29.1042 41.9164H31.6129L31.8446 40.7124H29.3754ZM37.1503 38.778C37.8227 38.4436 38.6703 37.8861 38.6703 36.6542C38.6703 35.9072 38.1617 34.8648 36.6474 34.8648H33.7601L32.4097 41.9387H34.3477L34.8563 39.2574H35.4044L36.1446 41.9387H38.2747L37.1503 38.778ZM35.6756 38.0311H35.0879L35.4891 36.0355H35.9976C36.4214 36.0355 36.7548 36.4535 36.7548 36.866C36.7491 37.5294 36.2011 38.0311 35.6756 38.0311Z" fill="#B9A557"/>
<path d="M12.5938 34.8481V38.7167C12.5542 40.2999 12.2547 41.214 11.0569 41.214H11.0343C9.83072 41.214 9.5143 40.2999 9.49735 38.7167V34.8481H8V39.1738C8 40.7124 8.57069 41.6266 9.89853 41.9164C9.89853 41.9164 10.2771 42 10.9325 42H11.1416C11.7971 42 12.1135 41.9164 12.1135 41.9164C13.5035 41.6488 14.0742 40.6901 14.0742 39.1738V34.8481H12.5938Z" fill="white"/>
</g>
<path d="M38.2682 26.672L33.9197 19.3056L33.8946 19.2477C33.7689 19.0908 33.6097 19 33.4254 19H27.7363C27.6107 19.033 27.5185 19.1239 27.3928 19.2477L20.4218 26.6142C20.4218 26.6142 20.3883 26.6142 20.3883 26.6472L20.3548 26.6802C20.3213 26.7133 20.3213 26.7711 20.3213 26.8372C20.3213 26.9941 20.447 27.0849 20.5726 27.1179H23.8822C23.9408 27.1179 23.9743 27.151 23.9743 27.2088C23.9743 27.2418 23.9743 27.2418 23.9408 27.2666L20.5978 30.7764L20.5643 30.8094C20.5307 30.8424 20.5308 30.8672 20.5056 30.9003V30.9581C20.5056 31.0159 20.5391 31.0819 20.5978 31.1397C20.6313 31.1728 20.6899 31.1728 20.757 31.1976H23.0359C23.1616 31.1976 23.3208 31.1397 23.413 31.0406L26.9487 27.3161C26.9823 27.2831 26.9823 27.2831 26.9823 27.2583C26.9823 27.2005 26.9487 27.1675 26.8901 27.1675H24.9798C24.9211 27.1675 24.8876 27.1097 24.8876 27.0766C24.8876 27.0436 24.8876 27.0436 24.9211 27.0188L28.6412 23.1044L28.6747 23.0714C28.7334 23.0135 28.8004 22.9805 28.8591 22.9805C28.9512 22.9805 29.0183 23.0135 29.0769 23.1044L31.1715 26.6802L31.3894 27.0519V27.1097C31.3894 27.1675 31.3559 27.2005 31.2972 27.2005H29.3618C29.3031 27.2005 29.2361 27.2583 29.2361 27.3244C29.2361 27.3574 29.2361 27.3822 29.2696 27.4152L31.3642 30.9911V31.0241C31.4564 31.181 31.6156 31.2719 31.7664 31.2719H36.1735C36.2322 31.2719 36.2657 31.2719 36.3327 31.2388C36.4584 31.181 36.5171 31.0819 36.5171 30.9581C36.5171 30.925 36.5171 30.8672 36.4836 30.8342L36.45 30.7764L34.4224 27.3244V27.2914C34.4224 27.2336 34.4559 27.2005 34.5146 27.2005H38.1425C38.1425 27.2005 38.176 27.2005 38.176 27.1675L38.2095 27.1345C38.2095 27.1345 38.2095 27.1014 38.2431 27.1014C38.2431 27.1014 38.2431 27.0684 38.2766 27.0684C38.2766 27.0684 38.2766 27.0354 38.3101 27.0354V27.0106C38.3268 26.8867 38.3268 26.7959 38.2682 26.672ZM31.5486 22.7575H26.2701C26.2114 22.7575 26.1779 22.6997 26.1779 22.6667C26.1779 22.6337 26.1779 22.6089 26.2114 22.6089L29.3366 19.3138C29.3701 19.2808 29.3953 19.2808 29.4288 19.256C29.4623 19.223 29.521 19.1982 29.588 19.1982H29.6215C29.6802 19.1982 29.7807 19.256 29.8058 19.3221L31.6994 22.5759C31.6994 22.6089 31.7329 22.6089 31.7329 22.6337C31.6743 22.6997 31.6072 22.7575 31.5486 22.7575Z" fill="#B9A557"/>
<defs>
<clipPath id="clip0_509_1640">
<rect width="43.5357" height="7.39286" fill="white" transform="translate(8 34.6071)"/>
</clipPath>
</defs>
</svg>
