<svg width="60" height="60" viewBox="0 0 60 60" fill="none" xmlns="http://www.w3.org/2000/svg">
<rect width="60" height="60" rx="30" fill="#27B8CB"/>
<path fill-rule="evenodd" clip-rule="evenodd" d="M41.1835 15.718C41.0686 15.4806 40.8621 15.2987 40.6103 15.2131L37.098 14.0557C36.9921 14.0189 36.8806 14.0001 36.7682 14C36.3433 14 35.9416 14.2677 35.8188 14.6721L32.1041 27.3054C32.0144 27.6155 31.9047 27.9196 31.7754 28.2157C31.4844 28.8802 30.8271 29.3261 30.141 29.3261C29.4549 29.3261 28.7976 28.8802 28.5066 28.2157C28.3849 27.9414 28.2742 27.6365 28.1779 27.3054L24.4632 14.6721C24.3404 14.2677 23.9387 14 23.5149 14C23.4022 13.9999 23.2903 14.0188 23.184 14.0557L19.6717 15.2142C19.421 15.299 19.2149 15.4792 19.0994 15.7148C18.9838 15.9504 18.9684 16.2218 19.0565 16.4687L23.2139 30.1698C23.8446 32.1434 25.0718 33.6516 26.8456 34.5707C27.8055 35.0558 28.8658 35.3157 29.944 35.3302H30.3391C30.8193 35.3302 32.0841 35.2559 33.4364 34.5707C35.2102 33.6527 36.4374 32.1445 37.0681 30.1698L41.2255 16.4687C41.3139 16.223 41.2987 15.9526 41.1835 15.718Z" fill="#2A2264"/>
<path fill-rule="evenodd" clip-rule="evenodd" d="M30.266 46.4324C26.5015 46.4324 23.0955 45.121 20.6776 42.7418C20.3766 42.4577 20.2394 42.1572 20.2737 41.8533C20.3202 41.4457 20.661 41.2042 20.734 41.1572L23.1641 39.4414C23.4194 39.2473 23.7315 39.14 24.0538 39.1354C24.4123 39.1354 24.7431 39.2742 25.0375 39.5463C26.3698 40.7168 28.2288 41.3638 30.266 41.3638C32.3032 41.3638 34.1634 40.7168 35.5012 39.542C35.79 39.2742 36.1209 39.1354 36.4783 39.1354C36.9541 39.1354 37.2972 39.3846 37.3691 39.4414L39.7991 41.1572C39.8722 41.2042 40.213 41.4457 40.2595 41.8533C40.2938 42.1572 40.1566 42.4577 39.8511 42.7462C37.4366 45.1221 34.0306 46.4324 30.266 46.4324Z" fill="#2A2264"/>
</svg>
