<svg width="60" height="60" viewBox="0 0 60 60" fill="none" xmlns="http://www.w3.org/2000/svg">
<rect width="60" height="60" rx="30" fill="#165C7D"/>
<path d="M38.9305 32.1652L35.4505 23.6385C35.1079 22.8484 34.8522 22.2684 34.3315 22.2684C33.8109 22.2684 33.5506 22.8713 33.2355 23.6385L31.1164 28.5527L29.0247 23.6385C28.7095 22.885 28.4584 22.2684 27.9286 22.2684C27.3988 22.2684 27.1522 22.8347 26.8051 23.6385L23.325 32.1697C23.1973 32.4307 23.1411 32.7209 23.162 33.0106C23.1829 33.3004 23.2802 33.5795 23.444 33.8194C23.6079 34.0594 23.8323 34.2516 24.0946 34.3766C24.3569 34.5016 24.6476 34.5548 24.9372 34.5309H26.4717V36.4719C26.4717 36.8074 26.605 37.1292 26.8422 37.3664C27.0795 37.6037 27.4012 37.7369 27.7368 37.7369H28.1935C28.529 37.7369 28.8508 37.6037 29.088 37.3664C29.3253 37.1292 29.4585 36.8074 29.4585 36.4719V35.5219C29.4608 35.4885 29.4608 35.4549 29.4585 35.4215V34.5081H30.9976H31.1483H31.2945H32.8381V35.4215C32.8359 35.4549 32.8359 35.4885 32.8381 35.5219V36.4719C32.8381 36.8074 32.9714 37.1292 33.2087 37.3664C33.4459 37.6037 33.7677 37.7369 34.1032 37.7369H34.5599C34.895 37.7357 35.2161 37.6021 35.4531 37.3651C35.6901 37.1281 35.8238 36.807 35.825 36.4719V34.5309H37.3549C37.6451 34.5553 37.9365 34.5022 38.1994 34.377C38.4623 34.2518 38.6873 34.059 38.8512 33.8184C39.0152 33.5778 39.1123 33.2979 39.1327 33.0075C39.153 32.717 39.0959 32.4263 38.9671 32.1652H38.9305ZM29.6549 33.5855H28.4949V36.4719C28.4949 36.5567 28.4612 36.638 28.4013 36.6979C28.3413 36.7579 28.26 36.7916 28.1752 36.7916H27.7185C27.6337 36.7916 27.5524 36.7579 27.4924 36.6979C27.4325 36.638 27.3988 36.5567 27.3988 36.4719V35.321V33.5855H24.9372C24.8027 33.6108 24.6637 33.5966 24.5371 33.5445C24.4106 33.4925 24.3018 33.4048 24.224 33.2922C24.1462 33.1796 24.1027 33.0469 24.0988 32.9101C24.0948 32.7733 24.1307 32.6383 24.2019 32.5214L27.6728 24.013C27.7231 23.908 27.8235 23.6751 27.9194 23.4741C27.988 23.6111 28.0656 23.7893 28.1569 24.0039L30.6049 29.7629L29.6686 32.1697C29.5722 32.3929 29.5214 32.6331 29.519 32.8762C29.5167 33.1194 29.5629 33.3605 29.6549 33.5855ZM31.7055 33.2704C31.642 33.3646 31.5562 33.4417 31.4559 33.4951C31.3556 33.5484 31.2437 33.5763 31.1301 33.5763C31.0164 33.5763 30.9045 33.5484 30.8042 33.4951C30.7039 33.4417 30.6182 33.3646 30.5546 33.2704C30.4952 33.1529 30.4643 33.023 30.4643 32.8913C30.4643 32.7596 30.4952 32.6298 30.5546 32.5123L31.1301 31.0371L31.7238 32.5168C31.7793 32.6353 31.8065 32.765 31.8033 32.8958C31.8002 33.0265 31.7667 33.1548 31.7055 33.2704ZM38.0354 33.2704C37.9491 33.3745 37.8386 33.4559 37.7137 33.5076C37.5887 33.5594 37.453 33.5798 37.3184 33.5672H34.8476V36.4536C34.8476 36.5384 34.8139 36.6197 34.754 36.6797C34.694 36.7396 34.6127 36.7733 34.5279 36.7733H34.0712C33.9864 36.7733 33.9051 36.7396 33.8452 36.6797C33.7852 36.6197 33.7515 36.5384 33.7515 36.4536V33.5855H32.6052C32.6994 33.3614 32.7479 33.1207 32.7479 32.8776C32.7479 32.6345 32.6994 32.3939 32.6052 32.1697L31.637 29.7629L34.1169 24.0039C34.2082 23.7847 34.2859 23.6111 34.3498 23.4741C34.4503 23.6705 34.5508 23.9034 34.5919 24.0039L38.0445 32.5123C38.1077 32.6319 38.1408 32.7652 38.1408 32.9005C38.1408 33.0358 38.1077 33.169 38.0445 33.2887L38.0354 33.2704Z" fill="white"/>
<path d="M40.7848 38.6595C39.5496 39.9898 38.0527 41.0506 36.3882 41.7752C34.7236 42.4998 32.9273 42.8726 31.1119 42.8702C30.71 42.8702 30.3081 42.8702 29.9153 42.8154C27.1019 43.5618 24.1279 43.4344 21.3887 42.4501C23.2071 44.8045 25.7157 46.5321 28.5638 47.3914C31.4119 48.2507 34.4574 48.1989 37.2746 47.243C40.0918 46.2872 42.54 44.4752 44.2772 42.0601C46.0144 39.6451 46.9537 36.7477 46.964 33.7727C46.9648 33.145 46.9236 32.5179 46.8407 31.8957C45.6087 34.7472 43.4833 37.121 40.7848 38.6595Z" fill="url(#paint0_linear_509_1627)"/>
<path d="M33.345 16.6464C35.4061 16.9998 37.3543 17.8363 39.03 19.0873C40.7057 20.3384 42.0614 21.9684 42.986 23.8441C45.1086 26.0377 46.4695 28.8557 46.868 31.882C48.0983 29.0002 48.3463 25.7936 47.5738 22.7569C46.8013 19.7201 45.0512 17.0219 42.5934 15.0783C40.1356 13.1347 37.1065 12.0536 33.9735 12.0019C30.8405 11.9502 27.7775 12.9307 25.2568 14.7922C25.5948 14.7922 25.9282 14.7602 26.2707 14.7602C28.7532 14.7591 31.1926 15.4095 33.345 16.6464Z" fill="url(#paint1_linear_509_1627)"/>
<path d="M44.3332 29.667C44.3348 33.0062 43.0661 36.2211 40.7847 38.6594C43.4956 37.1221 45.6313 34.7427 46.8679 31.882C46.4695 28.8557 45.1085 26.0377 42.986 23.844C43.8755 25.6561 44.3365 27.6484 44.3332 29.667Z" fill="#886B25"/>
<path d="M18.4474 33.4029C17.9196 31.6037 17.7797 29.7129 18.0372 27.8557C18.2946 25.9984 18.9435 24.217 19.9409 22.6292C20.7713 19.4889 22.6462 16.725 25.2569 14.7922C21.9943 15.0249 18.9106 16.3711 16.522 18.6056C14.1334 20.8402 12.5848 23.8274 12.1354 27.0672C11.686 30.3071 12.3631 33.603 14.0534 36.4033C15.7436 39.2035 18.3445 41.3383 21.4206 42.4501C19.5046 39.9632 18.4656 36.9121 18.4657 33.7728C18.4429 33.6403 18.4474 33.5216 18.4474 33.4029Z" fill="url(#paint2_linear_509_1627)"/>
<path d="M29.9244 42.8155C27.289 42.5758 24.7861 41.5505 22.7399 39.8724C20.6937 38.1942 19.1984 35.9404 18.4475 33.4028C18.4475 33.5216 18.4475 33.6403 18.4475 33.7591C18.4474 36.8984 19.4864 39.9495 21.4024 42.4364C24.1416 43.4207 27.1156 43.5481 29.929 42.8018L29.9244 42.8155Z" fill="#007D8A"/>
<path d="M19.9409 22.6292C21.3363 20.4214 23.3534 18.6755 25.7384 17.611C28.1234 16.5465 30.7699 16.2109 33.3451 16.6464C31.1864 15.404 28.7387 14.7519 26.248 14.7557C25.9054 14.7557 25.5721 14.7557 25.2341 14.7876C22.6311 16.7252 20.7644 19.4905 19.9409 22.6292Z" fill="#007041"/>
<defs>
<linearGradient id="paint0_linear_509_1627" x1="21.3978" y1="39.9519" x2="46.9914" y2="39.9519" gradientUnits="userSpaceOnUse">
<stop stop-color="#00A9CE"/>
<stop offset="0.41" stop-color="#00A7CB"/>
<stop offset="0.66" stop-color="#009FC3"/>
<stop offset="0.86" stop-color="#0091B5"/>
<stop offset="1" stop-color="#0083A6"/>
</linearGradient>
<linearGradient id="paint1_linear_509_1627" x1="25.234" y1="21.9305" x2="48.0234" y2="21.9305" gradientUnits="userSpaceOnUse">
<stop stop-color="#FFA300"/>
<stop offset="0.35" stop-color="#FCA200"/>
<stop offset="0.56" stop-color="#F49D00"/>
<stop offset="0.73" stop-color="#E69600"/>
<stop offset="0.89" stop-color="#D28B00"/>
<stop offset="1" stop-color="#BD8000"/>
</linearGradient>
<linearGradient id="paint2_linear_509_1627" x1="11.976" y1="28.6212" x2="25.234" y2="28.6212" gradientUnits="userSpaceOnUse">
<stop stop-color="#00B140"/>
<stop offset="0.39" stop-color="#00AE40"/>
<stop offset="0.62" stop-color="#01A63E"/>
<stop offset="0.82" stop-color="#02983B"/>
<stop offset="0.99" stop-color="#038437"/>
<stop offset="1" stop-color="#038237"/>
</linearGradient>
</defs>
</svg>
