<svg width="60" height="60" viewBox="0 0 60 60" fill="none" xmlns="http://www.w3.org/2000/svg">
<rect width="60" height="60" rx="30" fill="#172B85"/>
<path fill-rule="evenodd" clip-rule="evenodd" d="M20.4004 35.9065H17.1464L14.7062 26.5973C14.5904 26.1691 14.3445 25.7905 13.9827 25.612C13.08 25.1637 12.0852 24.8068 11 24.6268V24.2684H16.242C16.9655 24.2684 17.5081 24.8068 17.5985 25.4321L18.8646 32.1471L22.1171 24.2684H25.2807L20.4004 35.9065ZM27.0894 35.9065H24.0162L26.5468 24.2684H29.62L27.0894 35.9065ZM33.5958 27.4925C33.6862 26.8657 34.2288 26.5073 34.8619 26.5073C35.8566 26.4173 36.9403 26.5973 37.8446 27.0441L38.3872 24.5384C37.4829 24.18 36.4881 24 35.5853 24C32.6026 24 30.4322 25.6121 30.4322 27.8494C30.4322 29.5514 31.9695 30.4451 33.0548 30.9835C34.2288 31.5203 34.681 31.8787 34.5906 32.4156C34.5906 33.2208 33.6862 33.5792 32.7835 33.5792C31.6982 33.5792 30.613 33.3108 29.6198 32.8624L29.0772 35.3697C30.1625 35.8166 31.3365 35.9965 32.4217 35.9965C35.7662 36.085 37.8446 34.4745 37.8446 32.0572C37.8446 29.013 33.5958 28.8346 33.5958 27.4925ZM48.6001 35.9065L46.1599 24.2684H43.5389C42.9963 24.2684 42.4537 24.6268 42.2728 25.1637L37.7543 35.9065H40.9179L41.5494 34.206H45.4364L45.7982 35.9065H48.6001ZM43.9911 27.4025L44.8938 31.7887H42.3632L43.9911 27.4025Z" fill="white"/>
</svg>
