<svg width="60" height="60" viewBox="0 0 60 60" fill="none" xmlns="http://www.w3.org/2000/svg">
<rect width="60" height="60" rx="30" fill="#02D72F"/>
<path d="M46.9953 47.335H18.2321C15.3454 47.335 13.0046 45.0164 13.0046 42.1569V13.665H41.7668C44.6535 13.665 46.9942 15.9836 46.9942 18.8431V47.335H46.9953Z" fill="#00BE28"/>
<path d="M28.8045 39.386H22.419C21.2576 39.386 20.5897 38.8983 20.1667 37.8355L16.1555 27.6233H20.4476C21.609 27.6233 22.3128 28.1287 22.682 29.2093L24.4588 34.403H25.1626L29.1559 23.5291H36.8616C40.6614 23.5291 42.7727 25.3069 42.7727 28.4955C42.7727 30.2212 41.9112 31.6499 40.3268 32.521C40.5551 32.9743 40.837 33.636 41.2589 34.7521C42.4024 37.749 43.0883 38.6734 43.8099 39.3871H39.7461C37.9168 39.3871 36.8079 38.5858 36.14 36.8601L33.6594 30.3952C33.9581 30.4651 34.3274 30.4828 34.6798 30.4828C36.2105 30.4828 37.0552 29.9597 37.0552 29.0021C37.0552 28.0788 36.3693 27.6255 34.9618 27.6255H33.3427L28.8045 39.386Z" fill="white"/>
</svg>
