<svg width="60" height="60" viewBox="0 0 60 60" fill="none" xmlns="http://www.w3.org/2000/svg">
<rect width="60" height="60" rx="30" fill="#FFD900"/>
<g clip-path="url(#clip0_508_1776)">
<path d="M51.0001 27.5712C51.0001 23.942 48.0964 21 44.5145 21C40.9325 21 38.0288 23.942 38.0288 27.5712C38.0288 31.2003 40.9325 34.1423 44.5145 34.1423C48.0964 34.1423 51.0001 31.2003 51.0001 27.5712Z" fill="white"/>
<path d="M22.0074 28.1273C22.0074 31.6008 20.2219 33.6337 18.0576 33.6337C17.6006 33.6593 17.1468 33.5426 16.7571 33.2995C16.3674 33.0563 16.0603 32.6983 15.8771 32.2733C15.5974 32.7068 15.212 33.0598 14.7581 33.2982C14.3043 33.5365 13.7974 33.6521 13.2866 33.6337C12.0387 33.6337 10.6164 32.9454 10.6164 30.3841V27.5984C10.6164 26.8942 10.0005 26.7342 10.0005 26.3821V26.3326C10.0049 26.2476 10.0392 26.1671 10.0971 26.1054C10.155 26.0438 10.2327 26.0051 10.3162 25.9963L12.3383 25.6923C12.7333 25.6428 12.9703 25.7081 12.9703 26.0924L12.939 31.327C12.9234 32.1753 13.223 32.719 13.792 32.719C14.9455 32.719 15.5296 30.9744 15.5296 29.5174V27.5984C15.5296 26.8942 14.9132 26.7342 14.9132 26.3821V26.3326C14.9187 26.2451 14.9554 26.1627 15.0167 26.1008C15.0779 26.0389 15.1593 26.0017 15.2456 25.9963L17.0937 25.6596C17.4891 25.5957 17.7418 25.7091 17.7418 26.0919L17.6929 31.2784C17.6773 32.1753 17.93 32.719 18.562 32.719C19.6681 32.719 20.7899 30.9744 20.7899 29.3099C20.7899 27.9332 19.3524 27.8529 19.3524 26.6203C19.3467 26.4845 19.3698 26.3489 19.4201 26.2228C19.4703 26.0967 19.5466 25.983 19.6438 25.8892C19.741 25.7954 19.8569 25.7238 19.9836 25.679C20.1104 25.6343 20.2451 25.6175 20.3788 25.6299C21.3911 25.6299 22.0074 26.5426 22.0074 28.1273Z" fill="black"/>
<path d="M23.333 33.2019V33.1375C23.333 32.7369 23.9332 32.6091 23.9332 31.9207V28.3031C23.9332 27.5989 23.333 27.4226 23.333 27.0705V27.021C23.333 26.8768 23.4591 26.7966 23.6649 26.6842L25.6396 25.6938C26.035 25.5016 26.2877 25.7254 26.2877 26.0137V31.9202C26.2877 32.6086 26.951 32.7364 26.951 33.137V33.2014C26.951 33.3614 26.8087 33.4733 26.5878 33.4733H23.6805C23.4748 33.4738 23.333 33.3609 23.333 33.2019ZM23.5544 23.2444C23.5594 23.0463 23.6047 22.8515 23.6876 22.672C23.7704 22.4926 23.8891 22.3324 24.036 22.2017C24.1829 22.071 24.3549 21.9724 24.5412 21.9123C24.7275 21.8522 24.9241 21.8317 25.1185 21.8523C25.3118 21.8324 25.5071 21.8539 25.6918 21.9152C25.8764 21.9766 26.0463 22.0765 26.1904 22.2085C26.3346 22.3405 26.4498 22.5016 26.5287 22.6816C26.6076 22.8615 26.6483 23.0562 26.6483 23.253C26.6483 23.4499 26.6076 23.6446 26.5287 23.8245C26.4498 24.0044 26.3346 24.1656 26.1904 24.2976C26.0463 24.4296 25.8764 24.5295 25.6918 24.5908C25.5071 24.6522 25.3118 24.6736 25.1185 24.6538C24.9228 24.6738 24.725 24.6525 24.5378 24.5911C24.3506 24.5297 24.1781 24.4295 24.031 24.2971C23.884 24.1646 23.7657 24.0026 23.6837 23.8214C23.6016 23.6402 23.5576 23.4437 23.5544 23.2444Z" fill="black"/>
<path d="M28.0879 33.2019V33.1375C28.0879 32.7369 28.7042 32.6091 28.7042 31.9366V24.0625C28.7042 23.3419 28.0879 23.1815 28.0879 22.8457V22.7823C28.0879 22.6224 28.214 22.5416 28.4036 22.4619L30.394 21.4715C30.805 21.263 31.0421 21.4873 31.0421 21.7597V31.94C31.0421 32.6126 31.7215 32.7403 31.7215 33.141V33.2054C31.7215 33.3653 31.5636 33.4772 31.3578 33.4772H28.4506C28.2316 33.4738 28.0879 33.3618 28.0879 33.2019Z" fill="black"/>
<path d="M32.8271 33.2019V33.1375C32.8271 32.7369 33.443 32.6091 33.443 31.9366V24.0625C33.443 23.3419 32.8271 23.1815 32.8271 22.8457V22.7823C32.8271 22.6224 32.9533 22.5416 33.1429 22.4619L35.1332 21.4715C35.5438 21.263 35.7813 21.4873 35.7813 21.7597V31.94C35.7813 32.6126 36.4603 32.7403 36.4603 33.141V33.2054C36.4603 33.3653 36.3024 33.4772 36.0971 33.4772H33.1898C32.9689 33.4738 32.8271 33.3618 32.8271 33.2019Z" fill="black"/>
<path d="M23.8506 36.1881H24.791C24.9181 36.1854 25.0447 36.2046 25.1654 36.2451C25.2623 36.2778 25.3516 36.3302 25.4279 36.3991C25.4962 36.4622 25.5496 36.54 25.5843 36.6269C25.619 36.7153 25.6365 36.8096 25.6361 36.9047C25.6367 36.9888 25.6201 37.0721 25.5872 37.1493C25.5586 37.2172 25.5191 37.2797 25.4704 37.3345C25.4273 37.3834 25.3766 37.4249 25.3204 37.4574C25.2754 37.485 25.2256 37.5037 25.1737 37.5123C25.2406 37.5226 25.3061 37.5402 25.3692 37.5648C25.5244 37.6238 25.6506 37.7418 25.7212 37.8937C25.7655 37.9936 25.7867 38.1025 25.7832 38.2121C25.7879 38.3427 25.7598 38.4723 25.7016 38.589C25.6492 38.6872 25.5734 38.7706 25.4812 38.8316C25.3803 38.8963 25.2682 38.9407 25.1507 38.9624C25.0162 38.9881 24.8795 39.0007 24.7426 39H23.8525L23.8506 36.1881ZM24.7304 37.3603C24.7922 37.3599 24.8537 37.3521 24.9137 37.337C24.9728 37.3222 25.029 37.2973 25.0799 37.2632C25.1296 37.2296 25.1711 37.1849 25.2011 37.1325C25.233 37.073 25.2486 37.006 25.2465 36.9384C25.2496 36.8673 25.2339 36.7967 25.2011 36.7338C25.1716 36.6833 25.1298 36.6412 25.0799 36.6115C25.0286 36.5816 24.9722 36.5616 24.9137 36.5526C24.8531 36.5428 24.7918 36.5379 24.7304 36.5377H24.2353V37.3603H24.7304ZM24.7177 38.6479C24.7928 38.6477 24.8678 38.6436 24.9425 38.6355C25.0166 38.6278 25.0889 38.6079 25.1566 38.5766C25.2212 38.5462 25.2765 38.4988 25.3169 38.4394C25.3573 38.3633 25.3784 38.2782 25.3784 38.1918C25.3784 38.1054 25.3573 38.0203 25.3169 37.9442C25.2781 37.8831 25.2255 37.8322 25.1635 37.7956C25.0997 37.7587 25.0298 37.7339 24.9572 37.7223C24.8857 37.7098 24.8132 37.7033 24.7407 37.703H24.2333V38.6474L24.7177 38.6479Z" fill="black"/>
<path d="M27.9491 36.1881H28.3568L29.4428 39H28.9975L28.7106 38.2161H27.5703L27.2834 39H26.863L27.9491 36.1881ZM28.5899 37.8719L28.1402 36.6368L27.6866 37.8719H28.5899Z" fill="black"/>
<path d="M30.6362 36.1881H31.0405L32.5557 38.3849V36.1881H32.9467V39H32.5469L31.0282 36.7997V39H30.6372L30.6362 36.1881Z" fill="black"/>
<path d="M34.4102 36.1881H34.8056V37.4653L35.9659 36.1881H36.4239L35.3921 37.3346L36.5486 38.9995H36.0701L35.1213 37.6213L34.8056 37.968V39.0005H34.4102V36.1881Z" fill="black"/>
</g>
<defs>
<clipPath id="clip0_508_1776">
<rect width="41" height="18" fill="white" transform="translate(10 21)"/>
</clipPath>
</defs>
</svg>
