<svg width="60" height="60" viewBox="0 0 60 60" fill="none" xmlns="http://www.w3.org/2000/svg">
<rect width="60" height="60" rx="30" fill="black"/>
<mask id="mask0_509_2207" style="mask-type:luminance" maskUnits="userSpaceOnUse" x="12" y="14" width="37" height="33">
<path d="M48.4325 14H12V47H48.4325V14Z" fill="white"/>
</mask>
<g mask="url(#mask0_509_2207)">
<path d="M38.5359 39.4908H42.6623C44.2054 39.4908 45.279 38.7837 45.279 37.3357C45.279 35.8878 44.2054 35.1806 42.6623 35.1806H38.5359V39.4908ZM38.5359 47H44.0377C46.9563 47 48.466 45.4847 48.466 42.5551V39.4908H48.3654C47.5266 42.0501 45.3461 42.8245 42.763 42.8245H38.6701C38.5696 42.8245 38.5359 42.8581 38.5359 42.9592V47ZM30.7865 37.3357L35.0135 41.4439V33.2276L30.7865 37.3357ZM16.4283 47H35.0135V46.0571C35.0135 44.4072 35.5838 43.4643 36.8921 42.9592V42.8581H31.6924C31.424 42.8581 31.3233 42.8245 31.1221 42.6225L28.4047 39.7939L25.5866 42.6562C25.4524 42.7909 25.3519 42.8581 25.0835 42.8581H20.8901C20.6552 42.8581 20.6552 42.7234 20.7894 42.5888L26.157 37.3694L20.6888 32.049C20.5546 31.9143 20.5881 31.7796 20.823 31.7796H25.05C25.2847 31.7796 25.3854 31.8133 25.5196 31.9817L28.4717 34.9449L31.2563 31.9817C31.3904 31.847 31.491 31.7796 31.6924 31.7796H42.7294C45.279 31.7796 47.5266 32.6214 48.3654 35.1806H48.466V18.4449C48.466 15.5153 46.9563 14 44.0377 14H16.4283C13.5096 14 12 15.5153 12 18.4449V42.5888C12 45.4847 13.5096 47 16.4283 47Z" fill="white"/>
</g>
</svg>
