<svg width="60" height="60" viewBox="0 0 60 60" fill="none" xmlns="http://www.w3.org/2000/svg">
<rect width="60" height="60" rx="30" fill="#FFC700"/>
<rect x="18" y="18" width="26" height="24" fill="#282828"/>
<path d="M44.3692 13H14.5922C13.2217 13 12.1118 14.0559 12.1118 15.3577V43.6423C12.1118 44.9441 13.2217 46 14.5922 46H44.3692C45.7396 46 46.8513 44.9441 46.8513 43.6423V15.3577C46.8513 14.0559 45.7396 13 44.3692 13ZM27.2756 38.0474C26.6329 39.0423 25.4761 39.7056 24.1594 39.7056C23.4455 39.7056 22.7768 39.5109 22.2123 39.1726L25.8982 33.1702L27.2929 30.9016L24.1769 25.8298L20.491 19.8274C21.0538 19.4924 21.7208 19.2961 22.4364 19.2961C23.7617 19.2961 24.9238 19.9659 25.5647 20.9691L29.4815 27.3427L33.3081 21.1159C33.3411 21.0631 33.3724 21.0087 33.4054 20.9559C34.0498 19.961 35.2049 19.2977 36.5267 19.2977C37.2406 19.2977 37.9094 19.4924 38.4739 19.8307L34.788 25.8314L27.3798 37.8874C27.3468 37.9418 27.3138 37.9963 27.2791 38.0491L27.2756 38.0474ZM35.2153 39.7056C33.3845 39.7056 31.9098 38.3032 31.9098 36.5658C31.9098 34.8284 33.3828 33.426 35.2153 33.426C37.0478 33.426 38.5207 34.8267 38.5207 36.5658C38.5207 38.3048 37.046 39.7056 35.2153 39.7056Z" fill="#FFC700"/>
</svg>
