<svg width="60" height="60" viewBox="0 0 60 60" fill="none" xmlns="http://www.w3.org/2000/svg">
<rect width="60" height="60" rx="30" fill="#0044F3"/>
<path fill-rule="evenodd" clip-rule="evenodd" d="M21.9296 20.0128C19.5321 18.6394 20.531 15 23.2494 15H40.4564C43.6266 15 45.3585 18.7337 43.2946 21.1689L32.5073 34.1055C31.8107 34.9259 32.06 36.1877 33.0232 36.6787L38.1321 39.2872C40.6435 40.5695 39.7167 44.36 36.9233 44.3604L18.7269 44.3581C15.5391 44.3579 13.8494 40.6083 15.8891 38.189L26.6607 25.0167C27.3352 24.2208 27.1353 22.9909 26.2261 22.4712L21.9296 20.0128ZM17.315 39.3896C16.2795 40.6044 17.1325 42.4877 18.7269 42.4877L36.923 42.49C37.7728 42.4899 38.0467 41.3412 37.2904 40.9551L32.1815 38.3465C30.1452 37.3084 29.614 34.6331 31.0933 32.8909L41.8754 19.9604C42.9109 18.7456 42.0507 16.8704 40.4564 16.8704H23.2494C22.4214 16.8704 22.1262 17.9729 22.8498 18.3874L27.145 20.8451C29.0683 21.9446 29.5186 24.5278 28.0864 26.2175L17.315 39.3896Z" fill="url(#paint0_linear_510_2995)"/>
<defs>
<linearGradient id="paint0_linear_510_2995" x1="42.3704" y1="16.8704" x2="16.8053" y2="42.4823" gradientUnits="userSpaceOnUse">
<stop stop-color="#70D44B"/>
<stop offset="1" stop-color="#09B6F3"/>
</linearGradient>
</defs>
</svg>
